999
dxfrw 0.6.3
  0
SECTION
  2
HEADER
  9
$ACADVER
  1
AC1021
  9
$DWGCODEPAGE
  3
ANSI_1252
  9
$INSBASE
 10
0
 20
0
 30
0
  9
$EXTMIN
 10
2608.726900204939
 20
2364.583872448181
 30
0
  9
$EXTMAX
 10
3227.957827341902
 20
2783.440112138945
 30
0
  9
$LIMMIN
 10
0
 20
0
  9
$LIMMAX
 10
1681.999999999999
 20
1188
  9
$ORTHOMODE
 70
    0
  9
$REGENMODE
 70
    1
  9
$FILLMODE
 70
    1
  9
$QTEXTMODE
 70
    0
  9
$MIRRTEXT
 70
    0
  9
$LTSCALE
 40
2
  9
$ATTMODE
 70
    1
  9
$TEXTSIZE
 40
0.2
  9
$TRACEWID
 40
0.05
  9
$TEXTSTYLE
  7
Standard
  9
$CLAYER
  8
0
  9
$CELTYPE
  6
ByLayer
  9
$CECOLOR
 62
  256
  9
$CELTSCALE
 40
1
  9
$DISPSILH
 70
    0
  9
$DIMSCALE
 40
1
  9
$DIMASZ
 40
1.799999999999999
  9
$DIMEXO
 40
0.0625
  9
$DIMDLI
 40
0.38
  9
$DIMRND
 40
0
  9
$DIMDLE
 40
0
  9
$DIMEXE
 40
0.18
  9
$DIMTP
 40
0
  9
$DIMTM
 40
0
  9
$DIMTXT
 40
0.3499999940395355
  9
$DIMCEN
 40
0.09
  9
$DIMTSZ
 40
0
  9
$DIMTOL
 70
    0
  9
$DIMLIM
 70
    0
  9
$DIMTIH
 70
    1
  9
$DIMTOH
 70
    1
  9
$DIMSE1
 70
    0
  9
$DIMSE2
 70
    0
  9
$DIMTAD
 70
    0
  9
$DIMZIN
 70
    0
  9
$DIMBLK
  1

  9
$DIMASO
 70
    1
  9
$DIMSHO
 70
    1
  9
$DIMPOST
  1

  9
$DIMAPOST
  1

  9
$DIMALT
 70
    0
  9
$DIMALTD
 70
    2
  9
$DIMALTF
 40
25.4
  9
$DIMLFAC
 40
1
  9
$DIMTOFL
 70
    0
  9
$DIMTVP
 40
0
  9
$DIMTIX
 70
    0
  9
$DIMSOXD
 70
    0
  9
$DIMSAH
 70
    0
  9
$DIMBLK1
  1

  9
$DIMBLK2
  1

  9
$DIMSTYLE
  2
Standard
  9
$DIMCLRD
 70
    0
  9
$DIMCLRE
 70
    0
  9
$DIMCLRT
 70
    0
  9
$DIMTFAC
 40
1
  9
$DIMGAP
 40
0.09
  9
$DIMJUST
 70
    0
  9
$DIMSD1
 70
    0
  9
$DIMSD2
 70
    0
  9
$DIMTOLJ
 70
    1
  9
$DIMTZIN
 70
    0
  9
$DIMALTZ
 70
    0
  9
$DIMALTTZ
 70
    0
  9
$DIMUPT
 70
    0
  9
$DIMDEC
 70
    4
  9
$DIMTDEC
 70
    4
  9
$DIMALTU
 70
    2
  9
$DIMALTTD
 70
    2
  9
$DIMTXSTY
  7
Standard
  9
$DIMAUNIT
 70
    0
  9
$DIMADEC
 70
    0
  9
$DIMALTRND
 40
0
  9
$DIMAZIN
 70
    0
  9
$DIMDSEP
 70
   46
  9
$DIMATFIT
 70
    3
  9
$DIMFRAC
 70
    0
  9
$DIMLDRBLK
  1

  9
$DIMLUNIT
 70
    2
  9
$DIMLWD
 70
   -2
  9
$DIMLWE
 70
   -2
  9
$DIMTMOVE
 70
    0
  9
$DIMFXL
 40
1
  9
$DIMFXLON
 70
    0
  9
$DIMJOGANG
 40
0.7853981633974483
  9
$DIMTFILL
 70
    0
  9
$DIMTFILLCLR
 70
    0
  9
$DIMARCSYM
 70
    0
  9
$DIMLTYPE
  6

  9
$DIMLTEX1
  6

  9
$DIMLTEX2
  6

  9
$LUNITS
 70
    2
  9
$LUPREC
 70
    4
  9
$SKETCHINC
 40
0.1
  9
$FILLETRAD
 40
0
  9
$AUNITS
 70
    0
  9
$AUPREC
 70
    0
  9
$MENU
  1
.
  9
$ELEVATION
 40
0
  9
$PELEVATION
 40
0
  9
$THICKNESS
 40
0
  9
$LIMCHECK
 70
    0
  9
$CHAMFERA
 40
0
  9
$CHAMFERB
 40
0
  9
$CHAMFERC
 40
0
  9
$CHAMFERD
 40
0
  9
$SKPOLY
 70
    0
  9
$USRTIMER
 70
    1
  9
$ANGBASE
 50
0
  9
$ANGDIR
 70
    0
  9
$PDMODE
 70
    0
  9
$PDSIZE
 40
0
  9
$PLINEWID
 40
0
  9
$SPLFRAME
 70
    0
  9
$SPLINETYPE
 70
    6
  9
$SPLINESEGS
 70
    8
  9
$HANDSEED
  5
20000
  9
$SURFTAB1
 70
    6
  9
$SURFTAB2
 70
    6
  9
$SURFTYPE
 70
    6
  9
$SURFU
 70
    6
  9
$SURFV
 70
    6
  9
$UCSBASE
  2

  9
$UCSNAME
  2

  9
$UCSORG
 10
0
 20
0
 30
0
  9
$UCSXDIR
 10
1
 20
0
 30
0
  9
$UCSYDIR
 10
0
 20
1
 30
0
  9
$UCSORTHOREF
  2

  9
$UCSORTHOVIEW
 70
    0
  9
$UCSORGTOP
 10
0
 20
0
 30
0
  9
$UCSORGBOTTOM
 10
0
 20
0
 30
0
  9
$UCSORGLEFT
 10
0
 20
0
 30
0
  9
$UCSORGRIGHT
 10
0
 20
0
 30
0
  9
$UCSORGFRONT
 10
0
 20
0
 30
0
  9
$UCSORGBACK
 10
0
 20
0
 30
0
  9
$PUCSBASE
  2

  9
$PUCSNAME
  2

  9
$PUCSORG
 10
0
 20
0
 30
0
  9
$PUCSXDIR
 10
1
 20
0
 30
0
  9
$PUCSYDIR
 10
0
 20
1
 30
0
  9
$PUCSORTHOREF
  2

  9
$PUCSORTHOVIEW
 70
    0
  9
$PUCSORGTOP
 10
0
 20
0
 30
0
  9
$PUCSORGBOTTOM
 10
0
 20
0
 30
0
  9
$PUCSORGLEFT
 10
0
 20
0
 30
0
  9
$PUCSORGRIGHT
 10
0
 20
0
 30
0
  9
$PUCSORGFRONT
 10
0
 20
0
 30
0
  9
$PUCSORGBACK
 10
0
 20
0
 30
0
  9
$USERI1
 70
    0
  9
$USERI2
 70
    0
  9
$USERI3
 70
    0
  9
$USERI4
 70
    0
  9
$USERI5
 70
    0
  9
$USERR1
 40
0
  9
$USERR2
 40
0
  9
$USERR3
 40
0
  9
$USERR4
 40
0
  9
$USERR5
 40
0
  9
$WORLDVIEW
 70
    1
  9
$SHADEDGE
 70
    3
  9
$SHADEDIF
 70
   70
  9
$TILEMODE
 70
    1
  9
$MAXACTVP
 70
   64
  9
$PINSBASE
 10
0
 20
0
 30
0
  9
$PLIMCHECK
 70
    0
  9
$PEXTMIN
 10
0
 20
0
 30
0
  9
$PEXTMAX
 10
1681.999999999999
 20
1188
 30
0
  9
$GRIDMODE
 70
    0
  9
$SNAPSTYLE
 70
    0
  9
$PLIMMIN
 10
0
 20
0
  9
$PLIMMAX
 10
1681.999999999999
 20
1188
  9
$UNITMODE
 70
    0
  9
$VISRETAIN
 70
    1
  9
$PLINEGEN
 70
    0
  9
$PSLTSCALE
 70
    1
  9
$TREEDEPTH
 70
 3020
  9
$CMLSTYLE
  2
Standard
  9
$CMLJUST
 70
    0
  9
$CMLSCALE
 40
1
  9
$PROXYGRAPHICS
 70
    1
  9
$MEASUREMENT
 70
    1
  9
$CELWEIGHT
370
   -1
  9
$ENDCAPS
280
    0
  9
$JOINSTYLE
280
    0
  9
$LWDISPLAY
290
    0
  9
$INSUNITS
 70
    4
  9
$HYPERLINKBASE
  1

  9
$STYLESHEET
  1

  9
$XEDIT
290
    1
  9
$CEPSNTYPE
380
    0
  9
$PSTYLEMODE
290
    1
  9
$EXTNAMES
290
    1
  9
$PSVPSCALE
 40
0
  9
$OLESTARTUP
290
    0
  9
$SORTENTS
280
  127
  9
$INDEXCTL
280
    0
  9
$HIDETEXT
280
    1
  9
$XCLIPFRAME
290
    2
  9
$HALOGAP
280
    0
  9
$OBSCOLOR
 70
  257
  9
$OBSLTYPE
280
    0
  9
$INTERSECTIONDISPLAY
280
    0
  9
$INTERSECTIONCOLOR
 70
  257
  9
$DIMASSOC
280
    1
  9
$PROJECTNAME
  1

  9
$CAMERADISPLAY
290
    0
  9
$LENSLENGTH
 40
50
  9
$CAMERAHEIGHT
 40
0
  9
$STEPSPERSEC
 40
2
  9
$STEPSIZE
 40
6
  9
$3DDWFPREC
 40
2
  9
$PSOLWIDTH
 40
0.25
  9
$PSOLHEIGHT
 40
4
  9
$LOFTANG1
 40
1.570796326794896
  9
$LOFTANG2
 40
1.570796326794896
  9
$LOFTMAG1
 40
0
  9
$LOFTMAG2
 40
0
  9
$LOFTPARAM
 70
    7
  9
$LOFTNORMALS
280
    1
  9
$LATITUDE
 40
37.795
  9
$LONGITUDE
 40
-122.394
  9
$NORTHDIRECTION
 40
0
  9
$TIMEZONE
 70
-8000
  9
$LIGHTGLYPHDISPLAY
280
    1
  9
$TILEMODELIGHTSYNCH
280
    1
  9
$SOLIDHIST
280
    0
  9
$SHOWHIST
280
    1
  9
$DWFFRAME
280
    2
  9
$DGNFRAME
280
    2
  9
$REALWORLDSCALE
290
    1
  9
$INTERFERECOLOR
 62
  256
  9
$CSHADOW
280
    0
  9
$SHADOWPLANELOCATION
 40
0
  0
ENDSEC
  0
SECTION
  2
CLASSES
  0
ENDSEC
  0
SECTION
  2
TABLES
  0
TABLE
  2
VPORT
  5
8
330
0
100
AcDbSymbolTable
 70
    1
  0
VPORT
  5
31
330
2
100
AcDbSymbolTableRecord
100
AcDbViewportTableRecord
  2
*ACTIVE
 70
    0
 10
0
 20
0
 11
1
 21
1
 12
1727.816007626716
 22
1463.868679951908
 13
0
 23
0
 14
10
 24
10
 15
10
 25
10
 16
0
 26
0
 36
1
 17
0
 27
0
 37
0
 40
679.1006621582998
 41
1.795572916666667
 42
50
 43
0
 44
0
 50
0
 51
0
 71
    0
 72
  100
 73
    1
 74
    3
 75
    0
 76
    0
 77
    0
 78
    0
281
    0
 65
    1
110
0
120
0
130
0
111
1
121
0
131
0
112
0
122
1
132
0
 79
    0
146
0
348
10020
 60
    7
 61
    5
292
1
282
    1
141
0
142
0
 63
  250
421
3358443
  0
ENDTAB
  0
TABLE
  2
LTYPE
  5
5
330
0
100
AcDbSymbolTable
 70
    4
  0
LTYPE
  5
14
330
5
100
AcDbSymbolTableRecord
100
AcDbLinetypeTableRecord
  2
ByBlock
 70
    0
  3

 72
   65
 73
    0
 40
0
  0
LTYPE
  5
15
330
5
100
AcDbSymbolTableRecord
100
AcDbLinetypeTableRecord
  2
ByLayer
 70
    0
  3

 72
   65
 73
    0
 40
0
  0
LTYPE
  5
16
330
5
100
AcDbSymbolTableRecord
100
AcDbLinetypeTableRecord
  2
Continuous
 70
    0
  3
Solid line
 72
   65
 73
    0
 40
0
  0
LTYPE
  5
32
330
5
100
AcDbSymbolTableRecord
100
AcDbLinetypeTableRecord
  2
DOT
 70
    0
  3
Dot . . . . . . . . . . . . . . . . . . . . . .
 72
   65
 73
    2
 40
6.35
 49
0
 74
    0
 49
-6.35
 74
    0
  0
LTYPE
  5
33
330
5
100
AcDbSymbolTableRecord
100
AcDbLinetypeTableRecord
  2
DOTTINY
 70
    0
  3
Dot (.15x) .....................................
 72
   65
 73
    2
 40
0.9525
 49
0
 74
    0
 49
-0.9525
 74
    0
  0
LTYPE
  5
34
330
5
100
AcDbSymbolTableRecord
100
AcDbLinetypeTableRecord
  2
DOT2
 70
    0
  3
Dot (.5x) .....................................
 72
   65
 73
    2
 40
3.175
 49
0
 74
    0
 49
-3.175
 74
    0
  0
LTYPE
  5
35
330
5
100
AcDbSymbolTableRecord
100
AcDbLinetypeTableRecord
  2
DOTX2
 70
    0
  3
Dot (2x) .  .  .  .  .  .  .  .  .  .  .  .  .
 72
   65
 73
    2
 40
12.7
 49
0
 74
    0
 49
-12.7
 74
    0
  0
LTYPE
  5
36
330
5
100
AcDbSymbolTableRecord
100
AcDbLinetypeTableRecord
  2
DASHED
 70
    0
  3
Dashed _ _ _ _ _ _ _ _ _ _ _ _ _ _ _ _ _
 72
   65
 73
    2
 40
19.05
 49
12.7
 74
    0
 49
-6.35
 74
    0
  0
LTYPE
  5
37
330
5
100
AcDbSymbolTableRecord
100
AcDbLinetypeTableRecord
  2
DASHEDTINY
 70
    0
  3
Dashed (.15x) _ _ _ _ _ _ _ _ _ _ _ _ _ _ _ _ _
 72
   65
 73
    2
 40
2.8575
 49
1.905
 74
    0
 49
-0.9525
 74
    0
  0
LTYPE
  5
38
330
5
100
AcDbSymbolTableRecord
100
AcDbLinetypeTableRecord
  2
DASHED2
 70
    0
  3
Dashed (.5x) _ _ _ _ _ _ _ _ _ _ _ _ _ _ _ _ _
 72
   65
 73
    2
 40
9.524999999999999
 49
6.35
 74
    0
 49
-3.175
 74
    0
  0
LTYPE
  5
39
330
5
100
AcDbSymbolTableRecord
100
AcDbLinetypeTableRecord
  2
DASHEDX2
 70
    0
  3
Dashed (2x) ____  ____  ____  ____  ____  ___
 72
   65
 73
    2
 40
38.09999999999999
 49
25.4
 74
    0
 49
-12.7
 74
    0
  0
LTYPE
  5
3A
330
5
100
AcDbSymbolTableRecord
100
AcDbLinetypeTableRecord
  2
DASHDOT
 70
    0
  3
Dash dot __ . __ . __ . __ . __ . __ . __ . __
 72
   65
 73
    4
 40
25.4
 49
12.7
 74
    0
 49
-6.35
 74
    0
 49
0
 74
    0
 49
-6.35
 74
    0
  0
LTYPE
  5
3B
330
5
100
AcDbSymbolTableRecord
100
AcDbLinetypeTableRecord
  2
DASHDOTTINY
 70
    0
  3
Dash dot (.15x) _._._._._._._._._._._._._._._.
 72
   65
 73
    4
 40
3.81
 49
1.905
 74
    0
 49
-0.9525
 74
    0
 49
0
 74
    0
 49
-0.9525
 74
    0
  0
LTYPE
  5
3C
330
5
100
AcDbSymbolTableRecord
100
AcDbLinetypeTableRecord
  2
DASHDOT2
 70
    0
  3
Dash dot (.5x) _._._._._._._._._._._._._._._.
 72
   65
 73
    4
 40
12.7
 49
6.35
 74
    0
 49
-3.175
 74
    0
 49
0
 74
    0
 49
-3.175
 74
    0
  0
LTYPE
  5
3D
330
5
100
AcDbSymbolTableRecord
100
AcDbLinetypeTableRecord
  2
DASHDOTX2
 70
    0
  3
Dash dot (2x) ____  .  ____  .  ____  .  ___
 72
   65
 73
    4
 40
50.8
 49
25.4
 74
    0
 49
-12.7
 74
    0
 49
0
 74
    0
 49
-12.7
 74
    0
  0
LTYPE
  5
3E
330
5
100
AcDbSymbolTableRecord
100
AcDbLinetypeTableRecord
  2
DIVIDE
 70
    0
  3
Divide ____ . . ____ . . ____ . . ____ . . ____
 72
   65
 73
    6
 40
31.75
 49
12.7
 74
    0
 49
-6.35
 74
    0
 49
0
 74
    0
 49
-6.35
 74
    0
 49
0
 74
    0
 49
-6.35
 74
    0
  0
LTYPE
  5
3F
330
5
100
AcDbSymbolTableRecord
100
AcDbLinetypeTableRecord
  2
DIVIDETINY
 70
    0
  3
Divide (.15x) __..__..__..__..__..__..__..__.._
 72
   65
 73
    6
 40
4.7625
 49
1.905
 74
    0
 49
-0.9525
 74
    0
 49
0
 74
    0
 49
-0.9525
 74
    0
 49
0
 74
    0
 49
-0.9525
 74
    0
  0
LTYPE
  5
40
330
5
100
AcDbSymbolTableRecord
100
AcDbLinetypeTableRecord
  2
DIVIDE2
 70
    0
  3
Divide (.5x) __..__..__..__..__..__..__..__.._
 72
   65
 73
    6
 40
15.875
 49
6.35
 74
    0
 49
-3.175
 74
    0
 49
0
 74
    0
 49
-3.175
 74
    0
 49
0
 74
    0
 49
-3.175
 74
    0
  0
LTYPE
  5
41
330
5
100
AcDbSymbolTableRecord
100
AcDbLinetypeTableRecord
  2
DIVIDEX2
 70
    0
  3
Divide (2x) ________  .  .  ________  .  .  _
 72
   65
 73
    6
 40
63.5
 49
25.4
 74
    0
 49
-12.7
 74
    0
 49
0
 74
    0
 49
-12.7
 74
    0
 49
0
 74
    0
 49
-12.7
 74
    0
  0
LTYPE
  5
42
330
5
100
AcDbSymbolTableRecord
100
AcDbLinetypeTableRecord
  2
BORDER
 70
    0
  3
Border __ __ . __ __ . __ __ . __ __ . __ __ .
 72
   65
 73
    6
 40
44.45
 49
12.7
 74
    0
 49
-6.35
 74
    0
 49
12.7
 74
    0
 49
-6.35
 74
    0
 49
0
 74
    0
 49
-6.35
 74
    0
  0
LTYPE
  5
43
330
5
100
AcDbSymbolTableRecord
100
AcDbLinetypeTableRecord
  2
BORDERTINY
 70
    0
  3
Border (.15x) __.__.__.__.__.__.__.__.__.__.__.
 72
   65
 73
    6
 40
6.6675
 49
1.905
 74
    0
 49
-0.9525
 74
    0
 49
1.905
 74
    0
 49
-0.9525
 74
    0
 49
0
 74
    0
 49
-0.9525
 74
    0
  0
LTYPE
  5
44
330
5
100
AcDbSymbolTableRecord
100
AcDbLinetypeTableRecord
  2
BORDER2
 70
    0
  3
Border (.5x) __.__.__.__.__.__.__.__.__.__.__.
 72
   65
 73
    6
 40
22.225
 49
6.35
 74
    0
 49
-3.175
 74
    0
 49
6.35
 74
    0
 49
-3.175
 74
    0
 49
0
 74
    0
 49
-3.175
 74
    0
  0
LTYPE
  5
45
330
5
100
AcDbSymbolTableRecord
100
AcDbLinetypeTableRecord
  2
BORDERX2
 70
    0
  3
Border (2x) ____  ____  .  ____  ____  .  ___
 72
   65
 73
    6
 40
88.89999999999999
 49
25.4
 74
    0
 49
-12.7
 74
    0
 49
25.4
 74
    0
 49
-12.7
 74
    0
 49
0
 74
    0
 49
-12.7
 74
    0
  0
LTYPE
  5
46
330
5
100
AcDbSymbolTableRecord
100
AcDbLinetypeTableRecord
  2
CENTER
 70
    0
  3
Center ____ _ ____ _ ____ _ ____ _ ____ _ ____
 72
   65
 73
    4
 40
50.8
 49
31.75
 74
    0
 49
-6.35
 74
    0
 49
6.35
 74
    0
 49
-6.35
 74
    0
  0
LTYPE
  5
47
330
5
100
AcDbSymbolTableRecord
100
AcDbLinetypeTableRecord
  2
CENTERTINY
 70
    0
  3
Center (.15x) ___ _ ___ _ ___ _ ___ _ ___ _ ___
 72
   65
 73
    4
 40
7.619999999999999
 49
4.7625
 74
    0
 49
-0.9525
 74
    0
 49
0.9525
 74
    0
 49
-0.9525
 74
    0
  0
LTYPE
  5
48
330
5
100
AcDbSymbolTableRecord
100
AcDbLinetypeTableRecord
  2
CENTER2
 70
    0
  3
Center (.5x) ___ _ ___ _ ___ _ ___ _ ___ _ ___
 72
   65
 73
    4
 40
28.575
 49
19.05
 74
    0
 49
-3.175
 74
    0
 49
3.175
 74
    0
 49
-3.175
 74
    0
  0
LTYPE
  5
49
330
5
100
AcDbSymbolTableRecord
100
AcDbLinetypeTableRecord
  2
CENTERX2
 70
    0
  3
Center (2x) ________  __  ________  __  _____
 72
   65
 73
    4
 40
101.6
 49
63.5
 74
    0
 49
-12.7
 74
    0
 49
12.7
 74
    0
 49
-12.7
 74
    0
  0
ENDTAB
  0
TABLE
  2
LAYER
  5
2
330
0
100
AcDbSymbolTable
 70
    1
  0
LAYER
  5
10
330
2
100
AcDbSymbolTableRecord
100
AcDbLayerTableRecord
  2
0
 70
    0
 62
    7
  6
CONTINUOUS
370
   -3
390
F
  0
LAYER
  5
4A
330
2
100
AcDbSymbolTableRecord
100
AcDbLayerTableRecord
  2
AM_0
 70
    0
 62
    7
  6
CONTINUOUS
370
   25
390
F
  0
LAYER
  5
4B
330
2
100
AcDbSymbolTableRecord
100
AcDbLayerTableRecord
  2
Defpoints
 70
    0
 62
    7
  6
CONTINUOUS
290
0
370
   -3
390
F
  0
LAYER
  5
4C
330
2
100
AcDbSymbolTableRecord
100
AcDbLayerTableRecord
  2
Design
 70
    0
 62
    7
  6
CONTINUOUS
370
   -3
390
F
  0
LAYER
  5
4D
330
2
100
AcDbSymbolTableRecord
100
AcDbLayerTableRecord
  2
Geometrie náčrtu (ISO)
 70
    0
 62
    7
  6
CONTINUOUS
370
   25
390
F
  0
LAYER
  5
4E
330
2
100
AcDbSymbolTableRecord
100
AcDbLayerTableRecord
  2
Kóta (ISO)
 70
    0
 62
   96
420
32768
  6
CONTINUOUS
370
   25
390
F
  0
LAYER
  5
4F
330
2
100
AcDbSymbolTableRecord
100
AcDbLayerTableRecord
  2
Nadpis (ISO)
 70
    0
 62
    7
  6
CONTINUOUS
370
   50
390
F
  0
LAYER
  5
50
330
2
100
AcDbSymbolTableRecord
100
AcDbLayerTableRecord
  2
Osa (ISO)
 70
    0
 62
  150
420
33023
  6
CONTINUOUS
370
   25
390
F
  0
LAYER
  5
51
330
2
100
AcDbSymbolTableRecord
100
AcDbLayerTableRecord
  2
Rámeček (ISO)
 70
    0
 62
    7
  6
CONTINUOUS
370
   70
390
F
  0
LAYER
  5
52
330
2
100
AcDbSymbolTableRecord
100
AcDbLayerTableRecord
  2
Skizziergeometrie(DIN)
 70
    0
 62
    7
  6
CONTINUOUS
370
   50
390
F
  0
LAYER
  5
53
330
2
100
AcDbSymbolTableRecord
100
AcDbLayerTableRecord
  2
Skrytá (ISO)
 70
    0
 62
    6
  6
DASHED
370
   35
390
F
  0
LAYER
  5
54
330
2
100
AcDbSymbolTableRecord
100
AcDbLayerTableRecord
  2
Středová značka (ISO)
 70
    0
 62
  150
420
33023
  6
CONTINUOUS
370
   25
390
F
  0
LAYER
  5
55
330
2
100
AcDbSymbolTableRecord
100
AcDbLayerTableRecord
  2
Symbole(DIN)
 70
    0
 62
    7
  6
CONTINUOUS
370
   25
390
F
  0
LAYER
  5
56
330
2
100
AcDbSymbolTableRecord
100
AcDbLayerTableRecord
  2
Viditelná (ISO)
 70
    0
 62
    7
  6
CONTINUOUS
370
   50
390
F
  0
LAYER
  5
57
330
2
100
AcDbSymbolTableRecord
100
AcDbLayerTableRecord
  2
Viditelná tenká (ISO)
 70
    0
 62
    7
  6
CONTINUOUS
370
   35
390
F
  0
LAYER
  5
58
330
2
100
AcDbSymbolTableRecord
100
AcDbLayerTableRecord
  2
Značka (ISO)
 70
    0
 62
   96
420
32768
  6
CONTINUOUS
370
   25
390
F
  0
LAYER
  5
59
330
2
100
AcDbSymbolTableRecord
100
AcDbLayerTableRecord
  2
popis-tenka
 70
    0
 62
    2
  6
CONTINUOUS
370
   -3
390
F
  0
LAYER
  5
5A
330
2
100
AcDbSymbolTableRecord
100
AcDbLayerTableRecord
  2
popis-tlusta
 70
    0
 62
    7
  6
CONTINUOUS
370
   50
390
F
  0
LAYER
  5
5B
330
2
100
AcDbSymbolTableRecord
100
AcDbLayerTableRecord
  2
ramecek-velmi tlusta
 70
    0
 62
    7
  6
CONTINUOUS
370
   70
390
F
  0
LAYER
  5
5C
330
2
100
AcDbSymbolTableRecord
100
AcDbLayerTableRecord
  2
razitko+format
 70
    0
 62
    3
  6
CONTINUOUS
370
   -3
390
F
  0
LAYER
  5
5D
330
2
100
AcDbSymbolTableRecord
100
AcDbLayerTableRecord
  2
znacka+sourad.sit
 70
    0
 62
    4
  6
CONTINUOUS
370
   35
390
F
  0
LAYER
  5
5E
330
2
100
AcDbSymbolTableRecord
100
AcDbLayerTableRecord
  2
Čára přerušení (ISO)
 70
    0
 62
    7
  6
CONTINUOUS
370
   50
390
F
  0
ENDTAB
  0
TABLE
  2
STYLE
  5
3
330
0
100
AcDbSymbolTable
 70
    3
  0
STYLE
  5
5F
330
2
100
AcDbSymbolTableRecord
100
AcDbTextStyleTableRecord
  2
STANDARD
 70
    0
 40
0
 41
1
 50
0
 71
    0
 42
1
  3
STANDARD
  4

  0
STYLE
  5
60
330
2
100
AcDbSymbolTableRecord
100
AcDbTextStyleTableRecord
  2
Text poznámky (DIN)
 70
    0
 40
0
 41
1
 50
0
 71
    0
 42
1
  3
Text poznámky (DIN)
  4

  0
STYLE
  5
61
330
2
100
AcDbSymbolTableRecord
100
AcDbTextStyleTableRecord
  2
Styl textu29
 70
    0
 40
0
 41
1
 50
0
 71
    0
 42
1
  3
Styl textu29
  4

  0
STYLE
  5
62
330
2
100
AcDbSymbolTableRecord
100
AcDbTextStyleTableRecord
  2
Aktuell-DIN-Papst
 70
    0
 40
0
 41
1
 50
0
 71
    0
 42
1
  3
Aktuell-DIN-Papst
  4

  0
STYLE
  5
63
330
2
100
AcDbSymbolTableRecord
100
AcDbTextStyleTableRecord
  2
ISO3.5
 70
    0
 40
0
 41
1
 50
0
 71
    0
 42
1
  3
ISO3.5
  4

  0
ENDTAB
  0
TABLE
  2
VIEW
  5
6
330
0
100
AcDbSymbolTable
 70
    0
  0
ENDTAB
  0
TABLE
  2
UCS
  5
7
330
0
100
AcDbSymbolTable
 70
    0
  0
ENDTAB
  0
TABLE
  2
APPID
  5
9
330
0
100
AcDbSymbolTable
 70
    1
  0
APPID
  5
12
330
9
100
AcDbSymbolTableRecord
100
AcDbRegAppTableRecord
  2
ACAD
 70
    0
  0
APPID
  5
64
330
9
100
AcDbSymbolTableRecord
100
AcDbRegAppTableRecord
  2
LibreCad
 70
    0
  0
ENDTAB
  0
TABLE
  2
DIMSTYLE
  5
A
330
0
100
AcDbSymbolTable
 70
    1
100
AcDbDimStyleTable
 71
    1
  0
DIMSTYLE
105
65
330
A
100
AcDbSymbolTableRecord
100
AcDbDimStyleTableRecord
  2
Standard
 70
    0
 40
1
 41
1.799999999999999
 42
0.0625
 43
0.38
 44
0.18
 45
0
 46
0
 47
0
 48
0
 49
1
140
0.3499999940395355
141
0.09
142
0
143
25.4
144
1
145
0
146
1
147
0.09
148
0
 71
    0
 72
    0
 73
    1
 74
    1
 75
    0
 76
    0
 77
    0
 78
    0
 79
    0
170
    0
171
    2
172
    0
173
    0
174
    0
175
    0
176
    0
177
    0
178
    0
179
    0
271
    4
272
    4
273
    2
274
    2
275
    0
276
    0
277
    2
278
   46
279
    0
280
    0
281
    0
282
    0
283
    1
284
    0
285
    0
286
    0
288
    0
289
    3
340
5F
  0
ENDTAB
  0
TABLE
  2
BLOCK_RECORD
  5
1
330
0
100
AcDbSymbolTable
 70
    2
  0
BLOCK_RECORD
  5
1F
330
1
100
AcDbSymbolTableRecord
100
AcDbBlockTableRecord
  2
*Model_Space
 70
    0
280
    1
281
    0
  0
BLOCK_RECORD
  5
1E
330
1
100
AcDbSymbolTableRecord
100
AcDbBlockTableRecord
  2
*Paper_Space
 70
    0
280
    1
281
    0
  0
BLOCK_RECORD
  5
66
330
1
100
AcDbSymbolTableRecord
100
AcDbBlockTableRecord
  2
DatumFilled45
 70
    0
280
    1
281
    0
  0
BLOCK_RECORD
  5
69
330
1
100
AcDbSymbolTableRecord
100
AcDbBlockTableRecord
  2
Filled-1
 70
    0
280
    1
281
    0
  0
BLOCK_RECORD
  5
6C
330
1
100
AcDbSymbolTableRecord
100
AcDbBlockTableRecord
  2
Auftragsstempel
 70
    0
280
    1
281
    0
  0
BLOCK_RECORD
  5
6F
330
1
100
AcDbSymbolTableRecord
100
AcDbBlockTableRecord
  2
Arbeitsgänge
 70
    0
280
    1
281
    0
  0
BLOCK_RECORD
  5
72
330
1
100
AcDbSymbolTableRecord
100
AcDbBlockTableRecord
  2
nitriert
 70
    0
280
    1
281
    0
  0
BLOCK_RECORD
  5
75
330
1
100
AcDbSymbolTableRecord
100
AcDbBlockTableRecord
  2
eth
 70
    0
280
    1
281
    0
  0
BLOCK_RECORD
  5
78
330
1
100
AcDbSymbolTableRecord
100
AcDbBlockTableRecord
  2
Oberfläche
 70
    0
280
    1
281
    0
  0
BLOCK_RECORD
  5
7B
330
1
100
AcDbSymbolTableRecord
100
AcDbBlockTableRecord
  2
Stichmaß
 70
    0
280
    1
281
    0
  0
BLOCK_RECORD
  5
7E
330
1
100
AcDbSymbolTableRecord
100
AcDbBlockTableRecord
  2
Oberflächenbehandlung
 70
    0
280
    1
281
    0
  0
BLOCK_RECORD
  5
81
330
1
100
AcDbSymbolTableRecord
100
AcDbBlockTableRecord
  2
Schweißnähte
 70
    0
280
    1
281
    0
  0
BLOCK_RECORD
  5
84
330
1
100
AcDbSymbolTableRecord
100
AcDbBlockTableRecord
  2
SPG
 70
    0
280
    1
281
    0
  0
BLOCK_RECORD
  5
87
330
1
100
AcDbSymbolTableRecord
100
AcDbBlockTableRecord
  2
Aussenkante + Innenkante DIN 6784
 70
    0
280
    1
281
    0
  0
BLOCK_RECORD
  5
8A
330
1
100
AcDbSymbolTableRecord
100
AcDbBlockTableRecord
  2
Pokus
 70
    0
280
    1
281
    0
  0
BLOCK_RECORD
  5
8D
330
1
100
AcDbSymbolTableRecord
100
AcDbBlockTableRecord
  2
Rámečky Výchozí rámeček
 70
    0
280
    1
281
    0
  0
BLOCK_RECORD
  5
90
330
1
100
AcDbSymbolTableRecord
100
AcDbBlockTableRecord
  2
Rohová razítka OK_Stavebni_AW
 70
    0
280
    1
281
    0
  0
BLOCK_RECORD
  5
93
330
1
100
AcDbSymbolTableRecord
100
AcDbBlockTableRecord
  2
Identifikátor značky svaru1
 70
    0
280
    1
281
    0
  0
BLOCK_RECORD
  5
96
330
1
100
AcDbSymbolTableRecord
100
AcDbBlockTableRecord
  2
Identifikátor značky svaru2
 70
    0
280
    1
281
    0
  0
BLOCK_RECORD
  5
99
330
1
100
AcDbSymbolTableRecord
100
AcDbBlockTableRecord
  2
KUSOVNÍK
 70
    0
280
    1
281
    0
  0
BLOCK_RECORD
  5
9C
330
1
100
AcDbSymbolTableRecord
100
AcDbBlockTableRecord
  2
Pozice1
 70
    0
280
    1
281
    0
  0
BLOCK_RECORD
  5
9F
330
1
100
AcDbSymbolTableRecord
100
AcDbBlockTableRecord
  2
Pozice2
 70
    0
280
    1
281
    0
  0
BLOCK_RECORD
  5
A2
330
1
100
AcDbSymbolTableRecord
100
AcDbBlockTableRecord
  2
Pozice3
 70
    0
280
    1
281
    0
  0
BLOCK_RECORD
  5
A5
330
1
100
AcDbSymbolTableRecord
100
AcDbBlockTableRecord
  2
Pozice4
 70
    0
280
    1
281
    0
  0
BLOCK_RECORD
  5
A8
330
1
100
AcDbSymbolTableRecord
100
AcDbBlockTableRecord
  2
Pozice5
 70
    0
280
    1
281
    0
  0
BLOCK_RECORD
  5
AB
330
1
100
AcDbSymbolTableRecord
100
AcDbBlockTableRecord
  2
Pozice6
 70
    0
280
    1
281
    0
  0
BLOCK_RECORD
  5
AE
330
1
100
AcDbSymbolTableRecord
100
AcDbBlockTableRecord
  2
popisové pole
 70
    0
280
    1
281
    0
  0
BLOCK_RECORD
  5
B1
330
1
100
AcDbSymbolTableRecord
100
AcDbBlockTableRecord
  2
popisové pole_01
 70
    0
280
    1
281
    0
  0
BLOCK_RECORD
  5
B4
330
1
100
AcDbSymbolTableRecord
100
AcDbBlockTableRecord
  2
Identifikátor značky svaru3
 70
    0
280
    1
281
    0
  0
BLOCK_RECORD
  5
B7
330
1
100
AcDbSymbolTableRecord
100
AcDbBlockTableRecord
  2
Identifikátor značky svaru4
 70
    0
280
    1
281
    0
  0
BLOCK_RECORD
  5
BA
330
1
100
AcDbSymbolTableRecord
100
AcDbBlockTableRecord
  2
Identifikátor značky svaru5
 70
    0
280
    1
281
    0
  0
ENDTAB
  0
ENDSEC
  0
SECTION
  2
BLOCKS
  0
BLOCK
  5
20
330
1F
100
AcDbEntity
  8
0
100
AcDbBlockBegin
  2
*Model_Space
 70
    0
 10
0
 20
0
 30
0
  3
*Model_Space
  1

  0
ENDBLK
  5
21
330
1F
100
AcDbEntity
  8
0
100
AcDbBlockEnd
  0
BLOCK
  5
1C
330
1B
100
AcDbEntity
  8
0
100
AcDbBlockBegin
  2
*Paper_Space
 70
    0
 10
0
 20
0
 30
0
  3
*Paper_Space
  1

  0
ENDBLK
  5
1D
330
1F
100
AcDbEntity
  8
0
100
AcDbBlockEnd
  0
BLOCK
  5
67
330
66
100
AcDbEntity
  8
0
100
AcDbBlockBegin
  2
DatumFilled45
 70
    0
 10
0
 20
0
  3
DatumFilled45
  1

  0
LWPOLYLINE
  5
BD
100
AcDbEntity
  8
0
  6
ByLayer
 62
    0
370
   -1
100
AcDbPolyline
 90
    4
 70
    0
 43
0
 10
0
 20
1
 10
0
 20
-1
 10
-1
 20
0
 10
0
 20
1
  0
SOLID
  5
BE
100
AcDbEntity
  8
0
  6
ByLayer
 62
    0
370
   -1
100
AcDbTrace
 10
0
 20
1
 30
0
 11
0
 21
-1
 31
0
 12
-1
 22
0
 32
0
 13
0
 23
1
 33
0
  0
ENDBLK
  5
68
330
66
100
AcDbEntity
  8
0
100
AcDbBlockEnd
  0
BLOCK
  5
6A
330
69
100
AcDbEntity
  8
0
100
AcDbBlockBegin
  2
Filled-1
 70
    0
 10
0
 20
0
  3
Filled-1
  1

  0
LINE
  5
BF
100
AcDbEntity
  8
0
  6
ByLayer
 62
    0
370
   -1
100
AcDbLine
 10
-1
 20
0
 11
0
 21
0
  0
LWPOLYLINE
  5
C0
100
AcDbEntity
  8
0
  6
ByLayer
 62
    0
370
   -1
100
AcDbPolyline
 90
    4
 70
    0
 43
0
 10
-1
 20
-0.1
 10
0
 20
0
 10
-1
 20
0.1
 10
-1
 20
-0.1
  0
SOLID
  5
C1
100
AcDbEntity
  8
0
  6
ByLayer
 62
    0
370
   -1
100
AcDbTrace
 10
-1
 20
-0.1
 30
0
 11
0
 21
0
 31
0
 12
-1
 22
0.1
 32
0
 13
-1
 23
-0.1
 33
0
  0
LINE
  5
C2
100
AcDbEntity
  8
0
  6
ByLayer
 62
    0
370
   -1
100
AcDbLine
 10
-1
 20
-0.1
 11
0
 21
0
  0
LINE
  5
C3
100
AcDbEntity
  8
0
  6
ByLayer
 62
    0
370
   -1
100
AcDbLine
 10
0
 20
0
 11
-1
 21
0.1
  0
LINE
  5
C4
100
AcDbEntity
  8
0
  6
ByLayer
 62
    0
370
   -1
100
AcDbLine
 10
-1
 20
0.1
 11
-1
 21
-0.1
  0
ENDBLK
  5
6B
330
69
100
AcDbEntity
  8
0
100
AcDbBlockEnd
  0
BLOCK
  5
6D
330
6C
100
AcDbEntity
  8
0
100
AcDbBlockBegin
  2
Auftragsstempel
 70
    0
 10
0
 20
0
  3
Auftragsstempel
  1

  0
LINE
  5
C5
100
AcDbEntity
  8
AM_0
  6
ByLayer
 62
  256
370
   -1
100
AcDbLine
 10
0
 20
24.57536016434552
 11
60.26117275417824
 21
24.57536016434552
  0
LINE
  5
C6
100
AcDbEntity
  8
AM_0
  6
ByLayer
 62
  256
370
   -1
100
AcDbLine
 10
60.26117275417824
 20
0
 11
0
 21
0
  0
LINE
  5
C7
100
AcDbEntity
  8
AM_0
  6
ByLayer
 62
  256
370
   -1
100
AcDbLine
 10
19.48371502484951
 20
10.33963219954778
 11
58.76208150753086
 21
10.33963219961144
  0
LINE
  5
C8
100
AcDbEntity
  8
AM_0
  6
ByLayer
 62
  256
370
   -1
100
AcDbLine
 10
19.48371502484951
 20
2.547440669111864
 11
58.91199426145727
 21
2.547440669150089
  0
LINE
  5
C9
100
AcDbEntity
  8
AM_0
  6
ByLayer
 62
  256
370
   -1
100
AcDbLine
 10
19.93345328663053
 20
18.28166887999309
 11
58.76208150753086
 21
18.28166887999309
  0
LINE
  5
CA
100
AcDbEntity
  8
AM_0
  6
ByLayer
 62
  256
370
   -1
100
AcDbLine
 10
60.26117275417824
 20
24.57536016434552
 11
60.26117275417824
 21
0
  0
LINE
  5
CB
100
AcDbEntity
  8
AM_0
  6
ByLayer
 62
  256
370
   -1
100
AcDbLine
 10
0
 20
0
 11
0
 21
24.57536016434552
  0
TEXT
  5
CC
100
AcDbEntity
  8
AM_0
  6
ByLayer
 62
  256
370
   -1
100
AcDbText
 10
0.6046294798454978
 20
2.706547790972493
 30
0
 40
3.000000119209288
  1
Termin:
 50
0
 41
1
 51
0
  7
Styl textu29
 71
    0
210
0
220
0
230
1
100
AcDbText
  0
TEXT
  5
CD
100
AcDbEntity
  8
AM_0
  6
ByLayer
 62
  256
370
   -1
100
AcDbText
 10
0.4917087868163872
 20
10.97724761938885
 30
0
 40
3.000000119209288
  1
Stückz.:
 50
0
 41
1
 51
0
  7
Styl textu29
 71
    0
210
0
220
0
230
1
100
AcDbText
  0
TEXT
  5
CE
100
AcDbEntity
  8
AM_0
  6
ByLayer
 62
  256
370
   -1
100
AcDbText
 10
0.622797531394026
 20
18.56138937114742
 30
0
 40
3.000000119209288
  1
Auftr.-Nr.:
 50
0
 41
1
 51
0
  7
Styl textu29
 71
    0
210
0
220
0
230
1
100
AcDbText
  0
ENDBLK
  5
6E
330
6C
100
AcDbEntity
  8
0
100
AcDbBlockEnd
  0
BLOCK
  5
70
330
6F
100
AcDbEntity
  8
0
100
AcDbBlockBegin
  2
Arbeitsgänge
 70
    0
 10
0
 20
0
  3
Arbeitsgänge
  1

  0
LINE
  5
CF
100
AcDbEntity
  8
AM_0
  6
ByLayer
 62
  256
370
   -1
100
AcDbLine
 10
0
 20
28.13937151723053
 11
109.52729901286
 21
28.13937151723053
  0
LINE
  5
D0
100
AcDbEntity
  8
AM_0
  6
ByLayer
 62
  256
370
   -1
100
AcDbLine
 10
0
 20
17.99999999999499
 11
109.5272990128681
 21
18.00000000001958
  0
LINE
  5
D1
100
AcDbEntity
  8
AM_0
  6
ByLayer
 62
  256
370
   -1
100
AcDbLine
 10
0
 20
13.49999999997592
 11
109.5272990128718
 21
13.50000000007959
  0
LINE
  5
D2
100
AcDbEntity
  8
AM_0
  6
ByLayer
 62
  256
370
   -1
100
AcDbLine
 10
0
 20
8.99999999999501
 11
109.5272990128754
 21
9.00000000009868
  0
LINE
  5
D3
100
AcDbEntity
  8
AM_0
  6
ByLayer
 62
  256
370
   -1
100
AcDbLine
 10
0
 20
4.499999999994983
 11
109.527299012879
 21
4.500000000098651
  0
LINE
  5
D4
100
AcDbEntity
  8
AM_0
  6
ByLayer
 62
  256
370
   -1
100
AcDbLine
 10
0
 20
0
 11
109.5272990128826
 21
0
  0
LINE
  5
D5
100
AcDbEntity
  8
AM_0
  6
ByLayer
 62
  256
370
   -1
100
AcDbLine
 10
53.95433748366418
 20
21.99102856606402
 11
53.95433748366791
 21
0
  0
LINE
  5
D6
100
AcDbEntity
  8
AM_0
  6
ByLayer
 62
  256
370
   -1
100
AcDbLine
 10
25.46644721960206
 20
28.13937151723053
 11
25.46644721962863
 21
0
  0
LINE
  5
D7
100
AcDbEntity
  8
AM_0
  6
ByLayer
 62
  256
370
   -1
100
AcDbLine
 10
41.11320681379602
 20
28.13937151723053
 11
41.11320681382267
 21
0
  0
LINE
  5
D8
100
AcDbEntity
  8
AM_0
  6
ByLayer
 62
  256
370
   -1
100
AcDbLine
 10
0
 20
0
 11
0
 21
28.13937151723053
  0
LINE
  5
D9
100
AcDbEntity
  8
AM_0
  6
ByLayer
 62
  256
370
   -1
100
AcDbLine
 10
67.33501252635253
 20
28.13937151723053
 11
67.33501252637086
 21
0
  0
LINE
  5
DA
100
AcDbEntity
  8
AM_0
  6
ByLayer
 62
  256
370
   -1
100
AcDbLine
 10
81.47104606180821
 20
28.13937151723053
 11
81.47104606180821
 21
0
  0
LINE
  5
DB
100
AcDbEntity
  8
AM_0
  6
ByLayer
 62
  256
370
   -1
100
AcDbLine
 10
109.52729901286
 20
28.13937151723053
 11
109.5272990128826
 21
0
  0
LINE
  5
DC
100
AcDbEntity
  8
AM_0
  6
ByLayer
 62
  256
370
   -1
100
AcDbLine
 10
0
 20
28.13937151723053
 11
109.52729901286
 21
28.13937151723053
  0
LINE
  5
DD
100
AcDbEntity
  8
AM_0
  6
ByLayer
 62
  256
370
   -1
100
AcDbLine
 10
0
 20
17.99999999999499
 11
109.5272990128681
 21
18.00000000001958
  0
LINE
  5
DE
100
AcDbEntity
  8
AM_0
  6
ByLayer
 62
  256
370
   -1
100
AcDbLine
 10
0
 20
13.49999999997592
 11
109.5272990128718
 21
13.50000000007959
  0
LINE
  5
DF
100
AcDbEntity
  8
AM_0
  6
ByLayer
 62
  256
370
   -1
100
AcDbLine
 10
0
 20
8.99999999999501
 11
109.5272990128754
 21
9.00000000009868
  0
LINE
  5
E0
100
AcDbEntity
  8
AM_0
  6
ByLayer
 62
  256
370
   -1
100
AcDbLine
 10
0
 20
4.499999999994983
 11
109.527299012879
 21
4.500000000098651
  0
LINE
  5
E1
100
AcDbEntity
  8
AM_0
  6
ByLayer
 62
  256
370
   -1
100
AcDbLine
 10
0
 20
0
 11
109.5272990128826
 21
0
  0
LINE
  5
E2
100
AcDbEntity
  8
AM_0
  6
ByLayer
 62
  256
370
   -1
100
AcDbLine
 10
53.95433748366418
 20
21.99102856606402
 11
53.95433748366791
 21
0
  0
LINE
  5
E3
100
AcDbEntity
  8
AM_0
  6
ByLayer
 62
  256
370
   -1
100
AcDbLine
 10
25.46644721960206
 20
28.13937151723053
 11
25.46644721962863
 21
0
  0
LINE
  5
E4
100
AcDbEntity
  8
AM_0
  6
ByLayer
 62
  256
370
   -1
100
AcDbLine
 10
41.11320681379602
 20
28.13937151723053
 11
41.11320681382267
 21
0
  0
LINE
  5
E5
100
AcDbEntity
  8
AM_0
  6
ByLayer
 62
  256
370
   -1
100
AcDbLine
 10
0
 20
0
 11
0
 21
28.13937151723053
  0
LINE
  5
E6
100
AcDbEntity
  8
AM_0
  6
ByLayer
 62
  256
370
   -1
100
AcDbLine
 10
67.33501252635253
 20
28.13937151723053
 11
67.33501252637086
 21
0
  0
LINE
  5
E7
100
AcDbEntity
  8
AM_0
  6
ByLayer
 62
  256
370
   -1
100
AcDbLine
 10
81.47104606180821
 20
28.13937151723053
 11
81.47104606180821
 21
0
  0
LINE
  5
E8
100
AcDbEntity
  8
AM_0
  6
ByLayer
 62
  256
370
   -1
100
AcDbLine
 10
109.52729901286
 20
28.13937151723053
 11
109.5272990128826
 21
0
  0
TEXT
  5
E9
100
AcDbEntity
  8
AM_0
  6
ByLayer
 62
  256
370
   -1
100
AcDbText
 10
44.89000835090865
 20
19.18652595848399
 30
0
 40
3.000000119209288
  1
i.O.
 50
0
 41
1
 51
0
  7
Styl textu29
 71
    0
210
0
220
0
230
1
100
AcDbText
  0
TEXT
  5
EA
100
AcDbEntity
  8
AM_0
  6
ByLayer
 62
  256
370
   -1
100
AcDbText
 10
30.75396574228836
 20
19.18652595848399
 30
0
 40
3.000000119209288
  1
Nr.
 50
0
 41
1
 51
0
  7
Styl textu29
 71
    0
210
0
220
0
230
1
100
AcDbText
  0
TEXT
  5
EB
100
AcDbEntity
  8
AM_0
  6
ByLayer
 62
  256
370
   -1
100
AcDbText
 10
26.78400000040391
 20
23.8714436162347
 30
0
 40
3.000000119209288
  1
Masch.-
 50
0
 41
1
 51
0
  7
Styl textu29
 71
    0
210
0
220
0
230
1
100
AcDbText
  0
TEXT
  5
EC
100
AcDbEntity
  8
AM_0
  6
ByLayer
 62
  256
370
   -1
100
AcDbText
 10
84.31556209118014
 20
21.07641379079745
 30
0
 40
3.000000119209288
  1
Unterschrift
 50
0
 41
1
 51
0
  7
Styl textu29
 71
    0
210
0
220
0
230
1
100
AcDbText
  0
TEXT
  5
ED
100
AcDbEntity
  8
AM_0
  6
ByLayer
 62
  256
370
   -1
100
AcDbText
 10
55.03341715629161
 20
19.18652595848399
 30
0
 40
3.000000119209288
  1
n.i.O.
 50
0
 41
1
 51
0
  7
Styl textu29
 71
    0
210
0
220
0
230
1
100
AcDbText
  0
TEXT
  5
EE
100
AcDbEntity
  8
AM_0
  6
ByLayer
 62
  256
370
   -1
100
AcDbText
 10
42.40810967953605
 20
23.82474274681158
 30
0
 40
3.000000119209288
  1
Anzahl Teile
 50
0
 41
1
 51
0
  7
Styl textu29
 71
    0
210
0
220
0
230
1
100
AcDbText
  0
TEXT
  5
EF
100
AcDbEntity
  8
AM_0
  6
ByLayer
 62
  256
370
   -1
100
AcDbText
 10
68.62776801315761
 20
21.04592447439266
 30
0
 40
3.000000119209288
  1
Datum
 50
0
 41
1
 51
0
  7
Styl textu29
 71
    0
210
0
220
0
230
1
100
AcDbText
  0
TEXT
  5
F0
100
AcDbEntity
  8
AM_0
  6
ByLayer
 62
  256
370
   -1
100
AcDbText
 10
0.8896865868058155
 20
21.12810281192424
 30
0
 40
3.000000119209288
  1
Arbeitsgang
 50
0
 41
1
 51
0
  7
Styl textu29
 71
    0
210
0
220
0
230
1
100
AcDbText
  0
ENDBLK
  5
71
330
6F
100
AcDbEntity
  8
0
100
AcDbBlockEnd
  0
BLOCK
  5
73
330
72
100
AcDbEntity
  8
0
100
AcDbBlockBegin
  2
nitriert
 70
    0
 10
0
 20
0
  3
nitriert
  1

  0
MTEXT
  5
F1
100
AcDbEntity
  8
Značka (ISO)
  6
ByLayer
 62
  256
370
   -1
100
AcDbMText
 10
-18.36850643157959
 20
4.866015166044235
 30
0
 40
3.499999940395355
 41
40.24999931454713
 71
    1
 72
    1
  1
nitriert 58+1 HRC\PNht= 0.3+0.1
  7
Text poznámky (DIN)
210
0
220
0
230
1
 50
0
 73
    2
 44
1.068348050117492
  0
ENDBLK
  5
74
330
72
100
AcDbEntity
  8
0
100
AcDbBlockEnd
  0
BLOCK
  5
76
330
75
100
AcDbEntity
  8
0
100
AcDbBlockBegin
  2
eth
 70
    0
 10
0
 20
0
  3
eth
  1

  0
MTEXT
  5
F2
100
AcDbEntity
  8
Značka (ISO)
  6
ByLayer
 62
  256
370
   -1
100
AcDbMText
 10
-26.93506479263306
 20
2.274350598454474
 30
0
 40
3.499999940395355
 41
59.01522128595362
 71
    1
 72
    1
  1
einsatzgehärtet 58%%P2HRC
  7
Text poznámky (DIN)
210
0
220
0
230
1
 50
0
 73
    1
 44
1
  0
ENDBLK
  5
77
330
75
100
AcDbEntity
  8
0
100
AcDbBlockEnd
  0
BLOCK
  5
79
330
78
100
AcDbEntity
  8
0
100
AcDbBlockBegin
  2
Oberfläche
 70
    0
 10
0
 20
0
  3
Oberfläche
  1

  0
LINE
  5
F3
100
AcDbEntity
  8
Geometrie náčrtu (ISO)
  6
ByLayer
 62
  256
370
   -1
100
AcDbLine
 10
0
 20
26.72960404333978
 11
0
 21
0
  0
LINE
  5
F4
100
AcDbEntity
  8
Geometrie náčrtu (ISO)
  6
ByLayer
 62
  256
370
   -1
100
AcDbLine
 10
0
 20
0
 11
58.74808464887589
 21
0
  0
LINE
  5
F5
100
AcDbEntity
  8
Geometrie náčrtu (ISO)
  6
ByLayer
 62
  256
370
   -1
100
AcDbLine
 10
58.74808464887589
 20
0
 11
58.74808464887589
 21
20.88979199067705
  0
LINE
  5
F6
100
AcDbEntity
  8
Geometrie náčrtu (ISO)
  6
ByLayer
 62
  256
370
   -1
100
AcDbLine
 10
27.56927539908635
 20
26.72960404333978
 11
0
 21
26.72960404333978
  0
LINE
  5
F7
100
AcDbEntity
  8
Geometrie náčrtu (ISO)
  6
ByLayer
 62
  256
370
   -1
100
AcDbLine
 10
0
 20
20.88979199067701
 11
27.56927539908634
 21
20.88979199067705
  0
LINE
  5
F8
100
AcDbEntity
  8
Geometrie náčrtu (ISO)
  6
ByLayer
 62
  256
370
   -1
100
AcDbLine
 10
27.56927539908634
 20
20.88979199067705
 11
27.56927539908635
 21
26.72960404333978
  0
LINE
  5
F9
100
AcDbEntity
  8
Geometrie náčrtu (ISO)
  6
ByLayer
 62
  256
370
   -1
100
AcDbLine
 10
0
 20
13.92652799378464
 11
37.22551906678661
 21
13.92652799378467
  0
LINE
  5
FA
100
AcDbEntity
  8
Geometrie náčrtu (ISO)
  6
ByLayer
 62
  256
370
   -1
100
AcDbLine
 10
37.22551906678661
 20
13.92652799378467
 11
37.22551906678661
 21
20.88979199067701
  0
LINE
  5
FB
100
AcDbEntity
  8
Geometrie náčrtu (ISO)
  6
ByLayer
 62
  256
370
   -1
100
AcDbLine
 10
37.22551906678661
 20
20.88979199067701
 11
27.56927539908634
 21
20.88979199067705
  0
LINE
  5
FC
100
AcDbEntity
  8
Geometrie náčrtu (ISO)
  6
ByLayer
 62
  256
370
   -1
100
AcDbLine
 10
37.22551906678661
 20
13.92652799378467
 11
37.22551906678663
 21
6.963263996892337
  0
LINE
  5
FD
100
AcDbEntity
  8
Geometrie náčrtu (ISO)
  6
ByLayer
 62
  256
370
   -1
100
AcDbLine
 10
37.22551906678663
 20
6.963263996892337
 11
0
 21
6.963263996892299
  0
LINE
  5
FE
100
AcDbEntity
  8
Geometrie náčrtu (ISO)
  6
ByLayer
 62
  256
370
   -1
100
AcDbLine
 10
37.22551906678663
 20
6.963263996892337
 11
37.22551906678661
 21
0
  0
LINE
  5
FF
100
AcDbEntity
  8
Geometrie náčrtu (ISO)
  6
ByLayer
 62
  256
370
   -1
100
AcDbLine
 10
37.22551906678661
 20
13.92652799378467
 11
58.74808464887589
 21
13.92652799378467
  0
LINE
  5
100
100
AcDbEntity
  8
Geometrie náčrtu (ISO)
  6
ByLayer
 62
  256
370
   -1
100
AcDbLine
 10
37.22551906678663
 20
6.963263996892337
 11
58.74808464887589
 21
6.963263996892337
  0
LINE
  5
101
100
AcDbEntity
  8
Geometrie náčrtu (ISO)
  6
ByLayer
 62
  256
370
   -1
100
AcDbLine
 10
37.22551906678661
 20
20.88979199067701
 11
58.74808464887589
 21
20.88979199067705
  0
MTEXT
  5
102
100
AcDbEntity
  8
Značka (ISO)
  6
ByLayer
 62
    7
370
   -1
100
AcDbMText
 10
0.9843999784895983
 20
24.88653748591613
 30
0
 40
2.5
 41
52.63888835888516
 71
    1
 72
    1
  1
\fISOCPEUR|b0|i0;Oberflächengüte:
  7
Text poznámky (DIN)
210
0
220
0
230
1
 50
0
 73
    1
 44
1
  0
MTEXT
  5
103
100
AcDbEntity
  8
Značka (ISO)
  6
ByLayer
 62
    7
370
   -1
100
AcDbMText
 10
1.179143148133299
 20
11.93319454039773
 30
0
 40
2.5
 41
37.6388883588843
 71
    1
 72
    1
  1
\fISOCPEUR|b0|i0;Gewinde
  7
Text poznámky (DIN)
210
0
220
0
230
1
 50
0
 73
    1
 44
1
  0
MTEXT
  5
104
100
AcDbEntity
  8
Značka (ISO)
  6
ByLayer
 62
    7
370
   -1
100
AcDbMText
 10
1.130172210770846
 20
18.83914594300911
 30
0
 40
2.5
 41
42.08523766345213
 71
    1
 72
    1
  1
\fISOCPEUR|b0|i0;Passungen
  7
Text poznámky (DIN)
210
0
220
0
230
1
 50
0
 73
    1
 44
1
  0
MTEXT
  5
105
100
AcDbEntity
  8
Značka (ISO)
  6
ByLayer
 62
    7
370
   -1
100
AcDbMText
 10
0.9817495435710551
 20
4.90732599264458
 30
0
 40
2.5
 41
60.69539634450305
 71
    1
 72
    1
  1
\fISOCPEUR|b0|i0;Durchgangsbohrungen
  7
Text poznámky (DIN)
210
0
220
0
230
1
 50
0
 73
    1
 44
1
  0
MTEXT
  5
106
100
AcDbEntity
  8
Značka (ISO)
  6
ByLayer
 62
    7
370
   -1
100
AcDbMText
 10
41.27840916453367
 20
18.64496895665986
 30
0
 40
2.5
 41
41.24999891443947
 71
    1
 72
    1
  1
\fISOCPEUR|b0|i0;Ra 0,8 (x)
  7
Text poznámky (DIN)
210
0
220
0
230
1
 50
0
 73
    1
 44
1
  0
MTEXT
  5
107
100
AcDbEntity
  8
Značka (ISO)
  6
ByLayer
 62
    7
370
   -1
100
AcDbMText
 10
41.34383586855526
 20
4.79563773509966
 30
0
 40
2.5
 41
42.63888780332851
 71
    1
 72
    1
  1
\fISOCPEUR|b0|i0;Ra 12,5 (z)
  7
Text poznámky (DIN)
210
0
220
0
230
1
 50
0
 73
    1
 44
1
  0
MTEXT
  5
108
100
AcDbEntity
  8
Značka (ISO)
  6
ByLayer
 62
    7
370
   -1
100
AcDbMText
 10
41.25350035658043
 20
11.87036414391972
 30
0
 40
2.5
 41
41.24999891443962
 71
    1
 72
    1
  1
\fISOCPEUR|b0|i0;Ra 3,2 (y)
  7
Text poznámky (DIN)
210
0
220
0
230
1
 50
0
 73
    1
 44
1
  0
ENDBLK
  5
7A
330
78
100
AcDbEntity
  8
0
100
AcDbBlockEnd
  0
BLOCK
  5
7C
330
7B
100
AcDbEntity
  8
0
100
AcDbBlockBegin
  2
Stichmaß
 70
    0
 10
0
 20
0
  3
Stichmaß
  1

  0
LINE
  5
109
100
AcDbEntity
  8
Geometrie náčrtu (ISO)
  6
ByLayer
 62
  256
370
   -1
100
AcDbLine
 10
0
 20
11.52199612954435
 11
74.75151052054386
 21
11.52199612954435
  0
LINE
  5
10A
100
AcDbEntity
  8
Geometrie náčrtu (ISO)
  6
ByLayer
 62
  256
370
   -1
100
AcDbLine
 10
74.75151052054386
 20
11.52199612954435
 11
74.75151052054386
 21
5.760998064772183
  0
LINE
  5
10B
100
AcDbEntity
  8
Geometrie náčrtu (ISO)
  6
ByLayer
 62
  256
370
   -1
100
AcDbLine
 10
74.75151052054386
 20
5.760998064772183
 11
0
 21
5.760998064772183
  0
LINE
  5
10C
100
AcDbEntity
  8
Geometrie náčrtu (ISO)
  6
ByLayer
 62
  256
370
   -1
100
AcDbLine
 10
0
 20
5.760998064772183
 11
0
 21
11.52199612954435
  0
LINE
  5
10D
100
AcDbEntity
  8
Geometrie náčrtu (ISO)
  6
ByLayer
 62
  256
370
   -1
100
AcDbLine
 10
0
 20
5.760998064772183
 11
74.75151052054386
 21
5.760998064772183
  0
LINE
  5
10E
100
AcDbEntity
  8
Geometrie náčrtu (ISO)
  6
ByLayer
 62
  256
370
   -1
100
AcDbLine
 10
74.75151052054386
 20
5.760998064772183
 11
74.75151052054386
 21
0
  0
LINE
  5
10F
100
AcDbEntity
  8
Geometrie náčrtu (ISO)
  6
ByLayer
 62
  256
370
   -1
100
AcDbLine
 10
74.75151052054386
 20
0
 11
0
 21
0
  0
LINE
  5
110
100
AcDbEntity
  8
Geometrie náčrtu (ISO)
  6
ByLayer
 62
  256
370
   -1
100
AcDbLine
 10
0
 20
0
 11
0
 21
5.760998064772183
  0
LINE
  5
111
100
AcDbEntity
  8
Geometrie náčrtu (ISO)
  6
ByLayer
 62
  256
370
   -1
100
AcDbLine
 10
74.75151052054386
 20
11.52199612954435
 11
85.33645772783984
 21
11.52199612954435
  0
LINE
  5
112
100
AcDbEntity
  8
Geometrie náčrtu (ISO)
  6
ByLayer
 62
  256
370
   -1
100
AcDbLine
 10
85.33645772783984
 20
11.52199612954435
 11
85.33645772783984
 21
5.760998064772183
  0
LINE
  5
113
100
AcDbEntity
  8
Geometrie náčrtu (ISO)
  6
ByLayer
 62
  256
370
   -1
100
AcDbLine
 10
85.33645772783984
 20
5.760998064772183
 11
74.75151052054386
 21
5.760998064772183
  0
LINE
  5
114
100
AcDbEntity
  8
Geometrie náčrtu (ISO)
  6
ByLayer
 62
  256
370
   -1
100
AcDbLine
 10
74.75151052054386
 20
5.760998064772183
 11
74.75151052054386
 21
11.52199612954435
  0
LINE
  5
115
100
AcDbEntity
  8
Geometrie náčrtu (ISO)
  6
ByLayer
 62
  256
370
   -1
100
AcDbLine
 10
85.33645772783984
 20
5.760998064772183
 11
74.75151052054386
 21
5.760998064772183
  0
LINE
  5
116
100
AcDbEntity
  8
Geometrie náčrtu (ISO)
  6
ByLayer
 62
  256
370
   -1
100
AcDbLine
 10
74.75151052054386
 20
5.760998064772183
 11
74.75151052054386
 21
0
  0
LINE
  5
117
100
AcDbEntity
  8
Geometrie náčrtu (ISO)
  6
ByLayer
 62
  256
370
   -1
100
AcDbLine
 10
74.75151052054386
 20
0
 11
85.33645772783984
 21
0
  0
LINE
  5
118
100
AcDbEntity
  8
Geometrie náčrtu (ISO)
  6
ByLayer
 62
  256
370
   -1
100
AcDbLine
 10
85.33645772783984
 20
0
 11
85.33645772783984
 21
5.760998064772183
  0
MTEXT
  5
119
100
AcDbEntity
  8
Značka (ISO)
  6
ByLayer
 62
    7
370
   -1
100
AcDbMText
 10
1.209166186941103
 20
9.781475413601086
 30
0
 40
2.5
 41
104.5842847033877
 71
    1
 72
    1
  1
\fISOCPEUR|b0|i0;Stichmaß für Gewinde u. Durchgangsbohrungen
  7
Text poznámky (DIN)
210
0
220
0
230
1
 50
0
 73
    1
 44
1
  0
MTEXT
  5
11A
100
AcDbEntity
  8
Značka (ISO)
  6
ByLayer
 62
    7
370
   -1
100
AcDbMText
 10
1.075830144987293
 20
3.872110516078546
 30
0
 40
2.5
 41
73.61301491122538
 71
    1
 72
    1
  1
\fISOCPEUR|b0|i0;Stichmaß für Passbohrungen
  7
Text poznámky (DIN)
210
0
220
0
230
1
 50
0
 73
    1
 44
1
  0
MTEXT
  5
11B
100
AcDbEntity
  8
Značka (ISO)
  6
ByLayer
 62
    7
370
   -1
100
AcDbMText
 10
76.21238037540931
 20
9.971036371071358
 30
0
 40
2.5
 41
30.55555502555045
 71
    1
 72
    1
  1
\fISOCPEUR|b0|i0;%%P0,1
  7
Text poznámky (DIN)
210
0
220
0
230
1
 50
0
 73
    1
 44
1
  0
MTEXT
  5
11C
100
AcDbEntity
  8
Značka (ISO)
  6
ByLayer
 62
    7
370
   -1
100
AcDbMText
 10
76.26550038709225
 20
3.922140505813871
 30
0
 40
2.5
 41
33.05555502555045
 71
    1
 72
    1
  1
\fISOCPEUR|b0|i0;%%P0,02
  7
Text poznámky (DIN)
210
0
220
0
230
1
 50
0
 73
    1
 44
1
  0
ENDBLK
  5
7D
330
7B
100
AcDbEntity
  8
0
100
AcDbBlockEnd
  0
BLOCK
  5
7F
330
7E
100
AcDbEntity
  8
0
100
AcDbBlockBegin
  2
Oberflächenbehandlung
 70
    0
 10
0
 20
0
  3
Oberflächenbehandlung
  1

  0
LINE
  5
11D
100
AcDbEntity
  8
Geometrie náčrtu (ISO)
  6
ByLayer
 62
  256
370
   -1
100
AcDbLine
 10
0
 20
12.6367239512921
 11
38.97255149593903
 21
12.63672395129211
  0
LINE
  5
11E
100
AcDbEntity
  8
Geometrie náčrtu (ISO)
  6
ByLayer
 62
  256
370
   -1
100
AcDbLine
 10
38.97255149593903
 20
12.63672395129211
 11
38.97255149593903
 21
6.318361975646045
  0
LINE
  5
11F
100
AcDbEntity
  8
Geometrie náčrtu (ISO)
  6
ByLayer
 62
  256
370
   -1
100
AcDbLine
 10
38.97255149593903
 20
6.318361975646045
 11
0
 21
6.318361975646045
  0
LINE
  5
120
100
AcDbEntity
  8
Geometrie náčrtu (ISO)
  6
ByLayer
 62
  256
370
   -1
100
AcDbLine
 10
0
 20
6.318361975646045
 11
0
 21
12.6367239512921
  0
LINE
  5
121
100
AcDbEntity
  8
Geometrie náčrtu (ISO)
  6
ByLayer
 62
  256
370
   -1
100
AcDbLine
 10
0
 20
6.318361975646045
 11
38.97255149593903
 21
6.318361975646062
  0
LINE
  5
122
100
AcDbEntity
  8
Geometrie náčrtu (ISO)
  6
ByLayer
 62
  256
370
   -1
100
AcDbLine
 10
38.97255149593903
 20
6.318361975646062
 11
38.97255149593903
 21
0
  0
LINE
  5
123
100
AcDbEntity
  8
Geometrie náčrtu (ISO)
  6
ByLayer
 62
  256
370
   -1
100
AcDbLine
 10
38.97255149593903
 20
0
 11
0
 21
0
  0
LINE
  5
124
100
AcDbEntity
  8
Geometrie náčrtu (ISO)
  6
ByLayer
 62
  256
370
   -1
100
AcDbLine
 10
0
 20
0
 11
0
 21
6.318361975646045
  0
MTEXT
  5
125
100
AcDbEntity
  8
Značka (ISO)
  6
ByLayer
 62
    7
370
   -1
100
AcDbMText
 10
1.006831063269045
 20
10.48519072864973
 30
0
 40
2.5
 41
63.74999946999706
 71
    1
 72
    1
  1
\fISOCPEUR|b0|i0;Oberflächenbehandlung:
  7
Text poznámky (DIN)
210
0
220
0
230
1
 50
0
 73
    1
 44
1
  0
ENDBLK
  5
80
330
7E
100
AcDbEntity
  8
0
100
AcDbBlockEnd
  0
BLOCK
  5
82
330
81
100
AcDbEntity
  8
0
100
AcDbBlockBegin
  2
Schweißnähte
 70
    0
 10
0
 20
0
  3
Schweißnähte
  1

  0
MTEXT
  5
126
100
AcDbEntity
  8
Značka (ISO)
  6
ByLayer
 62
  256
370
   -1
100
AcDbMText
 10
-32.78334260056948
 20
0.0153729774252653
 30
0
 40
2.5
 41
60.8333322733242
 71
    1
 72
    1
  1
\fISOCPEUR|b0|i0;alle Schweißnähte a=
  7
Text poznámky (DIN)
210
0
220
0
230
1
 50
0
 73
    1
 44
1
  0
ENDBLK
  5
83
330
81
100
AcDbEntity
  8
0
100
AcDbBlockEnd
  0
BLOCK
  5
85
330
84
100
AcDbEntity
  8
0
100
AcDbBlockBegin
  2
SPG
 70
    0
 10
0
 20
0
  3
SPG
  1

  0
LINE
  5
127
100
AcDbEntity
  8
Geometrie náčrtu (ISO)
  6
ByLayer
 62
  256
370
   -1
100
AcDbLine
 10
0
 20
9.748515097825157
 11
28.66296471657552
 21
9.748515097825157
  0
LINE
  5
128
100
AcDbEntity
  8
Geometrie náčrtu (ISO)
  6
ByLayer
 62
  256
370
   -1
100
AcDbLine
 10
28.66296471657552
 20
9.748515097825157
 11
28.66296471657552
 21
0
  0
LINE
  5
129
100
AcDbEntity
  8
Geometrie náčrtu (ISO)
  6
ByLayer
 62
  256
370
   -1
100
AcDbLine
 10
28.66296471657552
 20
0
 11
0
 21
0
  0
LINE
  5
12A
100
AcDbEntity
  8
Geometrie náčrtu (ISO)
  6
ByLayer
 62
  256
370
   -1
100
AcDbLine
 10
0
 20
0
 11
0
 21
9.748515097825157
  0
MTEXT
  5
12B
100
AcDbEntity
  8
Značka (ISO)
  6
ByLayer
 62
    7
370
   -1
100
AcDbMText
 10
0.7301919528972614
 20
8.855496263184222
 30
0
 40
2.5
 41
54.44444391444041
 71
    1
 72
    1
  1
\fISOCPEUR|b0|i0;1x wie gezeichnet\P1x spiegelbildlich
  7
Text poznámky (DIN)
210
0
220
0
230
1
 50
0
 73
    2
 44
1.068348169326782
  0
ENDBLK
  5
86
330
84
100
AcDbEntity
  8
0
100
AcDbBlockEnd
  0
BLOCK
  5
88
330
87
100
AcDbEntity
  8
0
100
AcDbBlockBegin
  2
Aussenkante + Innenkante DIN 6784
 70
    0
 10
0
 20
0
  3
Aussenkante + Innenkante DIN 6784
  1

  0
LINE
  5
12C
100
AcDbEntity
  8
Skizziergeometrie(DIN)
  6
ByLayer
 62
  256
370
   -1
100
AcDbLine
 10
9.999999999999982
 20
2.000000000000026
 11
10
 21
6.999999999999992
  0
LINE
  5
12D
100
AcDbEntity
  8
Skizziergeometrie(DIN)
  6
ByLayer
 62
  256
370
   -1
100
AcDbLine
 10
9.999999999999982
 20
2.000000000000026
 11
14.99999999999999
 21
2.000000000000026
  0
LINE
  5
12E
100
AcDbEntity
  8
Skizziergeometrie(DIN)
  6
ByLayer
 62
  256
370
   -1
100
AcDbLine
 10
9.999999999999982
 20
2.000000000000026
 11
5.999999999999996
 21
-1.999999999999992
  0
LINE
  5
12F
100
AcDbEntity
  8
Skizziergeometrie(DIN)
  6
ByLayer
 62
  256
370
   -1
100
AcDbLine
 10
5.999999999999996
 20
-1.999999999999992
 11
5.999999999999986
 21
3.000000000000006
  0
LINE
  5
130
100
AcDbEntity
  8
Skizziergeometrie(DIN)
  6
ByLayer
 62
  256
370
   -1
100
AcDbLine
 10
5.999999999999996
 20
-1.999999999999992
 11
10.99999999999999
 21
-1.999999999999956
  0
LINE
  5
131
100
AcDbEntity
  8
Skizziergeometrie(DIN)
  6
ByLayer
 62
  256
370
   -1
100
AcDbLine
 10
5.999999999999996
 20
-1.999999999999992
 11
7.719240340670577
 21
0.2405576339740634
  0
LINE
  5
132
100
AcDbEntity
  8
Skizziergeometrie(DIN)
  6
ByLayer
 62
  256
370
   -1
100
AcDbLine
 10
7.719240340670577
 20
0.2405576339740634
 11
8.240557633974053
 21
-0.2807596593294192
  0
LINE
  5
133
100
AcDbEntity
  8
Skizziergeometrie(DIN)
  6
ByLayer
 62
  256
370
   -1
100
AcDbLine
 10
8.240557633974053
 20
-0.2807596593294192
 11
5.999999999999996
 21
-1.999999999999992
  0
LINE
  5
134
100
AcDbEntity
  8
Skizziergeometrie(DIN)
  6
ByLayer
 62
  256
370
   -1
100
AcDbLine
 10
-6.000000000000003
 20
2.000000000000026
 11
-9.999999999999996
 21
-2.000000000000026
  0
LINE
  5
135
100
AcDbEntity
  8
Skizziergeometrie(DIN)
  6
ByLayer
 62
  256
370
   -1
100
AcDbLine
 10
-9.999999999999996
 20
-2.000000000000026
 11
-9.999999999999991
 21
-7.000000000000027
  0
LINE
  5
136
100
AcDbEntity
  8
Skizziergeometrie(DIN)
  6
ByLayer
 62
  256
370
   -1
100
AcDbLine
 10
-9.999999999999996
 20
-2.000000000000026
 11
-15
 21
-2.000000000000063
  0
LINE
  5
137
100
AcDbEntity
  8
Skizziergeometrie(DIN)
  6
ByLayer
 62
  256
370
   -1
100
AcDbLine
 10
-9.999999999999996
 20
-2.000000000000026
 11
-8.280759659329423
 21
0.2405576339740278
  0
LINE
  5
138
100
AcDbEntity
  8
Skizziergeometrie(DIN)
  6
ByLayer
 62
  256
370
   -1
100
AcDbLine
 10
-8.280759659329423
 20
0.2405576339740278
 11
-7.759442366025977
 21
-0.2807596593294192
  0
LINE
  5
139
100
AcDbEntity
  8
Skizziergeometrie(DIN)
  6
ByLayer
 62
  256
370
   -1
100
AcDbLine
 10
-7.759442366025977
 20
-0.2807596593294192
 11
-9.999999999999996
 21
-2.000000000000026
  0
LINE
  5
13A
100
AcDbEntity
  8
Skizziergeometrie(DIN)
  6
ByLayer
 62
  256
370
   -1
100
AcDbLine
 10
-6.000000000000003
 20
2.000000000000026
 11
-6.000000000000003
 21
6.999999999999992
  0
LINE
  5
13B
100
AcDbEntity
  8
Skizziergeometrie(DIN)
  6
ByLayer
 62
  256
370
   -1
100
AcDbLine
 10
-6.000000000000003
 20
2.000000000000026
 11
-1.000000000000005
 21
2.000000000000063
  0
MTEXT
  5
13C
100
AcDbEntity
  8
Symbole(DIN)
  6
ByLayer
 62
  256
370
   -1
100
AcDbMText
 10
4.173069701098857
 20
16.15394734491467
 30
0
 40
2.5
 41
188.7528567601824
 71
    5
 72
    1
  1
\fArial Narrow|b0|i0;\H2.5000;unbemasste Werkst\fArial Unicode MS|b0|i0;\H2.5000;ü\fArial Narrow|b0|i0;\H2.5000;ck-\Pkanten DIN 6784
  7
Aktuell-DIN-Papst
210
0
220
0
230
1
 50
0
 73
    2
 44
1.022473216056823
  0
ENDBLK
  5
89
330
87
100
AcDbEntity
  8
0
100
AcDbBlockEnd
  0
BLOCK
  5
8B
330
8A
100
AcDbEntity
  8
0
100
AcDbBlockBegin
  2
Pokus
 70
    0
 10
0
 20
0
  3
Pokus
  1

  0
LINE
  5
13D
100
AcDbEntity
  8
Geometrie náčrtu (ISO)
  6
ByLayer
 62
  256
370
   -1
100
AcDbLine
 10
-16.28724802818267
 20
-9.161576473873508
 11
0
 21
-22.39496471391302
  0
LINE
  5
13E
100
AcDbEntity
  8
Geometrie náčrtu (ISO)
  6
ByLayer
 62
  256
370
   -1
100
AcDbLine
 10
0
 20
-22.39496471391302
 11
16.28724802818267
 21
22.39496471391298
  0
ENDBLK
  5
8C
330
8A
100
AcDbEntity
  8
0
100
AcDbBlockEnd
  0
BLOCK
  5
8E
330
8D
100
AcDbEntity
  8
0
100
AcDbBlockBegin
  2
Rámečky Výchozí rámeček
 70
    0
 10
0
 20
0
  3
Rámečky Výchozí rámeček
  1

  0
LWPOLYLINE
  5
13F
100
AcDbEntity
  8
Rámeček (ISO)
  6
ByLayer
 62
  256
370
   -1
100
AcDbPolyline
 90
    5
 70
    0
 43
0
 10
20
 20
20
 10
20
 20
574.0000152587889
 10
820.9999847412111
 20
574.0000152587889
 10
820.9999847412111
 20
20
 10
20
 20
20
  0
LWPOLYLINE
  5
140
100
AcDbEntity
  8
Rámeček (ISO)
  6
ByLayer
 62
  256
370
   -1
100
AcDbPolyline
 90
    5
 70
    0
 43
0
 10
420.4999923706052
 20
0
 10
420.4999923706052
 20
20
 10
414.7264862060547
 20
10
 10
426.2734985351562
 20
10
 10
420.4999923706052
 20
20
  0
LWPOLYLINE
  5
141
100
AcDbEntity
  8
Rámeček (ISO)
  6
ByLayer
 62
  256
370
   -1
100
AcDbPolyline
 90
    5
 70
    0
 43
0
 10
420.4999923706052
 20
594.0000152587892
 10
420.4999923706052
 20
574.0000152587889
 10
414.7264862060547
 20
584.0000152587889
 10
426.2734985351562
 20
584.0000152587889
 10
420.4999923706052
 20
574.0000152587889
  0
LWPOLYLINE
  5
142
100
AcDbEntity
  8
Rámeček (ISO)
  6
ByLayer
 62
  256
370
   -1
100
AcDbPolyline
 90
    5
 70
    0
 43
0
 10
0
 20
297.0000076293946
 10
20
 20
297.0000076293946
 10
10
 20
302.773494720459
 10
10
 20
291.2265014648438
 10
20
 20
297.0000076293946
  0
LWPOLYLINE
  5
143
100
AcDbEntity
  8
Rámeček (ISO)
  6
ByLayer
 62
  256
370
   -1
100
AcDbPolyline
 90
    5
 70
    0
 43
0
 10
840.9999847412109
 20
297.0000076293946
 10
820.9999847412111
 20
297.0000076293946
 10
830.9999847412109
 20
302.773494720459
 10
830.9999847412109
 20
291.2265014648438
 10
820.9999847412111
 20
297.0000076293946
  0
LINE
  5
144
100
AcDbEntity
  8
Rámeček (ISO)
  6
ByLayer
 62
  256
370
   -1
100
AcDbLine
 10
70.08333206176756
 20
20
 11
70.08333206176756
 21
16.10000014305114
  0
LINE
  5
145
100
AcDbEntity
  8
Rámeček (ISO)
  6
ByLayer
 62
  256
370
   -1
100
AcDbLine
 10
70.08333206176756
 20
574.0000152587889
 11
70.08333206176756
 21
577.9000091552733
  0
LINE
  5
146
100
AcDbEntity
  8
Rámeček (ISO)
  6
ByLayer
 62
  256
370
   -1
100
AcDbLine
 10
140.1666641235351
 20
20
 11
140.1666641235351
 21
16.10000014305114
  0
LINE
  5
147
100
AcDbEntity
  8
Rámeček (ISO)
  6
ByLayer
 62
  256
370
   -1
100
AcDbLine
 10
140.1666641235351
 20
574.0000152587889
 11
140.1666641235351
 21
577.9000091552733
  0
LINE
  5
148
100
AcDbEntity
  8
Rámeček (ISO)
  6
ByLayer
 62
  256
370
   -1
100
AcDbLine
 10
210.2499961853027
 20
20
 11
210.2499961853027
 21
16.10000014305114
  0
LINE
  5
149
100
AcDbEntity
  8
Rámeček (ISO)
  6
ByLayer
 62
  256
370
   -1
100
AcDbLine
 10
210.2499961853027
 20
574.0000152587889
 11
210.2499961853027
 21
577.9000091552733
  0
LINE
  5
14A
100
AcDbEntity
  8
Rámeček (ISO)
  6
ByLayer
 62
  256
370
   -1
100
AcDbLine
 10
280.3333282470703
 20
20
 11
280.3333282470703
 21
16.10000014305114
  0
LINE
  5
14B
100
AcDbEntity
  8
Rámeček (ISO)
  6
ByLayer
 62
  256
370
   -1
100
AcDbLine
 10
280.3333282470703
 20
574.0000152587889
 11
280.3333282470703
 21
577.9000091552733
  0
LINE
  5
14C
100
AcDbEntity
  8
Rámeček (ISO)
  6
ByLayer
 62
  256
370
   -1
100
AcDbLine
 10
350.4166793823242
 20
20
 11
350.4166793823242
 21
16.10000014305114
  0
LINE
  5
14D
100
AcDbEntity
  8
Rámeček (ISO)
  6
ByLayer
 62
  256
370
   -1
100
AcDbLine
 10
350.4166793823242
 20
574.0000152587889
 11
350.4166793823242
 21
577.9000091552733
  0
LINE
  5
14E
100
AcDbEntity
  8
Rámeček (ISO)
  6
ByLayer
 62
  256
370
   -1
100
AcDbLine
 10
490.5833435058593
 20
20
 11
490.5833435058593
 21
16.10000014305114
  0
LINE
  5
14F
100
AcDbEntity
  8
Rámeček (ISO)
  6
ByLayer
 62
  256
370
   -1
100
AcDbLine
 10
490.5833435058593
 20
574.0000152587889
 11
490.5833435058593
 21
577.9000091552733
  0
LINE
  5
150
100
AcDbEntity
  8
Rámeček (ISO)
  6
ByLayer
 62
  256
370
   -1
100
AcDbLine
 10
560.6666564941406
 20
20
 11
560.6666564941406
 21
16.10000014305114
  0
LINE
  5
151
100
AcDbEntity
  8
Rámeček (ISO)
  6
ByLayer
 62
  256
370
   -1
100
AcDbLine
 10
560.6666564941406
 20
574.0000152587889
 11
560.6666564941406
 21
577.9000091552733
  0
LINE
  5
152
100
AcDbEntity
  8
Rámeček (ISO)
  6
ByLayer
 62
  256
370
   -1
100
AcDbLine
 10
630.7500076293945
 20
20
 11
630.7500076293945
 21
16.10000014305114
  0
LINE
  5
153
100
AcDbEntity
  8
Rámeček (ISO)
  6
ByLayer
 62
  256
370
   -1
100
AcDbLine
 10
630.7500076293945
 20
574.0000152587889
 11
630.7500076293945
 21
577.9000091552733
  0
LINE
  5
154
100
AcDbEntity
  8
Rámeček (ISO)
  6
ByLayer
 62
  256
370
   -1
100
AcDbLine
 10
700.8333587646484
 20
20
 11
700.8333587646484
 21
16.10000014305114
  0
LINE
  5
155
100
AcDbEntity
  8
Rámeček (ISO)
  6
ByLayer
 62
  256
370
   -1
100
AcDbLine
 10
700.8333587646484
 20
574.0000152587889
 11
700.8333587646484
 21
577.9000091552733
  0
LINE
  5
156
100
AcDbEntity
  8
Rámeček (ISO)
  6
ByLayer
 62
  256
370
   -1
100
AcDbLine
 10
770.9166717529297
 20
20
 11
770.9166717529297
 21
16.10000014305114
  0
LINE
  5
157
100
AcDbEntity
  8
Rámeček (ISO)
  6
ByLayer
 62
  256
370
   -1
100
AcDbLine
 10
770.9166717529297
 20
574.0000152587889
 11
770.9166717529297
 21
577.9000091552733
  0
MTEXT
  5
158
100
AcDbEntity
  8
Rámeček (ISO)
  6
ByLayer
 62
  256
370
   -1
100
AcDbMText
 10
805.3829341101103
 20
574.3999999999997
 30
0
 40
3.499999940395355
 41
0.7777777645323011
 71
    7
 72
    1
  1
1
  7
ISO3.5
210
0
220
0
230
1
 50
0
 73
    1
 44
1
  0
MTEXT
  5
159
100
AcDbEntity
  8
Rámeček (ISO)
  6
ByLayer
 62
  256
370
   -1
100
AcDbMText
 10
805.3829341101103
 20
16.10000005960464
 30
0
 40
3.499999940395355
 41
0.7777777645323011
 71
    7
 72
    1
  1
1
  7
ISO3.5
210
0
220
0
230
1
 50
0
 73
    1
 44
1
  0
MTEXT
  5
15A
100
AcDbEntity
  8
Rámeček (ISO)
  6
ByLayer
 62
  256
370
   -1
100
AcDbMText
 10
734.9533748340616
 20
574.3999999999997
 30
0
 40
3.499999940395355
 41
1.555555529064602
 71
    7
 72
    1
  1
2
  7
ISO3.5
210
0
220
0
230
1
 50
0
 73
    1
 44
1
  0
MTEXT
  5
15B
100
AcDbEntity
  8
Rámeček (ISO)
  6
ByLayer
 62
  256
370
   -1
100
AcDbMText
 10
734.9533748340616
 20
16.10000005960464
 30
0
 40
3.499999940395355
 41
1.555555529064602
 71
    7
 72
    1
  1
2
  7
ISO3.5
210
0
220
0
230
1
 50
0
 73
    1
 44
1
  0
MTEXT
  5
15C
100
AcDbEntity
  8
Rámeček (ISO)
  6
ByLayer
 62
  256
370
   -1
100
AcDbMText
 10
664.8700415007282
 20
574.3999999999997
 30
0
 40
3.499999940395355
 41
1.555555529064819
 71
    7
 72
    1
  1
3
  7
ISO3.5
210
0
220
0
230
1
 50
0
 73
    1
 44
1
  0
MTEXT
  5
15D
100
AcDbEntity
  8
Rámeček (ISO)
  6
ByLayer
 62
  256
370
   -1
100
AcDbMText
 10
664.8700415007282
 20
16.10000005960464
 30
0
 40
3.499999940395355
 41
1.555555529064819
 71
    7
 72
    1
  1
3
  7
ISO3.5
210
0
220
0
230
1
 50
0
 73
    1
 44
1
  0
MTEXT
  5
15E
100
AcDbEntity
  8
Rámeček (ISO)
  6
ByLayer
 62
  256
370
   -1
100
AcDbMText
 10
594.6113834889737
 20
574.3999999999997
 30
0
 40
3.499999940395355
 41
1.944444411330753
 71
    7
 72
    1
  1
4
  7
ISO3.5
210
0
220
0
230
1
 50
0
 73
    1
 44
1
  0
MTEXT
  5
15F
100
AcDbEntity
  8
Rámeček (ISO)
  6
ByLayer
 62
  256
370
   -1
100
AcDbMText
 10
594.6113834889737
 20
16.10000005960464
 30
0
 40
3.499999940395355
 41
1.944444411330753
 71
    7
 72
    1
  1
4
  7
ISO3.5
210
0
220
0
230
1
 50
0
 73
    1
 44
1
  0
MTEXT
  5
160
100
AcDbEntity
  8
Rámeček (ISO)
  6
ByLayer
 62
  256
370
   -1
100
AcDbMText
 10
524.7033748340616
 20
574.3999999999997
 30
0
 40
3.499999940395355
 41
1.555555529064819
 71
    7
 72
    1
  1
5
  7
ISO3.5
210
0
220
0
230
1
 50
0
 73
    1
 44
1
  0
MTEXT
  5
161
100
AcDbEntity
  8
Rámeček (ISO)
  6
ByLayer
 62
  256
370
   -1
100
AcDbMText
 10
524.7033748340616
 20
16.10000005960464
 30
0
 40
3.499999940395355
 41
1.555555529064819
 71
    7
 72
    1
  1
5
  7
ISO3.5
210
0
220
0
230
1
 50
0
 73
    1
 44
1
  0
MTEXT
  5
162
100
AcDbEntity
  8
Rámeček (ISO)
  6
ByLayer
 62
  256
370
   -1
100
AcDbMText
 10
454.6200415007283
 20
574.3999999999997
 30
0
 40
3.499999940395355
 41
1.555555529064819
 71
    7
 72
    1
  1
6
  7
ISO3.5
210
0
220
0
230
1
 50
0
 73
    1
 44
1
  0
MTEXT
  5
163
100
AcDbEntity
  8
Rámeček (ISO)
  6
ByLayer
 62
  256
370
   -1
100
AcDbMText
 10
454.6200415007283
 20
16.10000005960464
 30
0
 40
3.499999940395355
 41
1.555555529064819
 71
    7
 72
    1
  1
6
  7
ISO3.5
210
0
220
0
230
1
 50
0
 73
    1
 44
1
  0
MTEXT
  5
164
100
AcDbEntity
  8
Rámeček (ISO)
  6
ByLayer
 62
  256
370
   -1
100
AcDbMText
 10
384.5339081602747
 20
574.3999999999997
 30
0
 40
3.499999940395355
 41
1.555555529064602
 71
    7
 72
    1
  1
7
  7
ISO3.5
210
0
220
0
230
1
 50
0
 73
    1
 44
1
  0
MTEXT
  5
165
100
AcDbEntity
  8
Rámeček (ISO)
  6
ByLayer
 62
  256
370
   -1
100
AcDbMText
 10
384.5339081602747
 20
16.10000005960464
 30
0
 40
3.499999940395355
 41
1.555555529064602
 71
    7
 72
    1
  1
7
  7
ISO3.5
210
0
220
0
230
1
 50
0
 73
    1
 44
1
  0
MTEXT
  5
166
100
AcDbEntity
  8
Rámeček (ISO)
  6
ByLayer
 62
  256
370
   -1
100
AcDbMText
 10
314.4533748340617
 20
574.3999999999997
 30
0
 40
3.499999940395355
 41
1.555555529064602
 71
    7
 72
    1
  1
8
  7
ISO3.5
210
0
220
0
230
1
 50
0
 73
    1
 44
1
  0
MTEXT
  5
167
100
AcDbEntity
  8
Rámeček (ISO)
  6
ByLayer
 62
  256
370
   -1
100
AcDbMText
 10
314.4533748340617
 20
16.10000005960464
 30
0
 40
3.499999940395355
 41
1.555555529064602
 71
    7
 72
    1
  1
8
  7
ISO3.5
210
0
220
0
230
1
 50
0
 73
    1
 44
1
  0
MTEXT
  5
168
100
AcDbEntity
  8
Rámeček (ISO)
  6
ByLayer
 62
  256
370
   -1
100
AcDbMText
 10
244.3700415007283
 20
574.3999999999997
 30
0
 40
3.499999940395355
 41
1.555555529064819
 71
    7
 72
    1
  1
9
  7
ISO3.5
210
0
220
0
230
1
 50
0
 73
    1
 44
1
  0
MTEXT
  5
169
100
AcDbEntity
  8
Rámeček (ISO)
  6
ByLayer
 62
  256
370
   -1
100
AcDbMText
 10
244.3700415007283
 20
16.10000005960464
 30
0
 40
3.499999940395355
 41
1.555555529064819
 71
    7
 72
    1
  1
9
  7
ISO3.5
210
0
220
0
230
1
 50
0
 73
    1
 44
1
  0
MTEXT
  5
16A
100
AcDbEntity
  8
Rámeček (ISO)
  6
ByLayer
 62
  256
370
   -1
100
AcDbMText
 10
173.40890810067
 20
574.3999999999997
 30
0
 40
3.499999940395355
 41
3.499999940395355
 71
    7
 72
    1
  1
10
  7
ISO3.5
210
0
220
0
230
1
 50
0
 73
    1
 44
1
  0
MTEXT
  5
16B
100
AcDbEntity
  8
Rámeček (ISO)
  6
ByLayer
 62
  256
370
   -1
100
AcDbMText
 10
173.40890810067
 20
16.10000005960464
 30
0
 40
3.499999940395355
 41
3.499999940395355
 71
    7
 72
    1
  1
10
  7
ISO3.5
210
0
220
0
230
1
 50
0
 73
    1
 44
1
  0
MTEXT
  5
16C
100
AcDbEntity
  8
Rámeček (ISO)
  6
ByLayer
 62
  256
370
   -1
100
AcDbMText
 10
103.6746007916783
 20
574.3999999999997
 30
0
 40
3.499999940395355
 41
2.722222175863053
 71
    7
 72
    1
  1
11
  7
ISO3.5
210
0
220
0
230
1
 50
0
 73
    1
 44
1
  0
MTEXT
  5
16D
100
AcDbEntity
  8
Rámeček (ISO)
  6
ByLayer
 62
  256
370
   -1
100
AcDbMText
 10
103.6746007916783
 20
16.10000005960464
 30
0
 40
3.499999940395355
 41
2.722222175863053
 71
    7
 72
    1
  1
11
  7
ISO3.5
210
0
220
0
230
1
 50
0
 73
    1
 44
1
  0
MTEXT
  5
16E
100
AcDbEntity
  8
Rámeček (ISO)
  6
ByLayer
 62
  256
370
   -1
100
AcDbMText
 10
33.24224143400338
 20
574.3999999999997
 30
0
 40
3.499999940395355
 41
3.499999940395355
 71
    7
 72
    1
  1
12
  7
ISO3.5
210
0
220
0
230
1
 50
0
 73
    1
 44
1
  0
MTEXT
  5
16F
100
AcDbEntity
  8
Rámeček (ISO)
  6
ByLayer
 62
  256
370
   -1
100
AcDbMText
 10
33.24224143400338
 20
16.10000005960464
 30
0
 40
3.499999940395355
 41
3.499999940395355
 71
    7
 72
    1
  1
12
  7
ISO3.5
210
0
220
0
230
1
 50
0
 73
    1
 44
1
  0
LINE
  5
170
100
AcDbEntity
  8
Rámeček (ISO)
  6
ByLayer
 62
  256
370
   -1
100
AcDbLine
 10
20
 20
74.25000190734862
 11
16.10000014305114
 21
74.25000190734862
  0
LINE
  5
171
100
AcDbEntity
  8
Rámeček (ISO)
  6
ByLayer
 62
  256
370
   -1
100
AcDbLine
 10
820.9999847412111
 20
74.25000190734862
 11
824.8999786376952
 21
74.25000190734862
  0
LINE
  5
172
100
AcDbEntity
  8
Rámeček (ISO)
  6
ByLayer
 62
  256
370
   -1
100
AcDbLine
 10
20
 20
148.5000038146973
 11
16.10000014305114
 21
148.5000038146973
  0
LINE
  5
173
100
AcDbEntity
  8
Rámeček (ISO)
  6
ByLayer
 62
  256
370
   -1
100
AcDbLine
 10
820.9999847412111
 20
148.5000038146973
 11
824.8999786376952
 21
148.5000038146973
  0
LINE
  5
174
100
AcDbEntity
  8
Rámeček (ISO)
  6
ByLayer
 62
  256
370
   -1
100
AcDbLine
 10
20
 20
222.7499961853027
 11
16.10000014305114
 21
222.7499961853027
  0
LINE
  5
175
100
AcDbEntity
  8
Rámeček (ISO)
  6
ByLayer
 62
  256
370
   -1
100
AcDbLine
 10
820.9999847412111
 20
222.7499961853027
 11
824.8999786376952
 21
222.7499961853027
  0
LINE
  5
176
100
AcDbEntity
  8
Rámeček (ISO)
  6
ByLayer
 62
  256
370
   -1
100
AcDbLine
 10
20
 20
371.25
 11
16.10000014305114
 21
371.25
  0
LINE
  5
177
100
AcDbEntity
  8
Rámeček (ISO)
  6
ByLayer
 62
  256
370
   -1
100
AcDbLine
 10
820.9999847412111
 20
371.25
 11
824.8999786376952
 21
371.25
  0
LINE
  5
178
100
AcDbEntity
  8
Rámeček (ISO)
  6
ByLayer
 62
  256
370
   -1
100
AcDbLine
 10
20
 20
445.4999923706052
 11
16.10000014305114
 21
445.4999923706052
  0
LINE
  5
179
100
AcDbEntity
  8
Rámeček (ISO)
  6
ByLayer
 62
  256
370
   -1
100
AcDbLine
 10
820.9999847412111
 20
445.4999923706052
 11
824.8999786376952
 21
445.4999923706052
  0
LINE
  5
17A
100
AcDbEntity
  8
Rámeček (ISO)
  6
ByLayer
 62
  256
370
   -1
100
AcDbLine
 10
20
 20
519.7499847412108
 11
16.10000014305114
 21
519.7499847412108
  0
LINE
  5
17B
100
AcDbEntity
  8
Rámeček (ISO)
  6
ByLayer
 62
  256
370
   -1
100
AcDbLine
 10
820.9999847412111
 20
519.7499847412108
 11
824.8999786376952
 21
519.7499847412108
  0
MTEXT
  5
17C
100
AcDbEntity
  8
Rámeček (ISO)
  6
ByLayer
 62
  256
370
   -1
100
AcDbMText
 10
16.57772550702179
 20
35.37500002980233
 30
0
 40
3.499999940395355
 41
2.333333293596903
 71
    7
 72
    1
  1
A
  7
ISO3.5
210
0
220
0
230
1
 50
0
 73
    1
 44
1
  0
MTEXT
  5
17D
100
AcDbEntity
  8
Rámeček (ISO)
  6
ByLayer
 62
  256
370
   -1
100
AcDbMText
 10
821.8777254474172
 20
35.37500002980233
 30
0
 40
3.499999940395355
 41
2.333333293596903
 71
    7
 72
    1
  1
A
  7
ISO3.5
210
0
220
0
230
1
 50
0
 73
    1
 44
1
  0
MTEXT
  5
17E
100
AcDbEntity
  8
Rámeček (ISO)
  6
ByLayer
 62
  256
370
   -1
100
AcDbMText
 10
16.75305018544281
 20
109.6250000298023
 30
0
 40
3.499999940395355
 41
1.944444411330753
 71
    7
 72
    1
  1
B
  7
ISO3.5
210
0
220
0
230
1
 50
0
 73
    1
 44
1
  0
MTEXT
  5
17F
100
AcDbEntity
  8
Rámeček (ISO)
  6
ByLayer
 62
  256
370
   -1
100
AcDbMText
 10
822.0530501258384
 20
109.6250000298023
 30
0
 40
3.499999940395355
 41
1.944444411330753
 71
    7
 72
    1
  1
B
  7
ISO3.5
210
0
220
0
230
1
 50
0
 73
    1
 44
1
  0
MTEXT
  5
180
100
AcDbEntity
  8
Rámeček (ISO)
  6
ByLayer
 62
  256
370
   -1
100
AcDbMText
 10
16.92837486386383
 20
183.8750000298023
 30
0
 40
3.499999940395355
 41
1.555555529064819
 71
    7
 72
    1
  1
C
  7
ISO3.5
210
0
220
0
230
1
 50
0
 73
    1
 44
1
  0
MTEXT
  5
181
100
AcDbEntity
  8
Rámeček (ISO)
  6
ByLayer
 62
  256
370
   -1
100
AcDbMText
 10
822.2283748042591
 20
183.8750000298023
 30
0
 40
3.499999940395355
 41
1.555555529064819
 71
    7
 72
    1
  1
C
  7
ISO3.5
210
0
220
0
230
1
 50
0
 73
    1
 44
1
  0
MTEXT
  5
182
100
AcDbEntity
  8
Rámeček (ISO)
  6
ByLayer
 62
  256
370
   -1
100
AcDbMText
 10
16.75305018544281
 20
258.1250000298023
 30
0
 40
3.499999940395355
 41
1.94444441133097
 71
    7
 72
    1
  1
D
  7
ISO3.5
210
0
220
0
230
1
 50
0
 73
    1
 44
1
  0
MTEXT
  5
183
100
AcDbEntity
  8
Rámeček (ISO)
  6
ByLayer
 62
  256
370
   -1
100
AcDbMText
 10
822.0530501258384
 20
258.1250000298023
 30
0
 40
3.499999940395355
 41
1.94444441133097
 71
    7
 72
    1
  1
D
  7
ISO3.5
210
0
220
0
230
1
 50
0
 73
    1
 44
1
  0
MTEXT
  5
184
100
AcDbEntity
  8
Rámeček (ISO)
  6
ByLayer
 62
  256
370
   -1
100
AcDbMText
 10
16.92837486386383
 20
332.3750000298023
 30
0
 40
3.499999940395355
 41
1.555555529064602
 71
    7
 72
    1
  1
E
  7
ISO3.5
210
0
220
0
230
1
 50
0
 73
    1
 44
1
  0
MTEXT
  5
185
100
AcDbEntity
  8
Rámeček (ISO)
  6
ByLayer
 62
  256
370
   -1
100
AcDbMText
 10
822.2283748042591
 20
332.3750000298023
 30
0
 40
3.499999940395355
 41
1.555555529064602
 71
    7
 72
    1
  1
E
  7
ISO3.5
210
0
220
0
230
1
 50
0
 73
    1
 44
1
  0
MTEXT
  5
186
100
AcDbEntity
  8
Rámeček (ISO)
  6
ByLayer
 62
  256
370
   -1
100
AcDbMText
 10
16.92837486386383
 20
406.6250000298023
 30
0
 40
3.499999940395355
 41
1.555555529064602
 71
    7
 72
    1
  1
F
  7
ISO3.5
210
0
220
0
230
1
 50
0
 73
    1
 44
1
  0
MTEXT
  5
187
100
AcDbEntity
  8
Rámeček (ISO)
  6
ByLayer
 62
  256
370
   -1
100
AcDbMText
 10
822.2283748042591
 20
406.6250000298023
 30
0
 40
3.499999940395355
 41
1.555555529064602
 71
    7
 72
    1
  1
F
  7
ISO3.5
210
0
220
0
230
1
 50
0
 73
    1
 44
1
  0
MTEXT
  5
188
100
AcDbEntity
  8
Rámeček (ISO)
  6
ByLayer
 62
  256
370
   -1
100
AcDbMText
 10
16.75305018544281
 20
480.8750000298021
 30
0
 40
3.499999940395355
 41
1.94444441133097
 71
    7
 72
    1
  1
G
  7
ISO3.5
210
0
220
0
230
1
 50
0
 73
    1
 44
1
  0
MTEXT
  5
189
100
AcDbEntity
  8
Rámeček (ISO)
  6
ByLayer
 62
  256
370
   -1
100
AcDbMText
 10
822.0530501258384
 20
480.8750000298021
 30
0
 40
3.499999940395355
 41
1.94444441133097
 71
    7
 72
    1
  1
G
  7
ISO3.5
210
0
220
0
230
1
 50
0
 73
    1
 44
1
  0
MTEXT
  5
18A
100
AcDbEntity
  8
Rámeček (ISO)
  6
ByLayer
 62
  256
370
   -1
100
AcDbMText
 10
16.75305018544281
 20
555.1250000298022
 30
0
 40
3.499999940395355
 41
1.944444411330753
 71
    7
 72
    1
  1
H
  7
ISO3.5
210
0
220
0
230
1
 50
0
 73
    1
 44
1
  0
MTEXT
  5
18B
100
AcDbEntity
  8
Rámeček (ISO)
  6
ByLayer
 62
  256
370
   -1
100
AcDbMText
 10
822.0530501258384
 20
555.1250000298022
 30
0
 40
3.499999940395355
 41
1.944444411330753
 71
    7
 72
    1
  1
H
  7
ISO3.5
210
0
220
0
230
1
 50
0
 73
    1
 44
1
  0
ENDBLK
  5
8F
330
8D
100
AcDbEntity
  8
0
100
AcDbBlockEnd
  0
BLOCK
  5
91
330
90
100
AcDbEntity
  8
0
100
AcDbBlockBegin
  2
Rohová razítka OK_Stavebni_AW
 70
    0
 10
0
 20
0
  3
Rohová razítka OK_Stavebni_AW
  1

  0
LINE
  5
18C
100
AcDbEntity
  8
Nadpis (ISO)
  6
ByLayer
 62
  256
370
   -1
100
AcDbLine
 10
10.00242675755219
 20
60.99583486022613
 11
200.0024267575521
 21
60.99583486022613
  0
LINE
  5
18D
100
AcDbEntity
  8
Nadpis (ISO)
  6
ByLayer
 62
  256
370
   -1
100
AcDbLine
 10
200.0024267575521
 20
60.99583486022613
 11
200.0024267575521
 21
9.995834860226118
  0
LINE
  5
18E
100
AcDbEntity
  8
Nadpis (ISO)
  6
ByLayer
 62
  256
370
   -1
100
AcDbLine
 10
200.0024267575521
 20
9.995834860226118
 11
10.0024267575522
 21
9.995834860226118
  0
LINE
  5
18F
100
AcDbEntity
  8
Nadpis (ISO)
  6
ByLayer
 62
  256
370
   -1
100
AcDbLine
 10
10.0024267575522
 20
9.995834860226118
 11
10.00242675755219
 21
60.99583486022613
  0
LINE
  5
190
100
AcDbEntity
  8
Nadpis (ISO)
  6
ByLayer
 62
  256
370
   -1
100
AcDbLine
 10
10.0024267575522
 20
55.99583486022613
 11
200.0024267575521
 21
55.99583486022613
  0
LINE
  5
191
100
AcDbEntity
  8
Nadpis (ISO)
  6
ByLayer
 62
  256
370
   -1
100
AcDbLine
 10
10.0024267575522
 20
50.99583486022613
 11
200.0024267575521
 21
50.99583486022613
  0
LINE
  5
192
100
AcDbEntity
  8
Nadpis (ISO)
  6
ByLayer
 62
  256
370
   -1
100
AcDbLine
 10
10.0024267575522
 20
45.99583486022612
 11
200.0024267575521
 21
45.99583486022612
  0
LINE
  5
193
100
AcDbEntity
  8
Nadpis (ISO)
  6
ByLayer
 62
  256
370
   -1
100
AcDbLine
 10
10.0024267575522
 20
40.99583486022612
 11
200.0024267575521
 21
40.99583486022612
  0
LINE
  5
194
100
AcDbEntity
  8
Nadpis (ISO)
  6
ByLayer
 62
  256
370
   -1
100
AcDbLine
 10
10.0024267575522
 20
35.99583486022613
 11
200.0024267575521
 21
35.99583486022613
  0
LINE
  5
195
100
AcDbEntity
  8
Nadpis (ISO)
  6
ByLayer
 62
  256
370
   -1
100
AcDbLine
 10
30.0024267575522
 20
22.99583486022612
 11
200.0041363910603
 21
22.99583486022612
  0
LINE
  5
196
100
AcDbEntity
  8
Nadpis (ISO)
  6
ByLayer
 62
  256
370
   -1
100
AcDbLine
 10
105.0024267575522
 20
60.99583486022613
 11
105.0024267575522
 21
35.99583486022612
  0
LINE
  5
197
100
AcDbEntity
  8
Nadpis (ISO)
  6
ByLayer
 62
  256
370
   -1
100
AcDbLine
 10
30.0024267575522
 20
35.99583486022612
 11
30.0024267575522
 21
9.995834860226118
  0
LINE
  5
198
100
AcDbEntity
  8
Nadpis (ISO)
  6
ByLayer
 62
  256
370
   -1
100
AcDbLine
 10
10.0024267575522
 20
27.32916819355946
 11
30.0024267575522
 21
27.32916819355946
  0
LINE
  5
199
100
AcDbEntity
  8
Nadpis (ISO)
  6
ByLayer
 62
  256
370
   -1
100
AcDbLine
 10
10.0024267575522
 20
18.66216819355946
 11
30.0024267575522
 21
18.66216819355946
  0
LINE
  5
19A
100
AcDbEntity
  8
Nadpis (ISO)
  6
ByLayer
 62
  256
370
   -1
100
AcDbLine
 10
13.00242675755219
 20
31.66283486022613
 11
27.0024267575522
 21
31.66283486022614
  0
LINE
  5
19B
100
AcDbEntity
  8
Nadpis (ISO)
  6
ByLayer
 62
  256
370
   -1
100
AcDbLine
 10
22.50242675755219
 20
35.41283486022614
 11
22.5024267575522
 21
27.91283486022613
  0
CIRCLE
  5
19C
100
AcDbEntity
  8
Nadpis (ISO)
  6
ByLayer
 62
  256
370
   -1
100
AcDbCircle
 10
22.5024267575522
 20
31.66283486022613
 40
2.499999999999999
  0
CIRCLE
  5
19D
100
AcDbEntity
  8
Nadpis (ISO)
  6
ByLayer
 62
  256
370
   -1
100
AcDbCircle
 10
22.5024267575522
 20
31.66283486022613
 40
1.25
  0
LINE
  5
19E
100
AcDbEntity
  8
Nadpis (ISO)
  6
ByLayer
 62
  256
370
   -1
100
AcDbLine
 10
19.0024267575522
 20
34.01337227953207
 11
19.0024267575522
 21
29.01337227953207
  0
LINE
  5
19F
100
AcDbEntity
  8
Nadpis (ISO)
  6
ByLayer
 62
  256
370
   -1
100
AcDbLine
 10
19.0024267575522
 20
29.01337227953207
 11
14.0024267575522
 21
30.41283486022613
  0
LINE
  5
1A0
100
AcDbEntity
  8
Nadpis (ISO)
  6
ByLayer
 62
  256
370
   -1
100
AcDbLine
 10
14.0024267575522
 20
30.41283486022613
 11
14.00242675755221
 21
32.91283486022614
  0
LINE
  5
1A1
100
AcDbEntity
  8
Nadpis (ISO)
  6
ByLayer
 62
  256
370
   -1
100
AcDbLine
 10
14.00242675755221
 20
32.91283486022614
 11
19.0024267575522
 21
34.01337227953207
  0
LINE
  5
1A2
100
AcDbEntity
  8
Nadpis (ISO)
  6
ByLayer
 62
  256
370
   -1
100
AcDbLine
 10
19.32349368228101
 20
26.42916819355946
 11
19.32349368228101
 21
23.92916819355946
  0
LINE
  5
1A3
100
AcDbEntity
  8
Nadpis (ISO)
  6
ByLayer
 62
  256
370
   -1
100
AcDbLine
 10
19.32349368228101
 20
23.92916819355946
 11
21.82349368228101
 21
23.92916819355946
  0
LINE
  5
1A4
100
AcDbEntity
  8
Nadpis (ISO)
  6
ByLayer
 62
  256
370
   -1
100
AcDbLine
 10
16.50242675755221
 20
21.66216819355946
 11
14.00242675755221
 21
21.66216819355946
  0
LINE
  5
1A5
100
AcDbEntity
  8
Nadpis (ISO)
  6
ByLayer
 62
  256
370
   -1
100
AcDbLine
 10
16.50242675755221
 20
21.66216819355946
 11
16.50242675755221
 21
19.16216819355946
  0
LINE
  5
1A6
100
AcDbEntity
  8
Nadpis (ISO)
  6
ByLayer
 62
  256
370
   -1
100
AcDbLine
 10
19.32349368228101
 20
23.92916819355946
 11
16.50242675755221
 21
21.66216819355946
  0
LINE
  5
1A7
100
AcDbEntity
  8
Nadpis (ISO)
  6
ByLayer
 62
  256
370
   -1
100
AcDbLine
 10
17.87883646048905
 20
23.73040251396979
 11
18.81844105965795
 21
22.56115352542174
  0
LINE
  5
1A8
100
AcDbEntity
  8
Nadpis (ISO)
  6
ByLayer
 62
  256
370
   -1
100
AcDbLine
 10
16.50242675755221
 20
21.66216819355946
 11
17.87883646048905
 21
23.73040251396979
  0
LINE
  5
1A9
100
AcDbEntity
  8
Nadpis (ISO)
  6
ByLayer
 62
  256
370
   -1
100
AcDbLine
 10
16.50242675755221
 20
21.66216819355946
 11
18.81844105965795
 21
22.56115352542174
  0
LINE
  5
1AA
100
AcDbEntity
  8
Nadpis (ISO)
  6
ByLayer
 62
  256
370
   -1
100
AcDbLine
 10
105.0024267575522
 20
22.99583486022612
 11
105.0024267575522
 21
9.995834860226118
  0
MTEXT
  5
1AB
100
AcDbEntity
  8
Nadpis (ISO)
  6
ByLayer
 62
  256
370
   -1
100
AcDbMText
 10
11.50242675755219
 20
58.49583486022613
 30
0
 40
2.5
 41
50.83333280332874
 71
    4
 72
    1
  1
\fISOCPEUR|b0|i0;\H2.5000;Změna:
  7
Text poznámky (DIN)
210
0
220
0
230
1
 50
0
 73
    1
 44
1
  0
MTEXT
  5
1AC
100
AcDbEntity
  8
Nadpis (ISO)
  6
ByLayer
 62
  256
370
   -1
100
AcDbMText
 10
11.50242675755219
 20
38.49583486022613
 30
0
 40
2.5
 41
51.66761856672353
 71
    4
 72
    1
  1
\fISOCPEUR|b0|i0;\H2.5000;Kreslil:
  7
Text poznámky (DIN)
210
0
220
0
230
1
 50
0
 73
    1
 44
1
  0
MTEXT
  5
1AD
100
AcDbEntity
  8
Nadpis (ISO)
  6
ByLayer
 62
  256
370
   -1
100
AcDbMText
 10
11.50242675755219
 20
43.49583486022612
 30
0
 40
2.5
 41
72.43055502555106
 71
    4
 72
    1
  1
\fISOCPEUR|b0|i0;\H2.5000;Rozměr polotovaru:
  7
Text poznámky (DIN)
210
0
220
0
230
1
 50
0
 73
    1
 44
1
  0
MTEXT
  5
1AE
100
AcDbEntity
  8
Nadpis (ISO)
  6
ByLayer
 62
  256
370
   -1
100
AcDbMText
 10
11.50242675755219
 20
48.49583486022613
 30
0
 40
2.5
 41
54.44444391443993
 71
    4
 72
    1
  1
\fISOCPEUR|b0|i0;\H2.5000;Materiál:
  7
Text poznámky (DIN)
210
0
220
0
230
1
 50
0
 73
    1
 44
1
  0
MTEXT
  5
1AF
100
AcDbEntity
  8
Nadpis (ISO)
  6
ByLayer
 62
  256
370
   -1
100
AcDbMText
 10
11.50242675755219
 20
53.49583486022613
 30
0
 40
2.5
 41
67.15277724777374
 71
    4
 72
    1
  1
\fISOCPEUR|b0|i0;\H2.5000;Tepelná úprava:
  7
Text poznámky (DIN)
210
0
220
0
230
1
 50
0
 73
    1
 44
1
  0
MTEXT
  5
1B0
100
AcDbEntity
  8
Nadpis (ISO)
  6
ByLayer
 62
  256
370
   -1
100
AcDbMText
 10
106.5024267575522
 20
53.49583486022613
 30
0
 40
2.5
 41
71.3194439144402
 71
    4
 72
    1
  1
\fISOCPEUR|b0|i0;\H2.5000;Povrchová úprava:
  7
Text poznámky (DIN)
210
0
220
0
230
1
 50
0
 73
    1
 44
1
  0
MTEXT
  5
1B1
100
AcDbEntity
  8
Nadpis (ISO)
  6
ByLayer
 62
  256
370
   -1
100
AcDbMText
 10
106.5024267575522
 20
48.49583486022613
 30
0
 40
2.5
 41
75.76388835888531
 71
    4
 72
    1
  1
\fISOCPEUR|b0|i0;\H2.5000;Všeobecné tolerance:
  7
Text poznámky (DIN)
210
0
220
0
230
1
 50
0
 73
    1
 44
1
  0
MTEXT
  5
1B2
100
AcDbEntity
  8
Nadpis (ISO)
  6
ByLayer
 62
  256
370
   -1
100
AcDbMText
 10
106.5024267575522
 20
43.49583486022612
 30
0
 40
2.5
 41
66.87595190005722
 71
    4
 72
    1
  1
\fISOCPEUR|b0|i0;\H2.5000;Jakost povrchu:
  7
Text poznámky (DIN)
210
0
220
0
230
1
 50
0
 73
    1
 44
1
  0
MTEXT
  5
1B3
100
AcDbEntity
  8
Nadpis (ISO)
  6
ByLayer
 62
  256
370
   -1
100
AcDbMText
 10
106.5024267575522
 20
38.49583486022613
 30
0
 40
2.5
 41
61.59722169221811
 71
    4
 72
    1
  1
\fISOCPEUR|b0|i0;\H2.5000;Ochrana dat:
  7
Text poznámky (DIN)
210
0
220
0
230
1
 50
0
 73
    1
 44
1
  0
MTEXT
  5
1B4
100
AcDbEntity
  8
Nadpis (ISO)
  6
ByLayer
 62
  256
370
   -1
100
AcDbMText
 10
198.5024267575522
 20
48.49583486022613
 30
0
 40
2.5
 41
61.59722116221216
 71
    6
 72
    1
  1
\fISOCPEUR|b0|i0;\H2.5000;ISO 2768-mK
  7
Text poznámky (DIN)
210
0
220
0
230
1
 50
0
 73
    1
 44
1
  0
MTEXT
  5
1B5
100
AcDbEntity
  8
Nadpis (ISO)
  6
ByLayer
 62
  256
370
   -1
100
AcDbMText
 10
198.5024267575522
 20
43.49583486022612
 30
0
 40
2.5
 41
60.48611005110105
 71
    6
 72
    1
  1
\fISOCPEUR|b0|i0;\H2.5000;ISO 1302-Ra
  7
Text poznámky (DIN)
210
0
220
0
230
1
 50
0
 73
    1
 44
1
  0
MTEXT
  5
1B6
100
AcDbEntity
  8
Nadpis (ISO)
  6
ByLayer
 62
  256
370
   -1
100
AcDbMText
 10
198.5024267575522
 20
38.49583486022613
 30
0
 40
2.5
 41
55.76388782887886
 71
    6
 72
    1
  1
\fISOCPEUR|b0|i0;\H2.5000;ISO 16016
  7
Text poznámky (DIN)
210
0
220
0
230
1
 50
0
 73
    1
 44
1
  0
MTEXT
  5
1B7
100
AcDbEntity
  8
Nadpis (ISO)
  6
ByLayer
 62
  256
370
   -1
100
AcDbMText
 10
198.5024267575522
 20
58.49583486022613
 30
0
 40
2.5
 41
55.20833280332868
 71
    6
 72
    1
  1
\fISOCPEUR|b0|i0;\H2.5000;DIN 6784
  7
Text poznámky (DIN)
210
0
220
0
230
1
 50
0
 73
    1
 44
1
  0
MTEXT
  5
1B8
100
AcDbEntity
  8
Nadpis (ISO)
  6
ByLayer
 62
  256
370
   -1
100
AcDbMText
 10
106.5024267575522
 20
58.49583486022613
 30
0
 40
2.5
 41
66.04166613666287
 71
    4
 72
    1
  1
\fISOCPEUR|b0|i0;\H2.5000;Odjehlení hran:
  7
Text poznámky (DIN)
210
0
220
0
230
1
 50
0
 73
    1
 44
1
  0
MTEXT
  5
1B9
100
AcDbEntity
  8
Nadpis (ISO)
  6
ByLayer
 62
  256
370
   -1
100
AcDbMText
 10
20.02349368228101
 20
23.09583486022613
 30
0
 40
2.5
 41
46.80555502555077
 71
    7
 72
    1
  1
\fISOCPEUR|b0|i0;\H2.5000;-0,5
  7
Text poznámky (DIN)
210
0
220
0
230
1
 50
0
 73
    2
 44
1
  0
MTEXT
  5
1BA
100
AcDbEntity
  8
Nadpis (ISO)
  6
ByLayer
 62
  256
370
   -1
100
AcDbMText
 10
20.0024267575522
 20
17.16216819355946
 30
0
 40
2.5
 41
53.05555502555061
 71
    2
 72
    1
  1
\fISOCPEUR|b0|i0;\H2.5000;Měřítko:
  7
Text poznámky (DIN)
210
0
220
0
230
1
 50
0
 73
    1
 44
1
  0
MTEXT
  5
1BB
100
AcDbEntity
  8
Nadpis (ISO)
  6
ByLayer
 62
  256
370
   -1
100
AcDbMText
 10
103.1722658166148
 20
16.07916819355947
 30
0
 40
2.5
 41
70.83428523339052
 71
    6
 72
    1
  1
\fISOCPEUR|b0|i0;\H2.5000;www.okstavebni.cz\P+420 491 481 380
  7
Text poznámky (DIN)
210
0
220
0
230
1
 50
0
 73
    2
 44
1.068348169326782
  0
MTEXT
  5
1BC
100
AcDbEntity
  8
Nadpis (ISO)
  6
ByLayer
 62
  256
370
   -1
100
AcDbMText
 10
106.5024267575522
 20
21.49583486022613
 30
0
 40
2.5
 41
63.82134877456288
 71
    1
 72
    1
  1
\fISOCPEUR|b0|i0;\H2.5000;Číslo výkresu:
  7
Text poznámky (DIN)
210
0
220
0
230
1
 50
0
 73
    1
 44
1
  0
MTEXT
  5
1BD
100
AcDbEntity
  8
Nadpis (ISO)
  6
ByLayer
 62
  256
370
   -1
100
AcDbMText
 10
31.50242675755219
 20
34.49583486022612
 30
0
 40
2.5
 41
50.83333280332862
 71
    1
 72
    1
  1
\fISOCPEUR|b0|i0;\H2.5000;Název:
  7
Text poznámky (DIN)
210
0
220
0
230
1
 50
0
 73
    1
 44
1
  0
MTEXT
  5
1BE
100
AcDbEntity
  8
Nadpis (ISO)
  6
ByLayer
 62
  256
370
   -1
100
AcDbMText
 10
106.0131243127444
 20
13.57615812053659
 30
0
 40
2.5
 41
102.9176180367185
 71
    1
 72
    1
  1
\fISOCPEUR|b0|i0;\H2.5000;Počet listů: \fISOCPEUR|b0|i0;\H2.5000;1
  7
Text poznámky (DIN)
210
0
220
0
230
1
 50
0
 73
    1
 44
1
  0
MTEXT
  5
1BF
100
AcDbEntity
  8
Nadpis (ISO)
  6
ByLayer
 62
  256
370
   -1
100
AcDbMText
 10
178.033504890102
 20
13.49117862038173
 30
0
 40
2.5
 41
91.32039581449609
 71
    1
 72
    1
  1
\fISOCPEUR|b0|i0;\H2.5000;List: \fISOCPEUR|b0|i0;\H2.5000;1
  7
Text poznámky (DIN)
210
0
220
0
230
1
 50
0
 73
    1
 44
1
  0
ENDBLK
  5
92
330
90
100
AcDbEntity
  8
0
100
AcDbBlockEnd
  0
BLOCK
  5
94
330
93
100
AcDbEntity
  8
0
100
AcDbBlockBegin
  2
Identifikátor značky svaru1
 70
    0
 10
0
 20
0
  3
Identifikátor značky svaru1
  1

  0
CIRCLE
  5
1C0
100
AcDbEntity
  8
Značka (ISO)
  6
ByLayer
 62
  256
370
   -1
100
AcDbCircle
 10
738.0858852247243
 20
162.4465946933192
 40
1.749999970197676
  0
LINE
  5
1C1
100
AcDbEntity
  8
Značka (ISO)
  6
ByLayer
 62
  256
370
   -1
100
AcDbLine
 10
745.835885194922
 20
162.4465946933192
 11
752.8358850757124
 21
162.4465946933192
  0
LINE
  5
1C2
100
AcDbEntity
  8
Značka (ISO)
  6
ByLayer
 62
  256
370
   -1
100
AcDbLine
 10
752.8358850757124
 20
162.4465946933192
 11
745.835885194922
 21
169.4465945741099
  0
LINE
  5
1C3
100
AcDbEntity
  8
Značka (ISO)
  6
ByLayer
 62
  256
370
   -1
100
AcDbLine
 10
745.835885194922
 20
169.4465945741099
 11
745.835885194922
 21
162.4465946933192
  0
ARC
  5
1C4
100
AcDbEntity
  8
Značka (ISO)
  6
ByLayer
 62
  256
370
   -1
100
AcDbCircle
 10
746.1804211780099
 20
162.7911306764068
 40
7.6124998703599
100
AcDbArc
 50
1.397181027296629
 51
88.60281897270364
  0
MTEXT
  5
1C5
100
AcDbEntity
  8
Značka (ISO)
  6
ByLayer
 62
  256
370
   -1
100
AcDbMText
 10
740.1921822420611
 20
163.4965946754377
 30
0
 40
3.499999940395355
 41
4.277777704928036
 71
    7
 72
    1
  1
a3
  7
ISO3.5
210
0
220
0
230
1
 50
0
 73
    1
 44
1
  0
LINE
  5
1C6
100
AcDbEntity
  8
Značka (ISO)
  6
DASHED
 62
  256
370
   -1
100
AcDbLine
 10
738.0858852247243
 20
161.3965946933191
 11
759.7906577809282
 21
161.3965946933191
  0
LINE
  5
1C7
100
AcDbEntity
  8
Značka (ISO)
  6
ByLayer
 62
  256
370
   -1
100
AcDbLine
 10
738.0858852247243
 20
162.4465946933192
 11
759.7906577809282
 21
162.4465946933192
  0
ENDBLK
  5
95
330
93
100
AcDbEntity
  8
0
100
AcDbBlockEnd
  0
BLOCK
  5
97
330
96
100
AcDbEntity
  8
0
100
AcDbBlockBegin
  2
Identifikátor značky svaru2
 70
    0
 10
0
 20
0
  3
Identifikátor značky svaru2
  1

  0
CIRCLE
  5
1C8
100
AcDbEntity
  8
Značka (ISO)
  6
ByLayer
 62
  256
370
   -1
100
AcDbCircle
 10
773.6809985705684
 20
162.1474760834417
 40
1.749999970197676
  0
LINE
  5
1C9
100
AcDbEntity
  8
Značka (ISO)
  6
ByLayer
 62
  256
370
   -1
100
AcDbLine
 10
784.0559984960623
 20
162.1474760834417
 11
784.0559984960623
 21
169.1474759642324
  0
LINE
  5
1CA
100
AcDbEntity
  8
Značka (ISO)
  6
ByLayer
 62
  256
370
   -1
100
AcDbLine
 10
784.0559984960623
 20
162.1474760834417
 11
789.3059984066554
 21
169.1474759642324
  0
ARC
  5
1CB
100
AcDbEntity
  8
Značka (ISO)
  6
ByLayer
 62
  256
370
   -1
100
AcDbCircle
 10
786.6809984513588
 20
164.6849760402283
 40
7.612499870359897
100
AcDbArc
 50
46.39718102729644
 51
133.6028189727035
  0
LINE
  5
1CC
100
AcDbEntity
  8
Značka (ISO)
  6
DASHED
 62
  256
370
   -1
100
AcDbLine
 10
773.6809985705684
 20
161.0974760834416
 11
797.9309983619521
 21
161.0974760834416
  0
LINE
  5
1CD
100
AcDbEntity
  8
Značka (ISO)
  6
ByLayer
 62
  256
370
   -1
100
AcDbLine
 10
773.6809985705684
 20
162.1474760834417
 11
797.9309983619521
 21
162.1474760834417
  0
ENDBLK
  5
98
330
96
100
AcDbEntity
  8
0
100
AcDbBlockEnd
  0
BLOCK
  5
9A
330
99
100
AcDbEntity
  8
0
100
AcDbBlockBegin
  2
KUSOVNÍK
 70
    0
 10
0
 20
0
  3
KUSOVNÍK
  1

  0
LINE
  5
1CE
100
AcDbEntity
  8
Značka (ISO)
  6
ByLayer
 62
  256
370
   -1
100
AcDbLine
 10
820.9982903664919
 20
134.4870119690895
 11
673.7359542043996
 21
134.4870119690895
  0
LINE
  5
1CF
100
AcDbEntity
  8
Značka (ISO)
  6
ByLayer
 62
  256
370
   -1
100
AcDbLine
 10
820.9982903664919
 20
134.4870119690895
 11
820.9982903664919
 21
128.1383107721805
  0
LINE
  5
1D0
100
AcDbEntity
  8
Značka (ISO)
  6
ByLayer
 62
  256
370
   -1
100
AcDbLine
 10
673.7359542043996
 20
134.4870119690895
 11
673.7359542043996
 21
128.1383107721805
  0
MTEXT
  5
1D1
100
AcDbEntity
  8
Značka (ISO)
  6
ByLayer
 62
  256
370
   -1
100
AcDbMText
 10
736.8237438739153
 20
128.8629860192537
 30
0
 40
3.499999940395355
 41
22.94444331169537
 71
    7
 72
    1
  1
KUSOVNÍK
  7
ISO3.5
210
0
220
0
230
1
 50
0
 73
    1
 44
1
  0
LINE
  5
1D2
100
AcDbEntity
  8
Značka (ISO)
  6
ByLayer
 62
  256
370
   -1
100
AcDbLine
 10
820.9982903664919
 20
128.1383107721805
 11
673.7359542043996
 21
128.1383107721805
  0
LINE
  5
1D3
100
AcDbEntity
  8
Značka (ISO)
  6
ByLayer
 62
  256
370
   -1
100
AcDbLine
 10
820.9982903664919
 20
128.1383107721805
 11
820.9982903664919
 21
121.7896095752716
  0
MTEXT
  5
1D4
100
AcDbEntity
  8
Značka (ISO)
  6
ByLayer
 62
  256
370
   -1
100
AcDbMText
 10
789.8222426554895
 20
123.2139602035284
 30
0
 40
3.499999940395355
 41
12.44444349050931
 71
    7
 72
    1
  1
POPIS
  7
ISO3.5
210
0
220
0
230
1
 50
0
 73
    1
 44
1
  0
LINE
  5
1D5
100
AcDbEntity
  8
Značka (ISO)
  6
ByLayer
 62
  256
370
   -1
100
AcDbLine
 10
770.2848991228187
 20
128.1383107721805
 11
770.2848991228187
 21
121.7896095752716
  0
MTEXT
  5
1D6
100
AcDbEntity
  8
Značka (ISO)
  6
ByLayer
 62
  256
370
   -1
100
AcDbMText
 10
727.6455340836271
 20
122.5142848223447
 30
0
 40
3.499999940395355
 41
36.45833048642908
 71
    7
 72
    1
  1
ČÍSLO SOUČÁSTI
  7
ISO3.5
210
0
220
0
230
1
 50
0
 73
    1
 44
1
  0
LINE
  5
1D7
100
AcDbEntity
  8
Značka (ISO)
  6
ByLayer
 62
  256
370
   -1
100
AcDbLine
 10
719.3851335853922
 20
128.1383107721805
 11
719.3851335853922
 21
121.7896095752716
  0
MTEXT
  5
1D8
100
AcDbEntity
  8
Značka (ISO)
  6
ByLayer
 62
  256
370
   -1
100
AcDbMText
 10
707.6503832683604
 20
123.2139602035284
 30
0
 40
3.499999940395355
 41
5.055554727452447
 71
    7
 72
    1
  1
KS
  7
ISO3.5
210
0
220
0
230
1
 50
0
 73
    1
 44
1
  0
LINE
  5
1D9
100
AcDbEntity
  8
Značka (ISO)
  6
ByLayer
 62
  256
370
   -1
100
AcDbLine
 10
700.9082338667591
 20
128.1383107721805
 11
700.9082338667591
 21
121.7896095752716
  0
MTEXT
  5
1DA
100
AcDbEntity
  8
Značka (ISO)
  6
ByLayer
 62
  256
370
   -1
100
AcDbMText
 10
680.4540405408885
 20
123.2139602035284
 30
0
 40
3.499999940395355
 41
14.77777752611394
 71
    7
 72
    1
  1
POZICE
  7
ISO3.5
210
0
220
0
230
1
 50
0
 73
    1
 44
1
  0
LINE
  5
1DB
100
AcDbEntity
  8
Značka (ISO)
  6
ByLayer
 62
  256
370
   -1
100
AcDbLine
 10
673.7359542043996
 20
128.1383107721805
 11
673.7359542043996
 21
121.7896095752716
  0
MTEXT
  5
1DC
100
AcDbEntity
  8
Značka (ISO)
  6
ByLayer
 62
  256
370
   -1
100
AcDbMText
 10
771.4872998918149
 20
116.8652590066194
 30
0
 40
3.499999940395355
 41
43.55555481380886
 71
    7
 72
    1
  1
OK-27-17-07-01-18
  7
ISO3.5
210
0
220
0
230
1
 50
0
 73
    1
 44
1
  0
MTEXT
  5
1DD
100
AcDbEntity
  8
Značka (ISO)
  6
ByLayer
 62
  256
370
   -1
100
AcDbMText
 10
720.5875343543884
 20
116.8652590066194
 30
0
 40
3.499999940395355
 41
42.9722214904105
 71
    7
 72
    1
  1
J120x120x6 - 5757
  7
ISO3.5
210
0
220
0
230
1
 50
0
 73
    1
 44
1
  0
MTEXT
  5
1DE
100
AcDbEntity
  8
Značka (ISO)
  6
ByLayer
 62
  256
370
   -1
100
AcDbMText
 10
709.5712845028526
 20
116.8652590066194
 30
0
 40
3.499999940395355
 41
0.7777777645323011
 71
    7
 72
    1
  1
1
  7
ISO3.5
210
0
220
0
230
1
 50
0
 73
    1
 44
1
  0
MTEXT
  5
1DF
100
AcDbEntity
  8
Značka (ISO)
  6
ByLayer
 62
  256
370
   -1
100
AcDbMText
 10
686.7466948123563
 20
116.8652590066194
 30
0
 40
3.499999940395355
 41
0.7777777645323011
 71
    7
 72
    1
  1
1
  7
ISO3.5
210
0
220
0
230
1
 50
0
 73
    1
 44
1
  0
LINE
  5
1E0
100
AcDbEntity
  8
Značka (ISO)
  6
ByLayer
 62
  256
370
   -1
100
AcDbLine
 10
820.9982903664919
 20
121.7896095752716
 11
673.7359542043996
 21
121.7896095752716
  0
MTEXT
  5
1E1
100
AcDbEntity
  8
Značka (ISO)
  6
ByLayer
 62
  256
370
   -1
100
AcDbMText
 10
771.4872998918149
 20
110.5165578097105
 30
0
 40
3.499999940395355
 41
38.88888822661549
 71
    7
 72
    1
  1
OK-27-219-01-30
  7
ISO3.5
210
0
220
0
230
1
 50
0
 73
    1
 44
1
  0
MTEXT
  5
1E2
100
AcDbEntity
  8
Značka (ISO)
  6
ByLayer
 62
  256
370
   -1
100
AcDbMText
 10
720.5875343543884
 20
110.5165578097105
 30
0
 40
3.499999940395355
 41
24.11111070050155
 71
    7
 72
    1
  1
P8x112x160
  7
ISO3.5
210
0
220
0
230
1
 50
0
 73
    1
 44
1
  0
MTEXT
  5
1E3
100
AcDbEntity
  8
Značka (ISO)
  6
ByLayer
 62
  256
370
   -1
100
AcDbMText
 10
709.5712845028526
 20
110.5165578097105
 30
0
 40
3.499999940395355
 41
0.7777777645323011
 71
    7
 72
    1
  1
1
  7
ISO3.5
210
0
220
0
230
1
 50
0
 73
    1
 44
1
  0
MTEXT
  5
1E4
100
AcDbEntity
  8
Značka (ISO)
  6
ByLayer
 62
  256
370
   -1
100
AcDbMText
 10
686.400468869641
 20
110.5165578097105
 30
0
 40
3.499999940395355
 41
1.555555529064602
 71
    7
 72
    1
  1
2
  7
ISO3.5
210
0
220
0
230
1
 50
0
 73
    1
 44
1
  0
LINE
  5
1E5
100
AcDbEntity
  8
Značka (ISO)
  6
ByLayer
 62
  256
370
   -1
100
AcDbLine
 10
820.9982903664919
 20
115.4409083783626
 11
673.7359542043996
 21
115.4409083783626
  0
MTEXT
  5
1E6
100
AcDbEntity
  8
Značka (ISO)
  6
ByLayer
 62
  256
370
   -1
100
AcDbMText
 10
771.4872998918149
 20
104.1678566128015
 30
0
 40
3.499999940395355
 41
38.88888822661549
 71
    7
 72
    1
  1
OK-27-219-01-32
  7
ISO3.5
210
0
220
0
230
1
 50
0
 73
    1
 44
1
  0
MTEXT
  5
1E7
100
AcDbEntity
  8
Značka (ISO)
  6
ByLayer
 62
  256
370
   -1
100
AcDbMText
 10
720.5875343543884
 20
104.1678566128015
 30
0
 40
3.499999940395355
 41
20.99999964237235
 71
    7
 72
    1
  1
P6x80x80
  7
ISO3.5
210
0
220
0
230
1
 50
0
 73
    1
 44
1
  0
MTEXT
  5
1E8
100
AcDbEntity
  8
Značka (ISO)
  6
ByLayer
 62
  256
370
   -1
100
AcDbMText
 10
709.2250585601371
 20
104.1678566128015
 30
0
 40
3.499999940395355
 41
1.555555529064819
 71
    7
 72
    1
  1
6
  7
ISO3.5
210
0
220
0
230
1
 50
0
 73
    1
 44
1
  0
MTEXT
  5
1E9
100
AcDbEntity
  8
Značka (ISO)
  6
ByLayer
 62
  256
370
   -1
100
AcDbMText
 10
686.400468869641
 20
104.1678566128015
 30
0
 40
3.499999940395355
 41
1.555555529064819
 71
    7
 72
    1
  1
3
  7
ISO3.5
210
0
220
0
230
1
 50
0
 73
    1
 44
1
  0
LINE
  5
1EA
100
AcDbEntity
  8
Značka (ISO)
  6
ByLayer
 62
  256
370
   -1
100
AcDbLine
 10
820.9982903664919
 20
109.0922071814537
 11
673.7359542043996
 21
109.0922071814537
  0
MTEXT
  5
1EB
100
AcDbEntity
  8
Značka (ISO)
  6
ByLayer
 62
  256
370
   -1
100
AcDbMText
 10
771.4872998918149
 20
97.8191554158926
 30
0
 40
3.499999940395355
 41
43.94444369607523
 71
    7
 72
    1
  1
OK-27-17-05-01-14
  7
ISO3.5
210
0
220
0
230
1
 50
0
 73
    1
 44
1
  0
MTEXT
  5
1EC
100
AcDbEntity
  8
Značka (ISO)
  6
ByLayer
 62
  256
370
   -1
100
AcDbMText
 10
720.5875343543884
 20
97.8191554158926
 30
0
 40
3.499999940395355
 41
20.99999964237279
 71
    7
 72
    1
  1
P5x50x90
  7
ISO3.5
210
0
220
0
230
1
 50
0
 73
    1
 44
1
  0
MTEXT
  5
1ED
100
AcDbEntity
  8
Značka (ISO)
  6
ByLayer
 62
  256
370
   -1
100
AcDbMText
 10
709.2250585601371
 20
97.8191554158926
 30
0
 40
3.499999940395355
 41
1.555555529064819
 71
    7
 72
    1
  1
5
  7
ISO3.5
210
0
220
0
230
1
 50
0
 73
    1
 44
1
  0
MTEXT
  5
1EE
100
AcDbEntity
  8
Značka (ISO)
  6
ByLayer
 62
  256
370
   -1
100
AcDbMText
 10
686.2251441912198
 20
97.8191554158926
 30
0
 40
3.499999940395355
 41
1.944444411330753
 71
    7
 72
    1
  1
4
  7
ISO3.5
210
0
220
0
230
1
 50
0
 73
    1
 44
1
  0
LINE
  5
1EF
100
AcDbEntity
  8
Značka (ISO)
  6
ByLayer
 62
  256
370
   -1
100
AcDbLine
 10
820.9982903664919
 20
102.7435059845447
 11
673.7359542043996
 21
102.7435059845447
  0
MTEXT
  5
1F0
100
AcDbEntity
  8
Značka (ISO)
  6
ByLayer
 62
  256
370
   -1
100
AcDbMText
 10
771.4872998918149
 20
89.72207758128646
 30
0
 40
3.499999940395355
 41
41.90410972423478
 71
    7
 72
    1
  1
Šestihranný šroub
  7
ISO3.5
210
0
220
0
230
1
 50
0
 73
    1
 44
1
  0
MTEXT
  5
1F1
100
AcDbEntity
  8
Značka (ISO)
  6
ByLayer
 62
  256
370
   -1
100
AcDbMText
 10
720.5875343543884
 20
91.47045421898368
 30
0
 40
3.499999940395355
 41
49.19444360666891
 71
    7
 72
    1
  1
DIN 933 - M10  x 20
  7
ISO3.5
210
0
220
0
230
1
 50
0
 73
    1
 44
1
  0
MTEXT
  5
1F2
100
AcDbEntity
  8
Značka (ISO)
  6
ByLayer
 62
  256
370
   -1
100
AcDbMText
 10
708.3472584934123
 20
91.47045421898368
 30
0
 40
3.499999940395355
 41
3.499999940395355
 71
    7
 72
    1
  1
10
  7
ISO3.5
210
0
220
0
230
1
 50
0
 73
    1
 44
1
  0
MTEXT
  5
1F3
100
AcDbEntity
  8
Značka (ISO)
  6
ByLayer
 62
  256
370
   -1
100
AcDbMText
 10
686.400468869641
 20
91.47045421898368
 30
0
 40
3.499999940395355
 41
1.555555529064819
 71
    7
 72
    1
  1
6
  7
ISO3.5
210
0
220
0
230
1
 50
0
 73
    1
 44
1
  0
LINE
  5
1F4
100
AcDbEntity
  8
Značka (ISO)
  6
ByLayer
 62
  256
370
   -1
100
AcDbLine
 10
820.9982903664919
 20
96.39480478763581
 11
673.7359542043996
 21
96.39480478763581
  0
MTEXT
  5
1F5
100
AcDbEntity
  8
Značka (ISO)
  6
ByLayer
 62
  256
370
   -1
100
AcDbMText
 10
771.4872998918149
 20
84.94805167615414
 30
0
 40
3.499999940395355
 41
19.83333299557411
 71
    7
 72
    1
  1
Podložka
  7
ISO3.5
210
0
220
0
230
1
 50
0
 73
    1
 44
1
  0
MTEXT
  5
1F6
100
AcDbEntity
  8
Značka (ISO)
  6
ByLayer
 62
  256
370
   -1
100
AcDbMText
 10
720.5875343543884
 20
84.42045430839065
 30
0
 40
3.499999940395355
 41
39.08333266774878
 71
    7
 72
    1
  1
DIN 125 - A 10,5
  7
ISO3.5
210
0
220
0
230
1
 50
0
 73
    1
 44
1
  0
MTEXT
  5
1F7
100
AcDbEntity
  8
Značka (ISO)
  6
ByLayer
 62
  256
370
   -1
100
AcDbMText
 10
708.3472584934123
 20
85.1217530220747
 30
0
 40
3.499999940395355
 41
3.499999940395355
 71
    7
 72
    1
  1
10
  7
ISO3.5
210
0
220
0
230
1
 50
0
 73
    1
 44
1
  0
MTEXT
  5
1F8
100
AcDbEntity
  8
Značka (ISO)
  6
ByLayer
 62
  256
370
   -1
100
AcDbMText
 10
686.3976688625206
 20
85.1217530220747
 30
0
 40
3.499999940395355
 41
1.555555529064602
 71
    7
 72
    1
  1
7
  7
ISO3.5
210
0
220
0
230
1
 50
0
 73
    1
 44
1
  0
LINE
  5
1F9
100
AcDbEntity
  8
Značka (ISO)
  6
ByLayer
 62
  256
370
   -1
100
AcDbLine
 10
820.9982903664919
 20
90.04610359072684
 11
673.7359542043996
 21
90.04610359072684
  0
MTEXT
  5
1FA
100
AcDbEntity
  8
Značka (ISO)
  6
ByLayer
 62
  256
370
   -1
100
AcDbMText
 10
771.4872998918149
 20
78.07337644398214
 30
0
 40
3.499999940395355
 41
44.23744301783202
 71
    7
 72
    1
  1
Šestihranná matice
  7
ISO3.5
210
0
220
0
230
1
 50
0
 73
    1
 44
1
  0
MTEXT
  5
1FB
100
AcDbEntity
  8
Značka (ISO)
  6
ByLayer
 62
  256
370
   -1
100
AcDbMText
 10
720.5875343543884
 20
78.77305182516577
 30
0
 40
3.499999940395355
 41
33.54166609545614
 71
    7
 72
    1
  1
DIN 934 - M10
  7
ISO3.5
210
0
220
0
230
1
 50
0
 73
    1
 44
1
  0
MTEXT
  5
1FC
100
AcDbEntity
  8
Značka (ISO)
  6
ByLayer
 62
  256
370
   -1
100
AcDbMText
 10
708.3472584934123
 20
78.77305182516577
 30
0
 40
3.499999940395355
 41
3.499999940395355
 71
    7
 72
    1
  1
10
  7
ISO3.5
210
0
220
0
230
1
 50
0
 73
    1
 44
1
  0
MTEXT
  5
1FD
100
AcDbEntity
  8
Značka (ISO)
  6
ByLayer
 62
  256
370
   -1
100
AcDbMText
 10
686.400468869641
 20
78.77305182516577
 30
0
 40
3.499999940395355
 41
1.555555529064602
 71
    7
 72
    1
  1
8
  7
ISO3.5
210
0
220
0
230
1
 50
0
 73
    1
 44
1
  0
LINE
  5
1FE
100
AcDbEntity
  8
Značka (ISO)
  6
ByLayer
 62
  256
370
   -1
100
AcDbLine
 10
820.9982903664919
 20
83.6974023938179
 11
673.7359542043996
 21
83.6974023938179
  0
MTEXT
  5
1FF
100
AcDbEntity
  8
Značka (ISO)
  6
ByLayer
 62
  256
370
   -1
100
AcDbMText
 10
771.1848991228187
 20
72.4243506282568
 30
0
 40
3.499999940395355
 41
0
 71
    7
 72
    1
  1
 
  7
ISO3.5
210
0
220
0
230
1
 50
0
 73
    1
 44
1
  0
MTEXT
  5
200
100
AcDbEntity
  8
Značka (ISO)
  6
ByLayer
 62
  256
370
   -1
100
AcDbMText
 10
720.5875343543884
 20
71.8999999254942
 30
0
 40
3.499999940395355
 41
36.55555415524061
 71
    7
 72
    1
  1
OK-27-219-20(1)
  7
ISO3.5
210
0
220
0
230
1
 50
0
 73
    1
 44
1
  0
MTEXT
  5
201
100
AcDbEntity
  8
Značka (ISO)
  6
ByLayer
 62
  256
370
   -1
100
AcDbMText
 10
709.2250585601371
 20
72.4243506282568
 30
0
 40
3.499999940395355
 41
1.555555529064819
 71
    7
 72
    1
  1
5
  7
ISO3.5
210
0
220
0
230
1
 50
0
 73
    1
 44
1
  0
MTEXT
  5
202
100
AcDbEntity
  8
Značka (ISO)
  6
ByLayer
 62
  256
370
   -1
100
AcDbMText
 10
686.400468869641
 20
72.4243506282568
 30
0
 40
3.499999940395355
 41
1.555555529064819
 71
    7
 72
    1
  1
9
  7
ISO3.5
210
0
220
0
230
1
 50
0
 73
    1
 44
1
  0
LINE
  5
203
100
AcDbEntity
  8
Značka (ISO)
  6
ByLayer
 62
  256
370
   -1
100
AcDbLine
 10
820.9982903664919
 20
77.34870119690895
 11
673.7359542043996
 21
77.34870119690895
  0
LINE
  5
204
100
AcDbEntity
  8
Značka (ISO)
  6
ByLayer
 62
  256
370
   -1
100
AcDbLine
 10
820.9982903664919
 20
71.00000000000001
 11
673.7359542043996
 21
71.00000000000001
  0
LINE
  5
205
100
AcDbEntity
  8
Značka (ISO)
  6
ByLayer
 62
  256
370
   -1
100
AcDbLine
 10
820.9982903664919
 20
121.7896095752716
 11
820.9982903664919
 21
71.00000000000001
  0
LINE
  5
206
100
AcDbEntity
  8
Značka (ISO)
  6
ByLayer
 62
  256
370
   -1
100
AcDbLine
 10
770.2848991228187
 20
121.7896095752716
 11
770.2848991228187
 21
71.00000000000001
  0
LINE
  5
207
100
AcDbEntity
  8
Značka (ISO)
  6
ByLayer
 62
  256
370
   -1
100
AcDbLine
 10
719.3851335853922
 20
121.7896095752716
 11
719.3851335853922
 21
71.00000000000001
  0
LINE
  5
208
100
AcDbEntity
  8
Značka (ISO)
  6
ByLayer
 62
  256
370
   -1
100
AcDbLine
 10
700.9082338667591
 20
121.7896095752716
 11
700.9082338667591
 21
71.00000000000001
  0
LINE
  5
209
100
AcDbEntity
  8
Značka (ISO)
  6
ByLayer
 62
  256
370
   -1
100
AcDbLine
 10
673.7359542043996
 20
121.7896095752716
 11
673.7359542043996
 21
71.00000000000001
  0
ENDBLK
  5
9B
330
99
100
AcDbEntity
  8
0
100
AcDbBlockEnd
  0
BLOCK
  5
9D
330
9C
100
AcDbEntity
  8
0
100
AcDbBlockBegin
  2
Pozice1
 70
    0
 10
0
 20
0
  3
Pozice1
  1

  0
LINE
  5
20A
100
AcDbEntity
  8
Značka (ISO)
  6
ByLayer
 62
  256
370
   -1
100
AcDbLine
 10
452.0930084182213
 20
85.8340132147657
 11
450.5324545147451
 21
87.78713162242686
  0
LWPOLYLINE
  5
20B
100
AcDbEntity
  8
Značka (ISO)
  6
ByLayer
 62
  256
370
   -1
100
AcDbPolyline
 90
    4
 70
    0
 43
0
 10
452.4836349487304
 20
86.14612579345703
 10
450.5324554443357
 20
87.78713226318359
 10
451.7023849487304
 20
85.52189826965331
 10
452.4836349487304
 20
86.14612579345703
  0
SOLID
  5
20C
100
AcDbEntity
  8
Značka (ISO)
  6
ByLayer
 62
  256
370
   -1
100
AcDbTrace
 10
452.4836349487304
 20
86.14612579345703
 30
0
 11
450.5324554443357
 21
87.78713226318359
 31
0
 12
451.7023849487304
 22
85.52189826965331
 32
0
 13
452.4836349487304
 23
86.14612579345703
 33
0
  0
LINE
  5
20D
100
AcDbEntity
  8
Značka (ISO)
  6
ByLayer
 62
  256
370
   -1
100
AcDbLine
 10
452.4836320997533
 20
86.14612399546095
 11
450.5324545147451
 21
87.78713162242686
  0
LINE
  5
20E
100
AcDbEntity
  8
Značka (ISO)
  6
ByLayer
 62
  256
370
   -1
100
AcDbLine
 10
450.5324545147451
 20
87.78713162242686
 11
451.7023847366892
 21
85.52190243407046
  0
LINE
  5
20F
100
AcDbEntity
  8
Značka (ISO)
  6
ByLayer
 62
  256
370
   -1
100
AcDbLine
 10
451.7023847366892
 20
85.52190243407046
 11
452.4836320997533
 21
86.14612399546095
  0
LINE
  5
210
100
AcDbEntity
  8
Značka (ISO)
  6
ByLayer
 62
  256
370
   -1
100
AcDbLine
 10
452.0930084182213
 20
85.8340132147657
 11
461.2466520496202
 21
74.37772847264245
  0
CIRCLE
  5
211
100
AcDbEntity
  8
Značka (ISO)
  6
ByLayer
 62
  256
370
   -1
100
AcDbCircle
 10
464.5178898415394
 20
70.28359578488225
 40
5.249999910593031
  0
MTEXT
  5
212
100
AcDbEntity
  8
Značka (ISO)
  6
ByLayer
 62
  256
370
   -1
100
AcDbMText
 10
464.5178898415394
 20
70.28359578488225
 30
0
 40
3.499999940395355
 41
0.7777777645323011
 71
    5
 72
    1
  1
1
  7
ISO3.5
210
0
220
0
230
1
 50
0
 73
    1
 44
1
  0
ENDBLK
  5
9E
330
9C
100
AcDbEntity
  8
0
100
AcDbBlockEnd
  0
BLOCK
  5
A0
330
9F
100
AcDbEntity
  8
0
100
AcDbBlockBegin
  2
Pozice2
 70
    0
 10
0
 20
0
  3
Pozice2
  1

  0
LINE
  5
213
100
AcDbEntity
  8
Značka (ISO)
  6
ByLayer
 62
  256
370
   -1
100
AcDbLine
 10
795.0478780782241
 20
310.4645463363417
 11
794.9814771225508
 21
307.9654283092998
  0
LWPOLYLINE
  5
214
100
AcDbEntity
  8
Značka (ISO)
  6
ByLayer
 62
  256
370
   -1
100
AcDbPolyline
 90
    4
 70
    0
 43
0
 10
794.5480346679688
 20
310.4778289794922
 10
794.9814605712889
 20
307.9654312133789
 10
795.5477142333984
 20
310.4512596130371
 10
794.5480346679688
 20
310.4778289794922
  0
SOLID
  5
215
100
AcDbEntity
  8
Značka (ISO)
  6
ByLayer
 62
  256
370
   -1
100
AcDbTrace
 10
794.5480346679688
 20
310.4778289794922
 30
0
 11
794.9814605712889
 21
307.9654312133789
 31
0
 12
795.5477142333984
 22
310.4512596130371
 32
0
 13
794.5480346679688
 23
310.4778289794922
 33
0
  0
LINE
  5
216
100
AcDbEntity
  8
Značka (ISO)
  6
ByLayer
 62
  256
370
   -1
100
AcDbLine
 10
794.548054472816
 20
310.4778265274763
 11
794.9814771225508
 21
307.9654283092998
  0
LINE
  5
217
100
AcDbEntity
  8
Značka (ISO)
  6
ByLayer
 62
  256
370
   -1
100
AcDbLine
 10
794.9814771225508
 20
307.9654283092998
 11
795.5477016836328
 21
310.451266145207
  0
LINE
  5
218
100
AcDbEntity
  8
Značka (ISO)
  6
ByLayer
 62
  256
370
   -1
100
AcDbLine
 10
795.5477016836328
 20
310.451266145207
 11
794.548054472816
 21
310.4778265274763
  0
LINE
  5
219
100
AcDbEntity
  8
Značka (ISO)
  6
ByLayer
 62
  256
370
   -1
100
AcDbLine
 10
795.0478780782241
 20
310.4645463363417
 11
795.3343940001906
 21
321.2480824821497
  0
CIRCLE
  5
21A
100
AcDbEntity
  8
Značka (ISO)
  6
ByLayer
 62
  256
370
   -1
100
AcDbCircle
 10
795.4735617130777
 20
326.4859067955362
 40
5.249999910593031
  0
MTEXT
  5
21B
100
AcDbEntity
  8
Značka (ISO)
  6
ByLayer
 62
  256
370
   -1
100
AcDbMText
 10
795.4735617130777
 20
326.4859067955362
 30
0
 40
3.499999940395355
 41
1.555555529064602
 71
    5
 72
    1
  1
2
  7
ISO3.5
210
0
220
0
230
1
 50
0
 73
    1
 44
1
  0
ENDBLK
  5
A1
330
9F
100
AcDbEntity
  8
0
100
AcDbBlockEnd
  0
BLOCK
  5
A3
330
A2
100
AcDbEntity
  8
0
100
AcDbBlockBegin
  2
Pozice3
 70
    0
 10
0
 20
0
  3
Pozice3
  1

  0
LINE
  5
21C
100
AcDbEntity
  8
Značka (ISO)
  6
ByLayer
 62
  256
370
   -1
100
AcDbLine
 10
763.7655978325781
 20
292.117899908414
 11
763.7930597740454
 21
289.6180507446101
  0
LWPOLYLINE
  5
21D
100
AcDbEntity
  8
Značka (ISO)
  6
ByLayer
 62
  256
370
   -1
100
AcDbPolyline
 90
    4
 70
    0
 43
0
 10
763.2656097412109
 20
292.1124076843262
 10
763.7930297851562
 20
289.6180534362793
 10
764.2655944824219
 20
292.1233940124512
 10
763.2656097412109
 20
292.1124076843262
  0
SOLID
  5
21E
100
AcDbEntity
  8
Značka (ISO)
  6
ByLayer
 62
  256
370
   -1
100
AcDbTrace
 10
763.2656097412109
 20
292.1124076843262
 30
0
 11
763.7930297851562
 21
289.6180534362793
 31
0
 12
764.2655944824219
 22
292.1233940124512
 32
0
 13
763.2656097412109
 23
292.1124076843262
 33
0
  0
LINE
  5
21F
100
AcDbEntity
  8
Značka (ISO)
  6
ByLayer
 62
  256
370
   -1
100
AcDbLine
 10
763.2656279998172
 20
292.1124075201205
 11
763.7930597740454
 21
289.6180507446101
  0
LINE
  5
220
100
AcDbEntity
  8
Značka (ISO)
  6
ByLayer
 62
  256
370
   -1
100
AcDbLine
 10
763.7930597740454
 20
289.6180507446101
 11
764.2655676653389
 21
292.1233922967074
  0
LINE
  5
221
100
AcDbEntity
  8
Značka (ISO)
  6
ByLayer
 62
  256
370
   -1
100
AcDbLine
 10
764.2655676653389
 20
292.1233922967074
 11
763.2656279998172
 21
292.1124075201205
  0
LINE
  5
222
100
AcDbEntity
  8
Značka (ISO)
  6
ByLayer
 62
  256
370
   -1
100
AcDbLine
 10
763.7655978325781
 20
292.117899908414
 11
763.6335243125905
 21
304.1404977606396
  0
CIRCLE
  5
223
100
AcDbEntity
  8
Značka (ISO)
  6
ByLayer
 62
  256
370
   -1
100
AcDbCircle
 10
763.5759061337004
 20
309.3854567337666
 40
5.249999910593031
  0
MTEXT
  5
224
100
AcDbEntity
  8
Značka (ISO)
  6
ByLayer
 62
  256
370
   -1
100
AcDbMText
 10
763.5759061337004
 20
309.3854567337666
 30
0
 40
3.499999940395355
 41
1.555555529064819
 71
    5
 72
    1
  1
3
  7
ISO3.5
210
0
220
0
230
1
 50
0
 73
    1
 44
1
  0
ENDBLK
  5
A4
330
A2
100
AcDbEntity
  8
0
100
AcDbBlockEnd
  0
BLOCK
  5
A6
330
A5
100
AcDbEntity
  8
0
100
AcDbBlockBegin
  2
Pozice4
 70
    0
 10
0
 20
0
  3
Pozice4
  1

  0
LINE
  5
225
100
AcDbEntity
  8
Značka (ISO)
  6
ByLayer
 62
  256
370
   -1
100
AcDbLine
 10
403.2465547391857
 20
70.93126693847213
 11
403.3379270348014
 21
68.43293727575866
  0
LWPOLYLINE
  5
226
100
AcDbEntity
  8
Značka (ISO)
  6
ByLayer
 62
  256
370
   -1
100
AcDbPolyline
 90
    4
 70
    0
 43
0
 10
402.746887207031
 20
70.91299057006835
 10
403.3379364013671
 20
68.432936668396
 10
403.746223449707
 20
70.94954013824461
 10
402.746887207031
 20
70.91299057006835
  0
SOLID
  5
227
100
AcDbEntity
  8
Značka (ISO)
  6
ByLayer
 62
  256
370
   -1
100
AcDbTrace
 10
402.746887207031
 20
70.91299057006835
 30
0
 11
403.3379364013671
 21
68.432936668396
 31
0
 12
403.746223449707
 22
70.94954013824461
 32
0
 13
402.746887207031
 23
70.91299057006835
 33
0
  0
LINE
  5
228
100
AcDbEntity
  8
Značka (ISO)
  6
ByLayer
 62
  256
370
   -1
100
AcDbLine
 10
402.7468888066428
 20
70.91299247934894
 11
403.3379270348014
 21
68.43293727575866
  0
LINE
  5
229
100
AcDbEntity
  8
Značka (ISO)
  6
ByLayer
 62
  256
370
   -1
100
AcDbLine
 10
403.3379270348014
 20
68.43293727575866
 11
403.7462206717282
 21
70.94954139759527
  0
LINE
  5
22A
100
AcDbEntity
  8
Značka (ISO)
  6
ByLayer
 62
  256
370
   -1
100
AcDbLine
 10
403.7462206717282
 20
70.94954139759527
 11
402.7468888066428
 21
70.91299247934894
  0
LINE
  5
22B
100
AcDbEntity
  8
Značka (ISO)
  6
ByLayer
 62
  256
370
   -1
100
AcDbLine
 10
403.2465547391857
 20
70.93126693847213
 11
402.7250362249153
 21
85.19078800091388
  0
CIRCLE
  5
22C
100
AcDbEntity
  8
Značka (ISO)
  6
ByLayer
 62
  256
370
   -1
100
AcDbCircle
 10
402.5336385442056
 20
90.42404278421962
 40
5.249999910593031
  0
MTEXT
  5
22D
100
AcDbEntity
  8
Značka (ISO)
  6
ByLayer
 62
  256
370
   -1
100
AcDbMText
 10
402.5336385442056
 20
90.42404278421962
 30
0
 40
3.499999940395355
 41
1.944444411330753
 71
    5
 72
    1
  1
4
  7
ISO3.5
210
0
220
0
230
1
 50
0
 73
    1
 44
1
  0
ENDBLK
  5
A7
330
A5
100
AcDbEntity
  8
0
100
AcDbBlockEnd
  0
BLOCK
  5
A9
330
A8
100
AcDbEntity
  8
0
100
AcDbBlockBegin
  2
Pozice5
 70
    0
 10
0
 20
0
  3
Pozice5
  1

  0
LINE
  5
22E
100
AcDbEntity
  8
Značka (ISO)
  6
ByLayer
 62
  256
370
   -1
100
AcDbLine
 10
498.0525848184867
 20
113.5140279327306
 11
495.5633098293644
 21
113.7453502803964
  0
LWPOLYLINE
  5
22F
100
AcDbEntity
  8
Značka (ISO)
  6
ByLayer
 62
  256
370
   -1
100
AcDbPolyline
 90
    4
 70
    0
 43
0
 10
498.0988311767576
 20
114.0118789672851
 10
495.5633163452148
 20
113.7453460693359
 10
498.0063247680663
 20
113.0161762237549
 10
498.0988311767576
 20
114.0118789672851
  0
SOLID
  5
230
100
AcDbEntity
  8
Značka (ISO)
  6
ByLayer
 62
  256
370
   -1
100
AcDbTrace
 10
498.0988311767576
 20
114.0118789672851
 30
0
 11
495.5633163452148
 21
113.7453460693359
 31
0
 12
498.0063247680663
 22
113.0161762237549
 32
0
 13
498.0988311767576
 23
114.0118789672851
 33
0
  0
LINE
  5
231
100
AcDbEntity
  8
Značka (ISO)
  6
ByLayer
 62
  256
370
   -1
100
AcDbLine
 10
498.0988492880197
 20
114.0118829305551
 11
495.5633098293644
 21
113.7453502803964
  0
LINE
  5
232
100
AcDbEntity
  8
Značka (ISO)
  6
ByLayer
 62
  256
370
   -1
100
AcDbLine
 10
495.5633098293644
 20
113.7453502803964
 11
498.0063203489536
 21
113.0161729349061
  0
LINE
  5
233
100
AcDbEntity
  8
Značka (ISO)
  6
ByLayer
 62
  256
370
   -1
100
AcDbLine
 10
498.0063203489536
 20
113.0161729349061
 11
498.0988492880197
 21
114.0118829305551
  0
LINE
  5
234
100
AcDbEntity
  8
Značka (ISO)
  6
ByLayer
 62
  256
370
   -1
100
AcDbLine
 10
498.0525848184867
 20
113.5140279327306
 11
537.4480089711296
 21
109.8531057597687
  0
MTEXT
  5
235
100
AcDbEntity
  8
Značka (ISO)
  6
ByLayer
 62
  256
370
   -1
100
AcDbMText
 10
543.9591846096731
 20
109.7198196798782
 30
0
 40
3.499999940395355
 41
9.72222205665398
 71
    5
 72
    1
  1
6,7,8
  7
ISO3.5
210
0
220
0
230
1
 50
0
 73
    1
 44
1
  0
ARC
  5
236
100
AcDbEntity
  8
Značka (ISO)
  6
ByLayer
 62
  256
370
   -1
100
AcDbCircle
 10
542.6556700171301
 20
109.3691703230362
 40
5.249999910593031
100
AcDbArc
 50
90
 51
270
  0
ARC
  5
237
100
AcDbEntity
  8
Značka (ISO)
  6
ByLayer
 62
  256
370
   -1
100
AcDbCircle
 10
545.2626992022159
 20
109.3691703230362
 40
5.249999910593031
100
AcDbArc
 50
270
 51
90
  0
LINE
  5
238
100
AcDbEntity
  8
Značka (ISO)
  6
ByLayer
 62
  256
370
   -1
100
AcDbLine
 10
542.6556700171301
 20
114.6191702336292
 11
545.2626992022159
 21
114.6191702336292
  0
LINE
  5
239
100
AcDbEntity
  8
Značka (ISO)
  6
ByLayer
 62
  256
370
   -1
100
AcDbLine
 10
542.6556700171301
 20
104.1191704124432
 11
545.2626992022159
 21
104.1191704124432
  0
ENDBLK
  5
AA
330
A8
100
AcDbEntity
  8
0
100
AcDbBlockEnd
  0
BLOCK
  5
AC
330
AB
100
AcDbEntity
  8
0
100
AcDbBlockBegin
  2
Pozice6
 70
    0
 10
0
 20
0
  3
Pozice6
  1

  0
LINE
  5
23A
100
AcDbEntity
  8
Značka (ISO)
  6
ByLayer
 62
  256
370
   -1
100
AcDbLine
 10
515.5223907861048
 20
95.30252978396121
 11
513.0580034634243
 21
95.7229999063366
  0
LWPOLYLINE
  5
23B
100
AcDbEntity
  8
Značka (ISO)
  6
ByLayer
 62
  256
370
   -1
100
AcDbPolyline
 90
    4
 70
    0
 43
0
 10
515.6064987182617
 20
95.79540252685543
 10
513.0580139160156
 20
95.72299957275391
 10
515.4383087158203
 20
94.80965614318848
 10
515.6064987182617
 20
95.79540252685543
  0
SOLID
  5
23C
100
AcDbEntity
  8
Značka (ISO)
  6
ByLayer
 62
  256
370
   -1
100
AcDbTrace
 10
515.6064987182617
 20
95.79540252685543
 30
0
 11
513.0580139160156
 21
95.72299957275391
 31
0
 12
515.4383087158203
 22
94.80965614318848
 32
0
 13
515.6064987182617
 23
95.79540252685543
 33
0
  0
LINE
  5
23D
100
AcDbEntity
  8
Značka (ISO)
  6
ByLayer
 62
  256
370
   -1
100
AcDbLine
 10
515.60648481058
 20
95.79540724849736
 11
513.0580034634243
 21
95.7229999063366
  0
LINE
  5
23E
100
AcDbEntity
  8
Značka (ISO)
  6
ByLayer
 62
  256
370
   -1
100
AcDbLine
 10
513.0580034634243
 20
95.7229999063366
 11
515.4382967616299
 21
94.80965231942506
  0
LINE
  5
23F
100
AcDbEntity
  8
Značka (ISO)
  6
ByLayer
 62
  256
370
   -1
100
AcDbLine
 10
515.4382967616299
 20
94.80965231942506
 11
515.60648481058
 21
95.79540724849736
  0
LINE
  5
240
100
AcDbEntity
  8
Značka (ISO)
  6
ByLayer
 62
  256
370
   -1
100
AcDbLine
 10
515.5223907861048
 20
95.30252978396121
 11
525.7632333965537
 21
93.55525235479539
  0
CIRCLE
  5
241
100
AcDbEntity
  8
Značka (ISO)
  6
ByLayer
 62
  256
370
   -1
100
AcDbCircle
 10
530.9360181841387
 20
92.67267946025079
 40
5.249999910593031
  0
MTEXT
  5
242
100
AcDbEntity
  8
Značka (ISO)
  6
ByLayer
 62
  256
370
   -1
100
AcDbMText
 10
530.9360181841387
 20
92.67267946025079
 30
0
 40
3.499999940395355
 41
1.555555529064819
 71
    5
 72
    1
  1
9
  7
ISO3.5
210
0
220
0
230
1
 50
0
 73
    1
 44
1
  0
ENDBLK
  5
AD
330
AB
100
AcDbEntity
  8
0
100
AcDbBlockEnd
  0
BLOCK
  5
AF
330
AE
100
AcDbEntity
  8
0
100
AcDbBlockBegin
  2
popisové pole
 70
    0
 10
0
 20
0
  3
popisové pole
  1

  0
LINE
  5
243
100
AcDbEntity
  8
razitko+format
  6
ByLayer
 62
    0
370
   -1
100
AcDbLine
 10
-180
 20
0
 11
-180
 21
48
  0
LINE
  5
244
100
AcDbEntity
  8
razitko+format
  6
ByLayer
 62
    0
370
   -1
100
AcDbLine
 10
0
 20
0
 11
0
 21
48
  0
LINE
  5
245
100
AcDbEntity
  8
razitko+format
  6
ByLayer
 62
    0
370
   -1
100
AcDbLine
 10
-22
 20
23.99999999999989
 11
-22
 21
48
  0
LINE
  5
246
100
AcDbEntity
  8
razitko+format
  6
ByLayer
 62
    0
370
   -1
100
AcDbLine
 10
-44
 20
24
 11
-44
 21
48
  0
LINE
  5
247
100
AcDbEntity
  8
razitko+format
  6
ByLayer
 62
    0
370
   -1
100
AcDbLine
 10
-180
 20
0
 11
0
 21
0
  0
LINE
  5
248
100
AcDbEntity
  8
razitko+format
  6
ByLayer
 62
    0
370
   -1
100
AcDbLine
 10
-180
 20
24
 11
0
 21
23.99999999999989
  0
LINE
  5
249
100
AcDbEntity
  8
razitko+format
  6
ByLayer
 62
    0
370
   -1
100
AcDbLine
 10
-159
 20
0
 11
-159
 21
24
  0
LINE
  5
24A
100
AcDbEntity
  8
razitko+format
  6
ByLayer
 62
    0
370
   -1
100
AcDbLine
 10
-137
 20
0
 11
-137
 21
24
  0
LINE
  5
24B
100
AcDbEntity
  8
razitko+format
  6
ByLayer
 62
    0
370
   -1
100
AcDbLine
 10
-107
 20
16
 11
-107
 21
24
  0
LINE
  5
24C
100
AcDbEntity
  8
razitko+format
  6
ByLayer
 62
    0
370
   -1
100
AcDbLine
 10
-86
 20
16
 11
-86
 21
24
  0
LINE
  5
24D
100
AcDbEntity
  8
razitko+format
  6
ByLayer
 62
    0
370
   -1
100
AcDbLine
 10
-30
 20
16
 11
-30
 21
24
  0
LINE
  5
24E
100
AcDbEntity
  8
razitko+format
  6
ByLayer
 62
    0
370
   -1
100
AcDbLine
 10
-60
 20
0
 11
-60
 21
23.99999999999989
  0
LINE
  5
24F
100
AcDbEntity
  8
razitko+format
  6
ByLayer
 62
    0
370
   -1
100
AcDbLine
 10
-50
 20
0
 11
-50
 21
8
  0
LINE
  5
250
100
AcDbEntity
  8
razitko+format
  6
ByLayer
 62
    0
370
   -1
100
AcDbLine
 10
-72
 20
24
 11
-72
 21
32
  0
TEXT
  5
251
100
AcDbEntity
  8
razitko+format
  6
ByLayer
 62
    0
370
   -1
100
AcDbText
 10
-179.3343746523992
 20
21.10017922937868
 30
0
 40
1.8
  1
Oddělení
 50
0
 41
1
 51
0
  7
STANDARD
 71
    0
210
0
220
0
230
1
100
AcDbText
  0
LINE
  5
252
100
AcDbEntity
  8
razitko+format
  6
ByLayer
 62
    0
370
   -1
100
AcDbLine
 10
-159
 20
8
 11
-137
 21
8
  0
LINE
  5
253
100
AcDbEntity
  8
razitko+format
  6
ByLayer
 62
    0
370
   -1
100
AcDbLine
 10
-60
 20
8
 11
0
 21
8
  0
LINE
  5
254
100
AcDbEntity
  8
razitko+format
  6
ByLayer
 62
    0
370
   -1
100
AcDbLine
 10
-180
 20
16
 11
0
 21
16
  0
TEXT
  5
255
100
AcDbEntity
  8
razitko+format
  6
ByLayer
 62
    0
370
   -1
100
AcDbText
 10
-136.2912079239381
 20
13.29458056237331
 30
0
 40
1.8
  1
Název, doplňující název
 50
0
 41
1
 51
0
  7
STANDARD
 71
    0
210
0
220
0
230
1
100
AcDbText
  0
LINE
  5
256
100
AcDbEntity
  8
razitko+format
  6
ByLayer
 62
    0
370
   -1
100
AcDbLine
 10
-30
 20
8
 11
-30
 21
0
  0
LINE
  5
257
100
AcDbEntity
  8
razitko+format
  6
ByLayer
 62
    0
370
   -1
100
AcDbLine
 10
-20
 20
8
 11
-20
 21
0
  0
LINE
  5
258
100
AcDbEntity
  8
razitko+format
  6
ByLayer
 62
    0
370
   -1
100
AcDbLine
 10
-10
 20
8
 11
-10
 21
0
  0
TEXT
  5
259
100
AcDbEntity
  8
razitko+format
  6
ByLayer
 62
    0
370
   -1
100
AcDbText
 10
-19.32693385931043
 20
5.39032940085849
 30
0
 40
1.8
  1
Formát
 50
0
 41
1
 51
0
  7
STANDARD
 71
    0
210
0
220
0
230
1
100
AcDbText
  0
TEXT
  5
25A
100
AcDbEntity
  8
razitko+format
  6
ByLayer
 62
    0
370
   -1
100
AcDbText
 10
-59.33746796420246
 20
13.06990309324385
 30
0
 40
1.8
  1
Č. dokumentu
 50
0
 41
1
 51
0
  7
STANDARD
 71
    0
210
0
220
0
230
1
100
AcDbText
  0
TEXT
  5
25B
100
AcDbEntity
  8
razitko+format
  6
ByLayer
 62
    0
370
   -1
100
AcDbText
 10
-49.15618492242856
 20
5.491871822481924
 30
0
 40
1.8
  1
Datum vydání
 50
0
 41
1
 51
0
  7
STANDARD
 71
    0
210
0
220
0
230
1
100
AcDbText
  0
TEXT
  5
25C
100
AcDbEntity
  8
razitko+format
  6
ByLayer
 62
    0
370
   -1
100
AcDbText
 10
-9.275189839873747
 20
5.296035139973012
 30
0
 40
1.8
  1
List
 50
0
 41
1
 51
0
  7
STANDARD
 71
    0
210
0
220
0
230
1
100
AcDbText
  0
TEXT
  5
25D
100
AcDbEntity
  8
razitko+format
  6
ByLayer
 62
    0
370
   -1
100
AcDbText
 10
-29.40609684548963
 20
5.548902184671304
 30
0
 40
1.8
  1
Jazyk
 50
0
 41
1
 51
0
  7
STANDARD
 71
    0
210
0
220
0
230
1
100
AcDbText
  0
TEXT
  5
25E
100
AcDbEntity
  8
razitko+format
  6
ByLayer
 62
    0
370
   -1
100
AcDbText
 10
-21.39030982105351
 20
37.26434624747299
 30
0
 40
1.8
  1
Přesnost
 50
0
 41
1
 51
0
  7
STANDARD
 71
    0
210
0
220
0
230
1
100
AcDbText
  0
TEXT
  5
25F
100
AcDbEntity
  8
razitko+format
  6
ByLayer
 62
    0
370
   -1
100
AcDbText
 10
-71.19722401807941
 20
29.14385639713521
 30
0
 40
1.8
  1
Hrubá hmotnost
 50
0
 41
1
 51
0
  7
STANDARD
 71
    0
210
0
220
0
230
1
100
AcDbText
  0
LINE
  5
260
100
AcDbEntity
  8
razitko+format
  6
ByLayer
 62
    0
370
   -1
100
AcDbLine
 10
-44
 20
36
 11
-22
 21
36
  0
LINE
  5
261
100
AcDbEntity
  8
razitko+format
  6
ByLayer
 62
    0
370
   -1
100
AcDbLine
 10
-100
 20
32
 11
-44
 21
32
  0
LINE
  5
262
100
AcDbEntity
  8
razitko+format
  6
ByLayer
 62
    0
370
   -1
100
AcDbLine
 10
-22
 20
32
 11
0
 21
32
  0
LINE
  5
263
100
AcDbEntity
  8
razitko+format
  6
ByLayer
 62
    0
370
   -1
100
AcDbLine
 10
-100
 20
40
 11
-44
 21
40
  0
LINE
  5
264
100
AcDbEntity
  8
razitko+format
  6
ByLayer
 62
    0
370
   -1
100
AcDbLine
 10
-22
 20
40
 11
0
 21
40
  0
TEXT
  5
265
100
AcDbEntity
  8
razitko+format
  6
ByLayer
 62
    0
370
   -1
100
AcDbText
 10
-158.3887932411526
 20
21.22345512602908
 30
0
 40
1.8
  1
Technický referent
 50
0
 41
1
 51
0
  7
STANDARD
 71
    0
210
0
220
0
230
1
100
AcDbText
  0
TEXT
  5
266
100
AcDbEntity
  8
razitko+format
  6
ByLayer
 62
    0
370
   -1
100
AcDbText
 10
-85.26848681042156
 20
21.28081162226532
 30
0
 40
1.8
  1
Soubor
 50
0
 41
1
 51
0
  7
STANDARD
 71
    0
210
0
220
0
230
1
100
AcDbText
  0
TEXT
  5
267
100
AcDbEntity
  8
razitko+format
  6
ByLayer
 62
    0
370
   -1
100
AcDbText
 10
-59.20950273072685
 20
20.9623216826493
 30
0
 40
1.8
  1
Č. sestavy
 50
0
 41
1
 51
0
  7
STANDARD
 71
    0
210
0
220
0
230
1
100
AcDbText
  0
TEXT
  5
268
100
AcDbEntity
  8
razitko+format
  6
ByLayer
 62
    0
370
   -1
100
AcDbText
 10
-43.39148430793374
 20
33.44628835529795
 30
0
 40
1.8
  1
Promítání
 50
0
 41
1
 51
0
  7
STANDARD
 71
    0
210
0
220
0
230
1
100
AcDbText
  0
LINE
  5
269
100
AcDbEntity
  8
razitko+format
  6
ByLayer
 62
    0
370
   -1
100
AcDbLine
 10
-100
 20
24
 11
-100
 21
48
  0
LINE
  5
26A
100
AcDbEntity
  8
razitko+format
  6
ByLayer
 62
    0
370
   -1
100
AcDbLine
 10
-60.00000000000046
 20
39.99999999999989
 11
-60
 21
48
  0
TEXT
  5
26B
100
AcDbEntity
  8
razitko+format
  6
ByLayer
 62
    0
370
   -1
100
AcDbText
 10
-43.0887750508914
 20
45.30958859264671
 30
0
 40
1.8
  1
Úprava hran
 50
0
 41
1
 51
0
  7
STANDARD
 71
    0
210
0
220
0
230
1
100
AcDbText
  0
TEXT
  5
26C
100
AcDbEntity
  8
razitko+format
  6
ByLayer
 62
    0
370
   -1
100
AcDbText
 10
-99.56469565609039
 20
28.9567941476123
 30
0
 40
1.8
  1
Čistá hmotnost
 50
0
 41
1
 51
0
  7
STANDARD
 71
    0
210
0
220
0
230
1
100
AcDbText
  0
TEXT
  5
26D
100
AcDbEntity
  8
razitko+format
  6
ByLayer
 62
    0
370
   -1
100
AcDbText
 10
-99.19020756356169
 20
37.37459581441476
 30
0
 40
1.8
  1
Polotovar
 50
0
 41
1
 51
0
  7
STANDARD
 71
    0
210
0
220
0
230
1
100
AcDbText
  0
TEXT
  5
26E
100
AcDbEntity
  8
razitko+format
  6
ByLayer
 62
    0
370
   -1
100
AcDbText
 10
-99.19020756356169
 20
45.32474196697715
 30
0
 40
1.8
  1
Materiál
 50
0
 41
1
 51
0
  7
STANDARD
 71
    0
210
0
220
0
230
1
100
AcDbText
  0
TEXT
  5
26F
100
AcDbEntity
  8
razitko+format
  6
ByLayer
 62
    0
370
   -1
100
AcDbText
 10
-136.0856053141006
 20
21.26496893722219
 30
0
 40
1.8
  1
Druh dokumentu
 50
0
 41
1
 51
0
  7
STANDARD
 71
    0
210
0
220
0
230
1
100
AcDbText
  0
TEXT
  5
270
100
AcDbEntity
  8
razitko+format
  6
ByLayer
 62
    0
370
   -1
100
AcDbText
 10
-158.1508529720418
 20
13.50369642828161
 30
0
 40
1.8
  1
Kreslil
 50
0
 41
1
 51
0
  7
STANDARD
 71
    0
210
0
220
0
230
1
100
AcDbText
  0
TEXT
  5
271
100
AcDbEntity
  8
razitko+format
  6
ByLayer
 62
    0
370
   -1
100
AcDbText
 10
-21.39030982105351
 20
29.51580801567661
 30
0
 40
1.8
  1
Tolerování
 50
0
 41
1
 51
0
  7
STANDARD
 71
    0
210
0
220
0
230
1
100
AcDbText
  0
TEXT
  5
272
100
AcDbEntity
  8
razitko+format
  6
ByLayer
 62
    0
370
   -1
100
AcDbText
 10
-106.4142848042779
 20
21.43062656066797
 30
0
 40
1.8
  1
Status dokumentu
 50
0
 41
1
 51
0
  7
STANDARD
 71
    0
210
0
220
0
230
1
100
AcDbText
  0
TEXT
  5
273
100
AcDbEntity
  8
razitko+format
  6
ByLayer
 62
    0
370
   -1
100
AcDbText
 10
-158.3110229613958
 20
5.569651740474911
 30
0
 40
1.8
  1
Přezkoušel
 50
0
 41
1
 51
0
  7
STANDARD
 71
    0
210
0
220
0
230
1
100
AcDbText
  0
TEXT
  5
274
100
AcDbEntity
  8
razitko+format
  6
ByLayer
 62
    0
370
   -1
100
AcDbText
 10
-59.51452817497919
 20
45.50579006835321
 30
0
 40
1.8
  1
Tř. odpadu
 50
0
 41
1
 51
0
  7
STANDARD
 71
    0
210
0
220
0
230
1
100
AcDbText
  0
LINE
  5
275
100
AcDbEntity
  8
razitko+format
  6
ByLayer
 62
    0
370
   -1
100
AcDbLine
 10
-180
 20
48
 11
0
 21
48
  0
TEXT
  5
276
100
AcDbEntity
  8
razitko+format
  6
ByLayer
 62
    0
370
   -1
100
AcDbText
 10
-59.28136418779513
 20
5.386827456747934
 30
0
 40
1.8
  1
Změna
 50
0
 41
1
 51
0
  7
STANDARD
 71
    0
210
0
220
0
230
1
100
AcDbText
  0
TEXT
  5
277
100
AcDbEntity
  8
razitko+format
  6
ByLayer
 62
    0
370
   -1
100
AcDbText
 10
-29.2003748604825
 20
20.96232168264942
 30
0
 40
1.8
  1
Č. seznamu položek
 50
0
 41
1
 51
0
  7
STANDARD
 71
    0
210
0
220
0
230
1
100
AcDbText
  0
TEXT
  5
278
100
AcDbEntity
  8
razitko+format
  6
ByLayer
 62
    0
370
   -1
100
AcDbText
 10
-21.39030982105351
 20
45.26434624747297
 30
0
 40
1.8
  1
Měřítko
 50
0
 41
1
 51
0
  7
STANDARD
 71
    0
210
0
220
0
230
1
100
AcDbText
  0
ENDBLK
  5
B0
330
AE
100
AcDbEntity
  8
0
100
AcDbBlockEnd
  0
BLOCK
  5
B2
330
B1
100
AcDbEntity
  8
0
100
AcDbBlockBegin
  2
popisové pole_01
 70
    0
 10
0
 20
0
  3
popisové pole_01
  1

  0
LINE
  5
279
100
AcDbEntity
  8
razitko+format
  6
ByLayer
 62
    0
370
   -1
100
AcDbLine
 10
-180.0000000000001
 20
0
 11
-180.0000000000001
 21
48
  0
LINE
  5
27A
100
AcDbEntity
  8
razitko+format
  6
ByLayer
 62
    0
370
   -1
100
AcDbLine
 10
0
 20
0
 11
0
 21
48
  0
LINE
  5
27B
100
AcDbEntity
  8
razitko+format
  6
ByLayer
 62
    0
370
   -1
100
AcDbLine
 10
-22
 20
23.99999999999989
 11
-22
 21
48
  0
LINE
  5
27C
100
AcDbEntity
  8
razitko+format
  6
ByLayer
 62
    0
370
   -1
100
AcDbLine
 10
-44.00000000000011
 20
24
 11
-44.00000000000011
 21
48
  0
LINE
  5
27D
100
AcDbEntity
  8
razitko+format
  6
ByLayer
 62
    0
370
   -1
100
AcDbLine
 10
-180.0000000000001
 20
0
 11
0
 21
0
  0
LINE
  5
27E
100
AcDbEntity
  8
razitko+format
  6
ByLayer
 62
    0
370
   -1
100
AcDbLine
 10
-180.0000000000001
 20
24
 11
0
 21
23.99999999999989
  0
LINE
  5
27F
100
AcDbEntity
  8
razitko+format
  6
ByLayer
 62
    0
370
   -1
100
AcDbLine
 10
-159.0000000000001
 20
0
 11
-159.0000000000001
 21
24
  0
LINE
  5
280
100
AcDbEntity
  8
razitko+format
  6
ByLayer
 62
    0
370
   -1
100
AcDbLine
 10
-137
 20
0
 11
-137
 21
24
  0
LINE
  5
281
100
AcDbEntity
  8
razitko+format
  6
ByLayer
 62
    0
370
   -1
100
AcDbLine
 10
-107.0000000000001
 20
16
 11
-107.0000000000001
 21
24
  0
LINE
  5
282
100
AcDbEntity
  8
razitko+format
  6
ByLayer
 62
    0
370
   -1
100
AcDbLine
 10
-86.00000000000013
 20
16
 11
-86.00000000000013
 21
24
  0
LINE
  5
283
100
AcDbEntity
  8
razitko+format
  6
ByLayer
 62
    0
370
   -1
100
AcDbLine
 10
-30
 20
16
 11
-30
 21
24
  0
LINE
  5
284
100
AcDbEntity
  8
razitko+format
  6
ByLayer
 62
    0
370
   -1
100
AcDbLine
 10
-60.0000000000001
 20
0
 11
-60.0000000000001
 21
23.99999999999989
  0
LINE
  5
285
100
AcDbEntity
  8
razitko+format
  6
ByLayer
 62
    0
370
   -1
100
AcDbLine
 10
-50.0000000000001
 20
0
 11
-50.0000000000001
 21
8
  0
LINE
  5
286
100
AcDbEntity
  8
razitko+format
  6
ByLayer
 62
    0
370
   -1
100
AcDbLine
 10
-72.00000000000009
 20
24
 11
-72.00000000000009
 21
32
  0
TEXT
  5
287
100
AcDbEntity
  8
razitko+format
  6
ByLayer
 62
    0
370
   -1
100
AcDbText
 10
-179.3343746523994
 20
21.10017922937868
 30
0
 40
1.8
  1
Oddělení
 50
0
 41
1
 51
0
  7
STANDARD
 71
    0
210
0
220
0
230
1
100
AcDbText
  0
LINE
  5
288
100
AcDbEntity
  8
razitko+format
  6
ByLayer
 62
    0
370
   -1
100
AcDbLine
 10
-159.0000000000001
 20
8
 11
-137
 21
8
  0
LINE
  5
289
100
AcDbEntity
  8
razitko+format
  6
ByLayer
 62
    0
370
   -1
100
AcDbLine
 10
-60.0000000000001
 20
8
 11
0
 21
8
  0
LINE
  5
28A
100
AcDbEntity
  8
razitko+format
  6
ByLayer
 62
    0
370
   -1
100
AcDbLine
 10
-180.0000000000001
 20
16
 11
0
 21
16
  0
TEXT
  5
28B
100
AcDbEntity
  8
razitko+format
  6
ByLayer
 62
    0
370
   -1
100
AcDbText
 10
-136.2912079239379
 20
13.29458056237331
 30
0
 40
1.8
  1
Název, doplňující název
 50
0
 41
1
 51
0
  7
STANDARD
 71
    0
210
0
220
0
230
1
100
AcDbText
  0
LINE
  5
28C
100
AcDbEntity
  8
razitko+format
  6
ByLayer
 62
    0
370
   -1
100
AcDbLine
 10
-30
 20
8
 11
-30
 21
0
  0
LINE
  5
28D
100
AcDbEntity
  8
razitko+format
  6
ByLayer
 62
    0
370
   -1
100
AcDbLine
 10
-20
 20
8
 11
-20
 21
0
  0
LINE
  5
28E
100
AcDbEntity
  8
razitko+format
  6
ByLayer
 62
    0
370
   -1
100
AcDbLine
 10
-10
 20
8
 11
-10
 21
0
  0
TEXT
  5
28F
100
AcDbEntity
  8
razitko+format
  6
ByLayer
 62
    0
370
   -1
100
AcDbText
 10
-19.32693385931088
 20
5.39032940085849
 30
0
 40
1.8
  1
Formát
 50
0
 41
1
 51
0
  7
STANDARD
 71
    0
210
0
220
0
230
1
100
AcDbText
  0
TEXT
  5
290
100
AcDbEntity
  8
razitko+format
  6
ByLayer
 62
    0
370
   -1
100
AcDbText
 10
-59.33746796420269
 20
13.06990309324385
 30
0
 40
1.8
  1
Č. dokumentu
 50
0
 41
1
 51
0
  7
STANDARD
 71
    0
210
0
220
0
230
1
100
AcDbText
  0
TEXT
  5
291
100
AcDbEntity
  8
razitko+format
  6
ByLayer
 62
    0
370
   -1
100
AcDbText
 10
-49.15618492242856
 20
5.491871822481924
 30
0
 40
1.8
  1
Datum vydání
 50
0
 41
1
 51
0
  7
STANDARD
 71
    0
210
0
220
0
230
1
100
AcDbText
  0
TEXT
  5
292
100
AcDbEntity
  8
razitko+format
  6
ByLayer
 62
    0
370
   -1
100
AcDbText
 10
-9.275189839873974
 20
5.296035139973012
 30
0
 40
1.8
  1
List
 50
0
 41
1
 51
0
  7
STANDARD
 71
    0
210
0
220
0
230
1
100
AcDbText
  0
TEXT
  5
293
100
AcDbEntity
  8
razitko+format
  6
ByLayer
 62
    0
370
   -1
100
AcDbText
 10
-29.40609684548986
 20
5.548902184671304
 30
0
 40
1.8
  1
Jazyk
 50
0
 41
1
 51
0
  7
STANDARD
 71
    0
210
0
220
0
230
1
100
AcDbText
  0
TEXT
  5
294
100
AcDbEntity
  8
razitko+format
  6
ByLayer
 62
    0
370
   -1
100
AcDbText
 10
-21.39030982105373
 20
37.26434624747299
 30
0
 40
1.8
  1
Přesnost
 50
0
 41
1
 51
0
  7
STANDARD
 71
    0
210
0
220
0
230
1
100
AcDbText
  0
TEXT
  5
295
100
AcDbEntity
  8
razitko+format
  6
ByLayer
 62
    0
370
   -1
100
AcDbText
 10
-71.19722401807982
 20
29.14385639713521
 30
0
 40
1.8
  1
Hrubá hmotnost
 50
0
 41
1
 51
0
  7
STANDARD
 71
    0
210
0
220
0
230
1
100
AcDbText
  0
LINE
  5
296
100
AcDbEntity
  8
razitko+format
  6
ByLayer
 62
    0
370
   -1
100
AcDbLine
 10
-44.00000000000011
 20
36
 11
-22
 21
36
  0
LINE
  5
297
100
AcDbEntity
  8
razitko+format
  6
ByLayer
 62
    0
370
   -1
100
AcDbLine
 10
-100.0000000000001
 20
32
 11
-44.00000000000011
 21
32
  0
LINE
  5
298
100
AcDbEntity
  8
razitko+format
  6
ByLayer
 62
    0
370
   -1
100
AcDbLine
 10
-22
 20
32
 11
-2.274e-13
 21
32
  0
LINE
  5
299
100
AcDbEntity
  8
razitko+format
  6
ByLayer
 62
    0
370
   -1
100
AcDbLine
 10
-100.0000000000001
 20
40
 11
-44.00000000000011
 21
40
  0
LINE
  5
29A
100
AcDbEntity
  8
razitko+format
  6
ByLayer
 62
    0
370
   -1
100
AcDbLine
 10
-22
 20
40
 11
-2.274e-13
 21
40
  0
TEXT
  5
29B
100
AcDbEntity
  8
razitko+format
  6
ByLayer
 62
    0
370
   -1
100
AcDbText
 10
-158.3887932411525
 20
21.22345512602908
 30
0
 40
1.8
  1
Technický referent
 50
0
 41
1
 51
0
  7
STANDARD
 71
    0
210
0
220
0
230
1
100
AcDbText
  0
TEXT
  5
29C
100
AcDbEntity
  8
razitko+format
  6
ByLayer
 62
    0
370
   -1
100
AcDbText
 10
-85.26848681042166
 20
21.28081162226532
 30
0
 40
1.8
  1
Soubor
 50
0
 41
1
 51
0
  7
STANDARD
 71
    0
210
0
220
0
230
1
100
AcDbText
  0
TEXT
  5
29D
100
AcDbEntity
  8
razitko+format
  6
ByLayer
 62
    0
370
   -1
100
AcDbText
 10
-59.20950273072708
 20
20.9623216826493
 30
0
 40
1.8
  1
Č. sestavy
 50
0
 41
1
 51
0
  7
STANDARD
 71
    0
210
0
220
0
230
1
100
AcDbText
  0
TEXT
  5
29E
100
AcDbEntity
  8
razitko+format
  6
ByLayer
 62
    0
370
   -1
100
AcDbText
 10
-43.39148430793398
 20
33.44628835529795
 30
0
 40
1.8
  1
Promítání
 50
0
 41
1
 51
0
  7
STANDARD
 71
    0
210
0
220
0
230
1
100
AcDbText
  0
LINE
  5
29F
100
AcDbEntity
  8
razitko+format
  6
ByLayer
 62
    0
370
   -1
100
AcDbLine
 10
-100.0000000000001
 20
24
 11
-100.0000000000001
 21
48
  0
LINE
  5
2A0
100
AcDbEntity
  8
razitko+format
  6
ByLayer
 62
    0
370
   -1
100
AcDbLine
 10
-60.00000000000023
 20
39.99999999999989
 11
-60.0000000000001
 21
48
  0
TEXT
  5
2A1
100
AcDbEntity
  8
razitko+format
  6
ByLayer
 62
    0
370
   -1
100
AcDbText
 10
-43.08877505089163
 20
45.30958859264672
 30
0
 40
1.8
  1
Úprava hran
 50
0
 41
1
 51
0
  7
STANDARD
 71
    0
210
0
220
0
230
1
100
AcDbText
  0
TEXT
  5
2A2
100
AcDbEntity
  8
razitko+format
  6
ByLayer
 62
    0
370
   -1
100
AcDbText
 10
-99.56469565609051
 20
28.9567941476123
 30
0
 40
1.8
  1
Čistá hmotnost
 50
0
 41
1
 51
0
  7
STANDARD
 71
    0
210
0
220
0
230
1
100
AcDbText
  0
TEXT
  5
2A3
100
AcDbEntity
  8
razitko+format
  6
ByLayer
 62
    0
370
   -1
100
AcDbText
 10
-99.19020756356188
 20
37.37459581441476
 30
0
 40
1.8
  1
Polotovar
 50
0
 41
1
 51
0
  7
STANDARD
 71
    0
210
0
220
0
230
1
100
AcDbText
  0
TEXT
  5
2A4
100
AcDbEntity
  8
razitko+format
  6
ByLayer
 62
    0
370
   -1
100
AcDbText
 10
-99.19020756356188
 20
45.32474196697718
 30
0
 40
1.8
  1
Materiál
 50
0
 41
1
 51
0
  7
STANDARD
 71
    0
210
0
220
0
230
1
100
AcDbText
  0
TEXT
  5
2A5
100
AcDbEntity
  8
razitko+format
  6
ByLayer
 62
    0
370
   -1
100
AcDbText
 10
-136.0856053141008
 20
21.26496893722219
 30
0
 40
1.8
  1
Druh dokumentu
 50
0
 41
1
 51
0
  7
STANDARD
 71
    0
210
0
220
0
230
1
100
AcDbText
  0
TEXT
  5
2A6
100
AcDbEntity
  8
razitko+format
  6
ByLayer
 62
    0
370
   -1
100
AcDbText
 10
-158.150852972042
 20
13.50369642828161
 30
0
 40
1.8
  1
Kreslil
 50
0
 41
1
 51
0
  7
STANDARD
 71
    0
210
0
220
0
230
1
100
AcDbText
  0
TEXT
  5
2A7
100
AcDbEntity
  8
razitko+format
  6
ByLayer
 62
    0
370
   -1
100
AcDbText
 10
-21.39030982105351
 20
29.51580801567661
 30
0
 40
1.8
  1
Tolerování
 50
0
 41
1
 51
0
  7
STANDARD
 71
    0
210
0
220
0
230
1
100
AcDbText
  0
TEXT
  5
2A8
100
AcDbEntity
  8
razitko+format
  6
ByLayer
 62
    0
370
   -1
100
AcDbText
 10
-106.4142848042783
 20
21.43062656066797
 30
0
 40
1.8
  1
Status dokumentu
 50
0
 41
1
 51
0
  7
STANDARD
 71
    0
210
0
220
0
230
1
100
AcDbText
  0
TEXT
  5
2A9
100
AcDbEntity
  8
razitko+format
  6
ByLayer
 62
    0
370
   -1
100
AcDbText
 10
-158.311022961396
 20
5.569651740474911
 30
0
 40
1.8
  1
Přezkoušel
 50
0
 41
1
 51
0
  7
STANDARD
 71
    0
210
0
220
0
230
1
100
AcDbText
  0
TEXT
  5
2AA
100
AcDbEntity
  8
razitko+format
  6
ByLayer
 62
    0
370
   -1
100
AcDbText
 10
-59.51452817497933
 20
45.50579006835324
 30
0
 40
1.8
  1
Tř. odpadu
 50
0
 41
1
 51
0
  7
STANDARD
 71
    0
210
0
220
0
230
1
100
AcDbText
  0
LINE
  5
2AB
100
AcDbEntity
  8
razitko+format
  6
ByLayer
 62
    0
370
   -1
100
AcDbLine
 10
-180.0000000000001
 20
48
 11
0
 21
48
  0
TEXT
  5
2AC
100
AcDbEntity
  8
razitko+format
  6
ByLayer
 62
    0
370
   -1
100
AcDbText
 10
-59.28136418779491
 20
5.386827456747934
 30
0
 40
1.8
  1
Změna
 50
0
 41
1
 51
0
  7
STANDARD
 71
    0
210
0
220
0
230
1
100
AcDbText
  0
TEXT
  5
2AD
100
AcDbEntity
  8
razitko+format
  6
ByLayer
 62
    0
370
   -1
100
AcDbText
 10
-29.20037486048295
 20
20.96232168264942
 30
0
 40
1.8
  1
Č. seznamu položek
 50
0
 41
1
 51
0
  7
STANDARD
 71
    0
210
0
220
0
230
1
100
AcDbText
  0
TEXT
  5
2AE
100
AcDbEntity
  8
razitko+format
  6
ByLayer
 62
    0
370
   -1
100
AcDbText
 10
-21.39030982105373
 20
45.26434624747299
 30
0
 40
1.8
  1
Měřítko
 50
0
 41
1
 51
0
  7
STANDARD
 71
    0
210
0
220
0
230
1
100
AcDbText
  0
ENDBLK
  5
B3
330
B1
100
AcDbEntity
  8
0
100
AcDbBlockEnd
  0
BLOCK
  5
B5
330
B4
100
AcDbEntity
  8
0
100
AcDbBlockBegin
  2
Identifikátor značky svaru3
 70
    0
 10
0
 20
0
  3
Identifikátor značky svaru3
  1

  0
LINE
  5
2AF
100
AcDbEntity
  8
Značka (ISO)
  6
ByLayer
 62
  256
370
   -1
100
AcDbLine
 10
716.9617173857221
 20
467.2092770848387
 11
718.1660570981965
 21
469.4000682334783
  0
LWPOLYLINE
  5
2B0
100
AcDbEntity
  8
Značka (ISO)
  6
ByLayer
 62
  256
370
   -1
100
AcDbPolyline
 90
    4
 70
    0
 43
0
 10
717.39990234375
 20
466.9684219360351
 10
718.1660461425781
 20
469.4000625610351
 10
716.5235900878906
 20
467.4501419067381
 10
717.39990234375
 20
466.9684219360351
  0
SOLID
  5
2B1
100
AcDbEntity
  8
Značka (ISO)
  6
ByLayer
 62
  256
370
   -1
100
AcDbTrace
 10
717.39990234375
 20
466.9684219360351
 30
0
 11
718.1660461425781
 21
469.4000625610351
 31
0
 12
716.5235900878906
 22
467.4501419067381
 32
0
 13
717.39990234375
 23
466.9684219360351
 33
0
  0
LINE
  5
2B2
100
AcDbEntity
  8
Značka (ISO)
  6
ByLayer
 62
  256
370
   -1
100
AcDbLine
 10
717.3998756154501
 20
466.968409142344
 11
718.1660570981965
 21
469.4000682334783
  0
LINE
  5
2B3
100
AcDbEntity
  8
Značka (ISO)
  6
ByLayer
 62
  256
370
   -1
100
AcDbLine
 10
718.1660570981965
 20
469.4000682334783
 11
716.5235591559942
 21
467.4501450273337
  0
LINE
  5
2B4
100
AcDbEntity
  8
Značka (ISO)
  6
ByLayer
 62
  256
370
   -1
100
AcDbLine
 10
716.5235591559942
 20
467.4501450273337
 11
717.3998756154501
 21
466.968409142344
  0
LINE
  5
2B5
100
AcDbEntity
  8
Značka (ISO)
  6
ByLayer
 62
  256
370
   -1
100
AcDbLine
 10
716.9617173857221
 20
467.2092770848387
 11
708.608759876949
 21
452.0145731440512
  0
CIRCLE
  5
2B6
100
AcDbEntity
  8
Značka (ISO)
  6
ByLayer
 62
  256
370
   -1
100
AcDbCircle
 10
708.608759876949
 20
452.0145731440512
 40
1.749999970197676
  0
LINE
  5
2B7
100
AcDbEntity
  8
Značka (ISO)
  6
ByLayer
 62
  256
370
   -1
100
AcDbLine
 10
692.9039873207452
 20
452.0145731440512
 11
699.903987201536
 21
452.0145731440512
  0
LINE
  5
2B8
100
AcDbEntity
  8
Značka (ISO)
  6
ByLayer
 62
  256
370
   -1
100
AcDbLine
 10
699.903987201536
 20
452.0145731440512
 11
692.9039873207452
 21
459.0145730248418
  0
LINE
  5
2B9
100
AcDbEntity
  8
Značka (ISO)
  6
ByLayer
 62
  256
370
   -1
100
AcDbLine
 10
692.9039873207452
 20
459.0145730248418
 11
692.9039873207452
 21
452.0145731440512
  0
ARC
  5
2BA
100
AcDbEntity
  8
Značka (ISO)
  6
ByLayer
 62
  256
370
   -1
100
AcDbCircle
 10
693.2485233038327
 20
452.3591091271388
 40
7.612499870359901
100
AcDbArc
 50
1.397181027296108
 51
88.60281897270364
  0
MTEXT
  5
2BB
100
AcDbEntity
  8
Značka (ISO)
  6
ByLayer
 62
  256
370
   -1
100
AcDbMText
 10
687.2602843678841
 20
453.0645731261699
 30
0
 40
3.499999940395355
 41
4.277777704928036
 71
    7
 72
    1
  1
a3
  7
ISO3.5
210
0
220
0
230
1
 50
0
 73
    1
 44
1
  0
LINE
  5
2BC
100
AcDbEntity
  8
Značka (ISO)
  6
DASHED
 62
  256
370
   -1
100
AcDbLine
 10
708.608759876949
 20
450.9645731440512
 11
686.9039873207452
 21
450.9645731440512
  0
LINE
  5
2BD
100
AcDbEntity
  8
Značka (ISO)
  6
ByLayer
 62
  256
370
   -1
100
AcDbLine
 10
708.6087598754491
 20
452.0145731440512
 11
686.9039873207452
 21
452.0145731440512
  0
ENDBLK
  5
B6
330
B4
100
AcDbEntity
  8
0
100
AcDbBlockEnd
  0
BLOCK
  5
B8
330
B7
100
AcDbEntity
  8
0
100
AcDbBlockBegin
  2
Identifikátor značky svaru4
 70
    0
 10
0
 20
0
  3
Identifikátor značky svaru4
  1

  0
LINE
  5
2BE
100
AcDbEntity
  8
Značka (ISO)
  6
ByLayer
 62
  256
370
   -1
100
AcDbLine
 10
570.7737027036482
 20
490.3345560780315
 11
568.8537276436015
 21
488.7334015668115
  0
LWPOLYLINE
  5
2BF
100
AcDbEntity
  8
Značka (ISO)
  6
ByLayer
 62
  256
370
   -1
100
AcDbPolyline
 90
    4
 70
    0
 43
0
 10
570.4534530639647
 20
490.7185363769531
 10
568.8537216186522
 20
488.7334060668945
 10
571.0939407348632
 20
489.9505615234375
 10
570.4534530639647
 20
490.7185363769531
  0
SOLID
  5
2C0
100
AcDbEntity
  8
Značka (ISO)
  6
ByLayer
 62
  256
370
   -1
100
AcDbTrace
 10
570.4534530639647
 20
490.7185363769531
 30
0
 11
568.8537216186522
 21
488.7334060668945
 31
0
 12
571.0939407348632
 22
489.9505615234375
 32
0
 13
570.4534530639647
 23
490.7185363769531
 33
0
  0
LINE
  5
2C1
100
AcDbEntity
  8
Značka (ISO)
  6
ByLayer
 62
  256
370
   -1
100
AcDbLine
 10
570.4534718014042
 20
490.7185510900405
 11
568.8537276436015
 21
488.7334015668115
  0
LINE
  5
2C2
100
AcDbEntity
  8
Značka (ISO)
  6
ByLayer
 62
  256
370
   -1
100
AcDbLine
 10
568.8537276436015
 20
488.7334015668115
 11
571.0939336058919
 21
489.950561066022
  0
LINE
  5
2C3
100
AcDbEntity
  8
Značka (ISO)
  6
ByLayer
 62
  256
370
   -1
100
AcDbLine
 10
571.0939336058919
 20
489.950561066022
 11
570.4534718014042
 21
490.7185510900405
  0
LINE
  5
2C4
100
AcDbEntity
  8
Značka (ISO)
  6
ByLayer
 62
  256
370
   -1
100
AcDbLine
 10
570.7737027036482
 20
490.3345560780315
 11
581.5934849817132
 21
499.3576645368046
  0
CIRCLE
  5
2C5
100
AcDbEntity
  8
Značka (ISO)
  6
ByLayer
 62
  256
370
   -1
100
AcDbCircle
 10
581.5934849817132
 20
499.3576645368046
 40
1.749999970197676
  0
LINE
  5
2C6
100
AcDbEntity
  8
Značka (ISO)
  6
ByLayer
 62
  256
370
   -1
100
AcDbLine
 10
594.0116663116791
 20
499.3576645368046
 11
601.0116661924698
 21
499.3576645368046
  0
LINE
  5
2C7
100
AcDbEntity
  8
Značka (ISO)
  6
ByLayer
 62
  256
370
   -1
100
AcDbLine
 10
601.0116661924698
 20
499.3576645368046
 11
594.0116663116791
 21
506.3576644175951
  0
LINE
  5
2C8
100
AcDbEntity
  8
Značka (ISO)
  6
ByLayer
 62
  256
370
   -1
100
AcDbLine
 10
594.0116663116791
 20
506.3576644175951
 11
594.0116663116791
 21
499.3576645368046
  0
ARC
  5
2C9
100
AcDbEntity
  8
Značka (ISO)
  6
ByLayer
 62
  256
370
   -1
100
AcDbCircle
 10
594.3562022947666
 20
499.7022005198923
 40
7.6124998703599
100
AcDbArc
 50
1.397181027296108
 51
88.60281897270364
  0
MTEXT
  5
2CA
100
AcDbEntity
  8
Značka (ISO)
  6
ByLayer
 62
  256
370
   -1
100
AcDbMText
 10
584.6958857030257
 20
500.4076645189234
 30
0
 40
3.499999940395355
 41
8.361110968722617
 71
    7
 72
    1
  1
a2,5
  7
ISO3.5
210
0
220
0
230
1
 50
0
 73
    1
 44
1
  0
LINE
  5
2CB
100
AcDbEntity
  8
Značka (ISO)
  6
DASHED
 62
  256
370
   -1
100
AcDbLine
 10
581.5934849817132
 20
498.3076645368046
 11
607.9664388976852
 21
498.3076645368046
  0
LINE
  5
2CC
100
AcDbEntity
  8
Značka (ISO)
  6
ByLayer
 62
  256
370
   -1
100
AcDbLine
 10
581.5934849832132
 20
499.3576645368046
 11
607.9664388976852
 21
499.3576645368046
  0
ENDBLK
  5
B9
330
B7
100
AcDbEntity
  8
0
100
AcDbBlockEnd
  0
BLOCK
  5
BB
330
BA
100
AcDbEntity
  8
0
100
AcDbBlockBegin
  2
Identifikátor značky svaru5
 70
    0
 10
0
 20
0
  3
Identifikátor značky svaru5
  1

  0
LINE
  5
2CD
100
AcDbEntity
  8
Značka (ISO)
  6
ByLayer
 62
  256
370
   -1
100
AcDbLine
 10
524.2830205941467
 20
365.133147357498
 11
526.0203943102358
 21
366.9307937550531
  0
LWPOLYLINE
  5
2CE
100
AcDbEntity
  8
Značka (ISO)
  6
ByLayer
 62
  256
370
   -1
100
AcDbPolyline
 90
    4
 70
    0
 43
0
 10
524.6425628662108
 20
364.7856903076172
 10
526.020393371582
 20
366.9308090209961
 10
523.9234924316406
 20
365.4806137084961
 10
524.6425628662108
 20
364.7856903076172
  0
SOLID
  5
2CF
100
AcDbEntity
  8
Značka (ISO)
  6
ByLayer
 62
  256
370
   -1
100
AcDbTrace
 10
524.6425628662108
 20
364.7856903076172
 30
0
 11
526.020393371582
 21
366.9308090209961
 31
0
 12
523.9234924316406
 22
365.4806137084961
 32
0
 13
524.6425628662108
 23
364.7856903076172
 33
0
  0
LINE
  5
2D0
100
AcDbEntity
  8
Značka (ISO)
  6
ByLayer
 62
  256
370
   -1
100
AcDbLine
 10
524.6425498736575
 20
364.7856726142801
 11
526.0203943102358
 21
366.9307937550531
  0
LINE
  5
2D1
100
AcDbEntity
  8
Značka (ISO)
  6
ByLayer
 62
  256
370
   -1
100
AcDbLine
 10
526.0203943102358
 20
366.9307937550531
 11
523.9234913146357
 21
365.4806221007159
  0
LINE
  5
2D2
100
AcDbEntity
  8
Značka (ISO)
  6
ByLayer
 62
  256
370
   -1
100
AcDbLine
 10
523.9234913146357
 20
365.4806221007159
 11
524.6425498736575
 21
364.7856726142801
  0
LINE
  5
2D3
100
AcDbEntity
  8
Značka (ISO)
  6
ByLayer
 62
  256
370
   -1
100
AcDbLine
 10
524.2830205941467
 20
365.133147357498
 11
513.5706177565261
 21
354.049111613273
  0
CIRCLE
  5
2D4
100
AcDbEntity
  8
Značka (ISO)
  6
ByLayer
 62
  256
370
   -1
100
AcDbCircle
 10
513.5706177565261
 20
354.049111613273
 40
1.749999970197676
  0
LINE
  5
2D5
100
AcDbEntity
  8
Značka (ISO)
  6
ByLayer
 62
  256
370
   -1
100
AcDbLine
 10
497.865845200322
 20
354.049111613273
 11
504.8658450811128
 21
354.049111613273
  0
LINE
  5
2D6
100
AcDbEntity
  8
Značka (ISO)
  6
ByLayer
 62
  256
370
   -1
100
AcDbLine
 10
504.8658450811128
 20
354.049111613273
 11
497.865845200322
 21
361.0491114940637
  0
LINE
  5
2D7
100
AcDbEntity
  8
Značka (ISO)
  6
ByLayer
 62
  256
370
   -1
100
AcDbLine
 10
497.865845200322
 20
361.0491114940637
 11
497.865845200322
 21
354.049111613273
  0
ARC
  5
2D8
100
AcDbEntity
  8
Značka (ISO)
  6
ByLayer
 62
  256
370
   -1
100
AcDbCircle
 10
498.2103811834096
 20
354.3936475963605
 40
7.612499870359901
100
AcDbArc
 50
1.397181027296108
 51
88.60281897270364
  0
MTEXT
  5
2D9
100
AcDbEntity
  8
Značka (ISO)
  6
ByLayer
 62
  256
370
   -1
100
AcDbMText
 10
488.5500645916687
 20
355.0991115953916
 30
0
 40
3.499999940395355
 41
8.361110968722617
 71
    7
 72
    1
  1
a2,5
  7
ISO3.5
210
0
220
0
230
1
 50
0
 73
    1
 44
1
  0
LINE
  5
2DA
100
AcDbEntity
  8
Značka (ISO)
  6
DASHED
 62
  256
370
   -1
100
AcDbLine
 10
513.5706177565261
 20
352.999111613273
 11
487.197663840554
 21
352.999111613273
  0
LINE
  5
2DB
100
AcDbEntity
  8
Značka (ISO)
  6
ByLayer
 62
  256
370
   -1
100
AcDbLine
 10
513.5706177550258
 20
354.049111613273
 11
487.197663840554
 21
354.049111613273
  0
ENDBLK
  5
BC
330
BA
100
AcDbEntity
  8
0
100
AcDbBlockEnd
  0
ENDSEC
  0
SECTION
  2
ENTITIES
  0
LINE
  5
2DC
100
AcDbEntity
  8
0
  6
ByLayer
 62
  256
370
   -1
100
AcDbLine
 10
2608.726900204939
 20
2471.903416121802
 11
2912.726900204939
 21
2471.903416121802
  0
LINE
  5
2DD
100
AcDbEntity
  8
0
  6
ByLayer
 62
  256
370
   -1
100
AcDbLine
 10
2912.726900204939
 20
2471.903416121802
 11
2912.726900204939
 21
2570.903416121803
  0
LINE
  5
2DE
100
AcDbEntity
  8
0
  6
ByLayer
 62
  256
370
   -1
100
AcDbLine
 10
2912.726900204939
 20
2570.903416121803
 11
2608.726900204939
 21
2570.903416121803
  0
LINE
  5
2DF
100
AcDbEntity
  8
0
  6
ByLayer
 62
  256
370
   -1
100
AcDbLine
 10
2608.726900204939
 20
2570.903416121803
 11
2608.726900204939
 21
2471.903416121802
  0
LINE
  5
2E0
100
AcDbEntity
  8
0
  6
ByLayer
 62
  256
370
   -1
100
AcDbLine
 10
2608.726900204939
 20
2580.571508679957
 11
2845.726900204939
 21
2580.571508679957
  0
LINE
  5
2E1
100
AcDbEntity
  8
0
  6
ByLayer
 62
  256
370
   -1
100
AcDbLine
 10
2845.726900204939
 20
2580.571508679957
 11
2845.726900204939
 21
2679.571508679956
  0
LINE
  5
2E2
100
AcDbEntity
  8
0
  6
ByLayer
 62
  256
370
   -1
100
AcDbLine
 10
2608.726900204939
 20
2580.571508679957
 11
2608.726900204939
 21
2679.571508679956
  0
LINE
  5
2E3
100
AcDbEntity
  8
0
  6
ByLayer
 62
  256
370
   -1
100
AcDbLine
 10
2608.726900204939
 20
2679.571508679956
 11
2845.726900204939
 21
2679.571508679956
  0
LINE
  5
2E4
100
AcDbEntity
  8
0
  6
ByLayer
 62
  256
370
   -1
100
AcDbLine
 10
2608.726900204939
 20
2783.440112138945
 11
2845.726900204939
 21
2783.440112138945
  0
LINE
  5
2E5
100
AcDbEntity
  8
0
  6
ByLayer
 62
  256
370
   -1
100
AcDbLine
 10
2608.726900204939
 20
2691.440112138945
 11
2845.726900204939
 21
2691.440112138945
  0
CIRCLE
  5
2E6
100
AcDbEntity
  8
0
  6
ByLayer
 62
  256
370
   -1
100
AcDbCircle
 10
2727.226900204939
 20
2630.071508679956
 40
7.5
  0
CIRCLE
  5
2E7
100
AcDbEntity
  8
0
  6
ByLayer
 62
  256
370
   -1
100
AcDbCircle
 10
2727.226900204939
 20
2740.940112138945
 40
7.5
  0
LINE
  5
2E8
100
AcDbEntity
  8
0
  6
ByLayer
 62
  256
370
   -1
100
AcDbLine
 10
2845.726900204939
 20
2783.440112138945
 11
2845.726900204939
 21
2691.440112138945
  0
LINE
  5
2E9
100
AcDbEntity
  8
0
  6
ByLayer
 62
  256
370
   -1
100
AcDbLine
 10
2608.726900204939
 20
2783.440112138945
 11
2608.726900204939
 21
2691.440112138945
  0
LINE
  5
2EA
100
AcDbEntity
  8
0
  6
ByLayer
 62
  256
370
   -1
100
AcDbLine
 10
2853.990241944351
 20
2580.571508679957
 11
3090.990241944351
 21
2580.571508679957
  0
LINE
  5
2EB
100
AcDbEntity
  8
0
  6
ByLayer
 62
  256
370
   -1
100
AcDbLine
 10
3090.990241944351
 20
2580.571508679957
 11
3090.990241944351
 21
2679.571508679956
  0
LINE
  5
2EC
100
AcDbEntity
  8
0
  6
ByLayer
 62
  256
370
   -1
100
AcDbLine
 10
2853.990241944351
 20
2580.571508679957
 11
2853.990241944351
 21
2679.571508679956
  0
LINE
  5
2ED
100
AcDbEntity
  8
0
  6
ByLayer
 62
  256
370
   -1
100
AcDbLine
 10
2853.990241944351
 20
2679.571508679956
 11
3090.990241944351
 21
2679.571508679956
  0
LINE
  5
2EE
100
AcDbEntity
  8
0
  6
ByLayer
 62
  256
370
   -1
100
AcDbLine
 10
2853.990241944351
 20
2783.440112138945
 11
3090.990241944351
 21
2783.440112138945
  0
LINE
  5
2EF
100
AcDbEntity
  8
0
  6
ByLayer
 62
  256
370
   -1
100
AcDbLine
 10
2853.990241944351
 20
2691.440112138945
 11
3090.990241944351
 21
2691.440112138945
  0
LINE
  5
2F0
100
AcDbEntity
  8
0
  6
ByLayer
 62
  256
370
   -1
100
AcDbLine
 10
3090.990241944351
 20
2783.440112138945
 11
3090.990241944351
 21
2691.440112138945
  0
LINE
  5
2F1
100
AcDbEntity
  8
0
  6
ByLayer
 62
  256
370
   -1
100
AcDbLine
 10
2853.990241944351
 20
2783.440112138945
 11
2853.990241944351
 21
2691.440112138945
  0
LINE
  5
2F2
100
AcDbEntity
  8
0
  6
ByLayer
 62
  256
370
   -1
100
AcDbLine
 10
2912.726900204939
 20
2436.499024567346
 11
2912.726900204939
 21
2460.499024567346
  0
LINE
  5
2F3
100
AcDbEntity
  8
0
  6
ByLayer
 62
  256
370
   -1
100
AcDbLine
 10
2912.726900204939
 20
2460.499024567346
 11
2608.726900204939
 21
2460.499024567346
  0
LINE
  5
2F4
100
AcDbEntity
  8
0
  6
ByLayer
 62
  256
370
   -1
100
AcDbLine
 10
2608.726900204939
 20
2460.499024567346
 11
2608.726900204939
 21
2436.499024567346
  0
LINE
  5
2F5
100
AcDbEntity
  8
0
  6
ByLayer
 62
  256
370
   -1
100
AcDbLine
 10
2912.726900204939
 20
2436.499024567345
 11
2608.726900204939
 21
2436.499024567345
  0
LINE
  5
2F6
100
AcDbEntity
  8
0
  6
ByLayer
 62
  256
370
   -1
100
AcDbLine
 10
2923.9578273419
 20
2471.903416121802
 11
3227.957827341902
 21
2471.903416121802
  0
LINE
  5
2F7
100
AcDbEntity
  8
0
  6
ByLayer
 62
  256
370
   -1
100
AcDbLine
 10
3227.957827341902
 20
2471.903416121802
 11
3227.957827341902
 21
2570.903416121803
  0
LINE
  5
2F8
100
AcDbEntity
  8
0
  6
ByLayer
 62
  256
370
   -1
100
AcDbLine
 10
3227.957827341902
 20
2570.903416121803
 11
2923.9578273419
 21
2570.903416121803
  0
LINE
  5
2F9
100
AcDbEntity
  8
0
  6
ByLayer
 62
  256
370
   -1
100
AcDbLine
 10
2923.9578273419
 20
2570.903416121803
 11
2923.9578273419
 21
2471.903416121802
  0
LINE
  5
2FA
100
AcDbEntity
  8
0
  6
ByLayer
 62
  256
370
   -1
100
AcDbLine
 10
2912.726900204939
 20
2399.571108988458
 11
2912.726900204939
 21
2423.571108988458
  0
LINE
  5
2FB
100
AcDbEntity
  8
0
  6
ByLayer
 62
  256
370
   -1
100
AcDbLine
 10
2912.726900204939
 20
2423.571108988458
 11
2608.726900204939
 21
2423.571108988458
  0
LINE
  5
2FC
100
AcDbEntity
  8
0
  6
ByLayer
 62
  256
370
   -1
100
AcDbLine
 10
2608.726900204939
 20
2423.571108988458
 11
2608.726900204939
 21
2399.571108988458
  0
LINE
  5
2FD
100
AcDbEntity
  8
0
  6
ByLayer
 62
  256
370
   -1
100
AcDbLine
 10
2912.726900204939
 20
2399.571108988457
 11
2608.726900204939
 21
2399.571108988457
  0
LINE
  5
2FE
100
AcDbEntity
  8
0
  6
ByLayer
 62
  256
370
   -1
100
AcDbLine
 10
2912.726900204939
 20
2364.583872448182
 11
2912.726900204939
 21
2388.583872448182
  0
LINE
  5
2FF
100
AcDbEntity
  8
0
  6
ByLayer
 62
  256
370
   -1
100
AcDbLine
 10
2912.726900204939
 20
2388.583872448182
 11
2608.726900204939
 21
2388.583872448182
  0
LINE
  5
300
100
AcDbEntity
  8
0
  6
ByLayer
 62
  256
370
   -1
100
AcDbLine
 10
2608.726900204939
 20
2388.583872448182
 11
2608.726900204939
 21
2364.583872448182
  0
LINE
  5
301
100
AcDbEntity
  8
0
  6
ByLayer
 62
  256
370
   -1
100
AcDbLine
 10
2912.726900204939
 20
2364.583872448181
 11
2608.726900204939
 21
2364.583872448181
  0
ENDSEC
  0
SECTION
  2
OBJECTS
  0
DICTIONARY
  5
C
330
0
100
AcDbDictionary
281
    1
  3
ACAD_GROUP
350
D
  0
DICTIONARY
  5
D
330
C
100
AcDbDictionary
281
    1
  0
PLOTSETTINGS
  5
302
100
AcDbPlotSettings
  6
1x1
 40
0
 41
0
 42
0
 43
0
  0
ENDSEC
  0
EOF
